<svg width="40" height="40" viewBox="0 0 40 40" fill="none" xmlns="http://www.w3.org/2000/svg">
<g clip-path="url(#clip0_146_7758)">
<path d="M33.139 10.6726C33.8488 8.66241 35.225 6.95579 37.0393 5.83644L38.3914 5L36.8011 5.03476C29.1825 5.20374 20.9096 13.0385 18.8605 15.114C18.2928 13.8139 16.8409 10.8022 15.034 9.87913C14.3662 9.53967 13.6117 9.40848 12.8685 9.50279C12.1251 9.5968 11.4272 9.91238 10.8652 10.4078L-1 8.70473L9.74239 12.9212C9.9156 13.9483 10.4573 16.6523 11.5495 17.8701C11.5495 18.9622 11.9049 24.4831 19.2932 27.7543C18.7515 28.4822 17.9457 29.9211 18.8598 31.1735L19.5574 30.6578C18.9075 29.7911 19.7264 28.582 20.1163 28.1011L20.2073 28.1401H20.2079C20.5389 28.2749 20.8463 28.462 21.1178 28.6948L20.8231 29.0587C20.7233 29.1669 19.8609 30.1551 20.0822 31.1344C20.2228 31.6776 20.6314 32.1108 21.1656 32.2828L21.4993 31.4812C21.0054 31.2775 20.9488 31.0477 20.9316 30.9525C20.8276 30.493 21.2955 29.8389 21.4863 29.631L21.755 29.3015H21.7547C22.2447 29.8556 22.706 30.4341 23.1373 31.035C24.5415 32.907 26.1187 35 28.6754 35C28.9761 34.9991 29.2763 34.9716 29.5726 34.9178L35.4921 33.8387L34.3525 33.2538C34.2917 33.2235 28.2552 30.0729 26.6259 25.9737L26.6256 25.9734C26.2266 24.9737 25.7544 24.0046 25.213 23.0742C27.3797 22.4847 30.738 19.6723 31.7825 17.4406C32.8269 15.2091 39.8257 10.1127 39.8992 10.0607L41.3943 8.96862L39.5701 9.28057C39.3361 9.3241 36.5061 9.81832 33.1391 10.6719L33.139 10.6726ZM19.025 16.1846C19.116 16.0894 27.4622 7.27082 35.3058 6.03965V6.03995C33.7887 7.30533 32.6925 9.00258 32.1641 10.9064H32.1989C28.9575 11.773 25.4082 12.9474 23.2634 14.3732H23.2631C21.8339 15.3426 20.2702 16.0974 18.6222 16.6134L19.025 16.1846ZM30.9986 17.086C29.95 19.3135 26.4312 22.0174 24.7453 22.2861C23.9325 20.986 22.9854 19.7748 21.9199 18.6721L21.3132 19.2917C23.2345 21.3282 24.7625 23.7023 25.8202 26.2946C27.1463 29.6358 31.0203 32.2879 32.8968 33.4275L29.43 34.0472C26.8557 34.5067 25.3217 32.4654 23.8399 30.4982H23.8396C23.3653 29.8501 22.8545 29.2295 22.3101 28.6392L23.8874 26.6976L23.2157 26.1517L21.6728 28.0497C21.3315 27.7517 20.9434 27.5116 20.5245 27.339C13.5907 24.6654 12.564 20.176 12.4294 18.4554L12.5031 18.4772H13.5432V17.6106H12.62C11.7014 17.3938 10.8868 14.5336 10.5615 12.5446L10.5225 12.2977L6.23226 10.6119L10.9475 11.3053L11.1643 11.3355L11.316 11.1796H11.3157C11.7465 10.7585 12.2978 10.4825 12.8927 10.39C13.4879 10.2975 14.097 10.3933 14.6351 10.6639C16.6287 11.6822 18.2839 16.0115 18.3011 16.0547L18.5263 16.6526H18.5266C17.6443 16.9422 16.7211 17.0885 15.7922 17.0861L15.7575 17.5196L15.7185 17.9531C15.8527 17.9531 19.0596 18.2088 23.7401 15.1189C27.1332 12.8784 34.4701 11.2189 37.8889 10.5079C35.7049 12.172 31.8221 15.3311 30.9987 17.0903L30.9986 17.086Z" fill="white"/>
</g>
<defs>
<clipPath id="clip0_146_7758">
<rect width="40" height="40" fill="white"/>
</clipPath>
</defs>
</svg>
