<svg width="40" height="40" viewBox="0 0 40 40" fill="none" xmlns="http://www.w3.org/2000/svg">
<path d="M24.7668 28.1121H30.385C30.7237 28.1121 30.9994 27.8364 30.9994 27.4977C30.9994 27.1589 30.7237 26.8832 30.385 26.8832H20.6154V19.9612H32.6743C33.013 19.9612 33.2887 19.6855 33.2887 19.3468C33.2887 19.008 33.013 18.7323 32.6743 18.7323C20.7615 18.7318 20.6154 7.10884 20.6154 6.61446C20.6154 6.27569 20.3397 6 20.0009 6C19.6622 6 19.3865 6.27569 19.3865 6.61419C19.3862 7.10905 19.2403 18.732 7.32833 18.7327C6.98955 18.7327 6.71387 19.0084 6.71387 19.3472C6.71387 19.686 6.98955 19.9617 7.32833 19.9617H19.3865V26.8833H9.61693C9.27815 26.8833 9.00247 27.159 9.00247 27.4978C9.00247 27.8366 9.27815 28.1123 9.61693 28.1123H15.2343L11.3914 33.9713C11.3012 34.109 11.2702 34.2734 11.3042 34.4341C11.3382 34.5951 11.4323 34.7328 11.5689 34.8217C11.6696 34.8875 11.7859 34.9224 11.906 34.9224C12.1145 34.9224 12.3071 34.8179 12.4193 34.6448L16.7038 28.1118H23.2974L27.5822 34.645C27.7633 34.9196 28.1679 34.997 28.4326 34.8212C28.5697 34.7315 28.6635 34.5935 28.6973 34.4327C28.7307 34.2717 28.6998 34.1079 28.6095 33.9708L24.7668 28.1121ZM13.4375 18.7323C17.4307 16.8848 19.2093 13.3199 20.0007 10.4712C20.7926 13.3199 22.5713 16.8849 26.5645 18.7323H13.4375Z" fill="white"/>
<path d="M10.0904 29.0042H3.61446C3.27569 29.0042 3 29.2798 3 29.6186C3 29.9574 3.27569 30.2331 3.61446 30.2331H6.23824V34.3077C6.23824 34.6465 6.51392 34.9221 6.8527 34.9221C7.19147 34.9221 7.46716 34.6465 7.46716 34.3077V30.2331H10.0904C10.4291 30.2331 10.7048 29.9574 10.7048 29.6186C10.7048 29.2798 10.4291 29.0042 10.0904 29.0042H10.0904Z" fill="white"/>
<path d="M36.3861 29.0042H29.9094C29.5706 29.0042 29.2949 29.2798 29.2949 29.6186C29.2949 29.9574 29.5706 30.2331 29.9094 30.2331H32.5334V34.3077C32.5334 34.6465 32.8091 34.9221 33.1479 34.9221C33.4867 34.9221 33.7624 34.6465 33.7624 34.3077V30.2331H36.3861C36.7249 30.2331 37.0006 29.9574 37.0006 29.6186C37.0006 29.2798 36.7249 29.0042 36.3861 29.0042V29.0042Z" fill="white"/>
</svg>
