<svg width="40" height="40" viewBox="0 0 40 40" fill="none" xmlns="http://www.w3.org/2000/svg">
<path d="M5.62295 21.9829C9.3369 21.9829 15.9976 21.0853 18.2504 18.1265C20.5034 15.1678 17.0929 13.0694 19.8597 10.0428C22.1871 7.49242 27.6033 6.63211 33.9912 7.73383C34.333 7.79207 34.6574 7.56202 34.7154 7.22005C34.7734 6.87829 34.5435 6.55393 34.2016 6.49594C27.2873 5.29511 21.5927 6.30402 18.9436 9.20723C18.2759 9.92577 17.81 10.8078 17.5925 11.7643C17.3751 12.7207 17.4141 13.7176 17.7055 14.6542C19.0116 19.3895 10.5068 20.7079 5.62297 20.7451C5.281 20.7451 5.00391 21.0222 5.00391 21.3641C5.00391 21.7059 5.281 21.983 5.62297 21.983L5.62295 21.9829Z" fill="white"/>
<path d="M34.14 9.60337C32.9021 9.51052 26.5822 9.18866 25.7651 11.8999C24.6818 15.521 31.8374 18.1579 26.5017 24.6823C19.3216 33.4594 5.83356 31.9059 5.69774 31.8873C5.35598 31.8463 5.04552 32.0902 5.0045 32.432C4.96347 32.774 5.2074 33.0842 5.54918 33.1252C6.50977 33.2208 7.47476 33.262 8.43991 33.2492C12.9957 33.2492 21.8658 32.2898 27.4553 25.4562C33.2305 18.3997 26.2174 14.7786 26.954 12.241C27.344 10.9349 31.3365 10.6254 34.054 10.8236V10.8233C34.357 10.7968 34.5959 10.5539 34.6175 10.2505C34.639 9.94707 34.437 9.67308 34.1406 9.60385L34.14 9.60337Z" fill="white"/>
<path d="M11.72 28.6555C11.3177 28.3931 10.8478 28.2534 10.3675 28.2534C9.88725 28.2534 9.41743 28.3931 9.01515 28.6555C8.80666 28.8018 8.55796 28.8806 8.30324 28.8806C8.04853 28.8806 7.79983 28.8018 7.59133 28.6555C6.79278 28.1788 5.62305 27.9993 5.62305 28.8783C5.62305 29.0424 5.68813 29.1999 5.80419 29.316C5.92045 29.4321 6.07776 29.4971 6.2419 29.4971C6.49786 29.4876 6.74925 29.5661 6.95381 29.7201C7.35547 29.9811 7.82426 30.1201 8.30325 30.1201C8.78224 30.1201 9.25099 29.9811 9.65268 29.7201C9.8618 29.5722 10.1115 29.4928 10.3675 29.4928C10.6237 29.4928 10.8734 29.5722 11.0826 29.7201C11.8686 30.1906 13.0511 30.3825 13.0511 29.4973V29.4971C13.0511 29.333 12.9858 29.1757 12.8697 29.0596C12.7536 28.9434 12.5961 28.8783 12.432 28.8783C12.1767 28.8849 11.9261 28.8066 11.7201 28.6555H11.72Z" fill="white"/>
<path d="M14.4437 23.9639C15.1741 23.9639 15.3413 24.583 16.511 24.583V24.5828C16.853 24.5828 17.1301 24.3057 17.1301 23.964C17.1301 23.622 16.853 23.3449 16.511 23.3449C15.7807 23.3449 15.6134 22.7258 14.4437 22.7258C13.2737 22.7258 13.1191 23.3449 12.3823 23.3449C11.6458 23.3449 11.4847 22.7258 10.321 22.7258C9.97924 22.7258 9.70215 23.0031 9.70215 23.3449C9.70215 23.6866 9.97925 23.964 10.321 23.964C11.0451 23.964 11.2186 24.583 12.3823 24.583C13.5461 24.5828 13.7071 23.964 14.4437 23.964V23.9639Z" fill="white"/>
<path d="M14.7529 27.0587C15.477 27.0587 15.6505 27.6777 16.8142 27.6777C17.9779 27.6777 18.1328 27.0587 18.8755 27.0587C19.6183 27.0587 19.7732 27.6777 20.9429 27.6777C21.2846 27.6777 21.5617 27.4004 21.5617 27.0587C21.5617 26.7169 21.2846 26.4396 20.9429 26.4396C20.2125 26.4396 20.0453 25.8206 18.8755 25.8206C17.7056 25.8206 17.557 26.4396 16.8142 26.4396C16.0714 26.4396 15.9104 25.8206 14.7529 25.8206V25.8208C14.4111 25.8208 14.1338 26.0979 14.1338 26.4396C14.1338 26.7816 14.4111 27.0587 14.7529 27.0587V27.0587Z" fill="white"/>
<path d="M22.9543 21.9521C23.7404 22.4287 24.9228 22.6207 24.9228 21.7355C24.9228 21.5713 24.8576 21.4138 24.7415 21.2978C24.6254 21.1817 24.4679 21.1164 24.3038 21.1164C24.0395 21.1179 23.7823 21.0306 23.5734 20.8687C23.1717 20.6078 22.703 20.4688 22.224 20.4688C21.745 20.4688 21.2762 20.6078 20.8745 20.8687C20.666 21.0153 20.4175 21.094 20.1626 21.094C19.9079 21.094 19.6594 21.0153 19.4509 20.8687C18.6586 20.3921 17.4824 20.2064 17.4824 21.0915V21.0917C17.4824 21.2559 17.5477 21.4132 17.6638 21.5293C17.7798 21.6455 17.9373 21.7106 18.1015 21.7106C18.3562 21.7025 18.6063 21.7788 18.8134 21.9274C19.2148 22.1883 19.6836 22.3274 20.1626 22.3274C20.6418 22.3274 21.1104 22.1883 21.5121 21.9274C21.7249 21.7802 21.9786 21.7036 22.2372 21.7079C22.4959 21.7123 22.7467 21.7976 22.9543 21.9521V21.9521Z" fill="white"/>
</svg>
