<svg width="40" height="40" viewBox="0 0 40 40" fill="none" xmlns="http://www.w3.org/2000/svg">
<path fill-rule="evenodd" clip-rule="evenodd" d="M37.6922 4.31195C36.4462 3.6683 35.0968 3 33.6955 3C32.9465 3 32.2468 3.33306 31.5549 3.6908C31.043 3.95536 30.5386 4.24237 29.9845 4.24237C29.5361 4.24237 29.147 3.96284 28.7458 3.71437C28.142 3.34165 27.527 3.00004 26.8537 3.00004C25.6398 3.00004 24.4907 3.68833 23.4646 4.33917C23.1765 4.52303 23.0894 4.90684 23.2733 5.19634C23.4571 5.48586 23.8423 5.57155 24.1318 5.38769C24.963 4.85968 25.87 4.24208 26.854 4.24208C27.3024 4.24208 27.6915 4.52161 28.0928 4.77008C28.6954 5.1439 29.3116 5.48441 29.9849 5.48441C30.7339 5.48441 31.4335 5.15136 32.1254 4.79362C32.6373 4.53017 33.1418 4.24204 33.6959 4.24204C34.9036 4.24204 36.0503 4.86212 37.1235 5.41484C37.428 5.57264 37.8032 5.45339 37.9595 5.14779C38.1173 4.84329 37.9981 4.46809 37.6925 4.31171L37.6922 4.31195Z" fill="white"/>
<path fill-rule="evenodd" clip-rule="evenodd" d="M20.9894 4.31195C19.7434 3.6683 18.394 3 16.9927 3C16.2437 3 15.5441 3.33306 14.8522 3.6908C14.3402 3.95536 13.8358 4.24237 13.2817 4.24237C12.8333 4.24237 12.4442 3.96284 12.043 3.71437C11.4393 3.34165 10.8242 3.00004 10.1509 3.00004C8.93704 3.00004 7.78788 3.68833 6.76182 4.33917C6.47231 4.52303 6.38661 4.90684 6.57048 5.19634C6.75433 5.48586 7.13814 5.57155 7.42764 5.38769C8.26018 4.85968 9.16697 4.24208 10.1509 4.24208C10.5993 4.24208 10.9869 4.52161 11.3896 4.77008C11.9922 5.1439 12.607 5.48441 13.2817 5.48441C14.0308 5.48441 14.7304 5.15136 15.4223 4.79362C15.9342 4.53017 16.4386 4.24204 16.9927 4.24204C18.2004 4.24204 19.3471 4.86212 20.4203 5.41484C20.7248 5.57264 21.1 5.45339 21.2564 5.14779C21.4142 4.84329 21.2936 4.46809 20.9893 4.31171L20.9894 4.31195Z" fill="white"/>
<path fill-rule="evenodd" clip-rule="evenodd" d="M16.6604 7.49505C15.413 6.8514 14.065 6.18311 12.6637 6.18311C11.9133 6.18311 11.2139 6.51616 10.5231 6.8739C10.0101 7.13735 9.5068 7.42548 8.95156 7.42548C8.50315 7.42548 8.11406 7.14594 7.71281 6.89747C7.1102 6.52476 6.49401 6.18314 5.82071 6.18314C4.60688 6.18314 3.45907 6.87144 2.43272 7.52228C2.14321 7.70613 2.05751 8.08994 2.24138 8.37944C2.42523 8.66896 2.80904 8.75465 3.09854 8.57079C3.92966 8.04278 4.83673 7.42518 5.82069 7.42518C6.26911 7.42518 6.65819 7.70471 7.05944 7.95319C7.66316 8.3259 8.27825 8.66752 8.95154 8.66752C9.70059 8.66752 10.4002 8.33446 11.0921 7.97672C11.604 7.71328 12.1085 7.42514 12.6637 7.42514C13.87 7.42514 15.0167 8.04383 16.0902 8.59795C16.3947 8.75574 16.7699 8.63649 16.9277 8.33089C17.0841 8.0264 16.9649 7.65119 16.6607 7.49481L16.6604 7.49505Z" fill="white"/>
<path fill-rule="evenodd" clip-rule="evenodd" d="M33.3616 7.49505C32.1142 6.8514 30.7661 6.18311 29.3649 6.18311C28.6158 6.18311 27.9162 6.51616 27.2243 6.8739C26.7124 7.13735 26.208 7.42548 25.6527 7.42548C25.2043 7.42548 24.8167 7.14594 24.414 6.89747C23.8114 6.52476 23.1966 6.18314 22.5219 6.18314C21.308 6.18314 20.1602 6.87144 19.1339 7.52228C18.8444 7.70613 18.7587 8.08994 18.9425 8.37944C19.1264 8.66896 19.5102 8.75465 19.7997 8.57079C20.6308 8.04278 21.5379 7.42518 22.5219 7.42518C22.9703 7.42518 23.3594 7.70471 23.7606 7.95319C24.3643 8.3259 24.9794 8.66752 25.6527 8.66752C26.4031 8.66752 27.1025 8.33446 27.7933 7.97672C28.3063 7.71328 28.8096 7.42514 29.3649 7.42514C30.5712 7.42514 31.7179 8.04383 32.7914 8.59795C33.0959 8.75574 33.4711 8.63649 33.6289 8.33089C33.7853 8.0264 33.6661 7.65119 33.3618 7.49481L33.3616 7.49505Z" fill="white"/>
<path fill-rule="evenodd" clip-rule="evenodd" d="M18.014 19.4677C17.4921 19.09 16.7977 19.049 16.2211 19.3685C14.6768 20.1796 12.8567 20.6494 10.91 20.6494C8.39419 20.6494 6.09225 19.8654 4.318 18.5745C4.06203 18.387 3.84961 17.9147 3.84961 17.4128C3.84961 16.9098 4.06203 16.4375 4.318 16.2512C6.09197 14.9602 8.39426 14.1763 10.91 14.1763C12.8257 14.1763 14.6172 14.6297 16.1727 15.3665C16.1837 15.3715 16.1937 15.3776 16.2048 15.3826C16.7564 15.6857 17.4347 15.6372 17.938 15.2595L17.9516 15.2495C18.6313 14.7675 19.4599 14.4359 20.3693 14.3152C20.6949 14.2731 20.998 14.4905 21.0601 14.8122C21.09 14.9664 21.1061 15.1239 21.1061 15.2842C21.1061 16.0618 20.7434 16.7701 20.1519 17.272C20.1233 17.2955 20.1073 17.3316 20.1073 17.3688C20.1073 17.4059 20.1233 17.4409 20.1519 17.4655L20.1458 17.4606C20.7434 17.9661 21.1061 18.6744 21.1061 19.452C21.1061 19.6134 21.09 19.7712 21.0601 19.924C20.998 20.2456 20.6949 20.4644 20.3693 20.4209C19.4736 20.3028 18.6574 19.9786 18.0138 19.4667L18.014 19.4677ZM15.6285 16.4836C14.2333 15.8252 12.6269 15.419 10.91 15.419C8.70975 15.419 6.69086 16.0862 5.12547 17.2004L5.12658 17.6253C6.69311 18.7398 8.71086 19.4068 10.9097 19.4068C12.6454 19.4068 14.2666 18.9905 15.6307 18.2762C16.6197 17.7257 17.8385 17.8017 18.7517 18.4686L18.7741 18.4861C19.0672 18.721 19.4103 18.8985 19.7855 19.0216C19.6984 18.7881 19.5431 18.5782 19.3432 18.4104L19.3382 18.4054C19.0376 18.1444 18.8648 17.7667 18.8648 17.3693C18.8648 16.9716 19.0376 16.5928 19.3432 16.3283C19.5431 16.1594 19.6998 15.9481 19.7866 15.7132C19.3778 15.841 19.0026 16.0288 18.6721 16.2623C17.7863 16.9195 16.5997 17.0066 15.6283 16.4833L15.6285 16.4836Z" fill="white"/>
<path fill-rule="evenodd" clip-rule="evenodd" d="M31.9968 29.4517C31.4477 29.0008 30.6699 28.9523 30.0576 29.3386C28.4028 30.3375 26.4583 30.914 24.3798 30.914C21.6751 30.914 19.199 29.9387 17.2922 28.3261C17.184 28.2354 17.0834 28.1051 17.009 27.9359C16.9048 27.7024 16.8438 27.3669 16.8438 27.0302C16.8438 26.6921 16.9048 26.3569 17.009 26.1245C17.0836 25.9542 17.1843 25.8238 17.2922 25.7332C19.1992 24.1206 21.6751 23.1453 24.3798 23.1453C26.4261 23.1453 28.3404 23.7032 30.0076 24.625L30.0351 24.6411C30.6252 25.0088 31.3842 24.9517 31.9197 24.4969C32.6526 23.8882 33.5484 23.4719 34.5323 23.3203C34.8679 23.2693 35.1835 23.4967 35.2392 23.8322C35.2691 24.0086 35.2838 24.1899 35.2838 24.3752C35.2838 25.3655 34.8429 26.2549 34.1482 26.8563C34.1421 26.8613 34.1371 26.8663 34.1308 26.8699C34.0986 26.896 34.0797 26.9345 34.0797 26.9756C34.0797 27.0177 34.0983 27.0563 34.1308 27.0823L34.1469 27.0948C34.8426 27.696 35.2836 28.5845 35.2836 29.5759C35.2836 29.7612 35.2686 29.9425 35.2389 30.1189C35.1829 30.4545 34.8673 30.6816 34.5321 30.6308C33.5681 30.483 32.6885 30.0793 31.9963 29.4517L31.9968 29.4517ZM29.3979 25.7072C27.9106 24.8871 26.2038 24.3877 24.3798 24.3877C22.0043 24.3877 19.8265 25.2363 18.1419 26.6414C18.1283 26.701 18.0859 26.8999 18.0859 27.0302C18.0859 27.1606 18.128 27.3583 18.1419 27.4179C19.8265 28.8242 22.0043 29.6716 24.3798 29.6716C26.2234 29.6716 27.948 29.1611 29.404 28.2826C30.4625 27.6129 31.8316 27.7011 32.7955 28.4989L32.8191 28.52C33.1607 28.8331 33.567 29.0704 34.0118 29.2257C33.9297 28.7538 33.6838 28.3375 33.336 28.0369C33.0204 27.7759 32.8379 27.3858 32.8379 26.9759C32.8379 26.566 33.0218 26.177 33.3374 25.9149C33.6851 25.6143 33.93 25.197 34.0121 24.7236C33.5337 24.8875 33.0964 25.1349 32.7187 25.4479C31.7833 26.2444 30.4427 26.3487 29.3979 25.7075L29.3979 25.7072Z" fill="white"/>
<path fill-rule="evenodd" clip-rule="evenodd" d="M37.4077 34.7573H2.62119C2.27843 34.7573 2 35.0358 2 35.3785C2 35.7213 2.27843 35.9997 2.62119 35.9997H37.4077C37.7504 35.9997 38.0288 35.7213 38.0288 35.3785C38.0288 35.0358 37.7504 34.7573 37.4077 34.7573Z" fill="white"/>
<path fill-rule="evenodd" clip-rule="evenodd" d="M10.1531 35.1813C10.1531 35.1813 9.00028 31.7127 5.21573 31.0405C4.87768 30.9794 4.55488 31.2057 4.49529 31.5424C4.43428 31.8804 4.66057 32.2032 4.99723 32.2628C8.03856 32.8033 8.97531 35.5762 8.97531 35.5762C9.08458 35.9004 9.43621 36.0768 9.76177 35.9675C10.0873 35.8582 10.2623 35.5066 10.1531 35.181V35.1813Z" fill="white"/>
<path fill-rule="evenodd" clip-rule="evenodd" d="M10.1871 35.3188C10.1871 35.3188 9.98467 32.7755 12.8307 30.8027C13.1128 30.6078 13.1824 30.2201 12.9871 29.938C12.7922 29.656 12.4045 29.5864 12.1225 29.7816C8.59419 32.2267 8.94943 35.438 8.94943 35.438C8.98299 35.7797 9.28748 36.0293 9.62775 35.9971C9.9694 35.9636 10.219 35.6591 10.1868 35.3188L10.1871 35.3188Z" fill="white"/>
<path fill-rule="evenodd" clip-rule="evenodd" d="M10.1648 35.5547C10.1648 35.5547 11.5278 31.0461 7.46769 27.458C7.21062 27.232 6.81794 27.2556 6.59057 27.5126C6.36456 27.7697 6.38813 28.1624 6.64521 28.3898C10.0703 31.415 8.97462 35.2017 8.97462 35.2017C8.87645 35.5309 9.06419 35.8764 9.39337 35.9732C9.72254 36.0714 10.0681 35.8836 10.1648 35.5545L10.1648 35.5547Z" fill="white"/>
</svg>
