<svg width="40" height="40" viewBox="0 0 40 40" fill="none" xmlns="http://www.w3.org/2000/svg">
<path d="M0.574966 30.2589C0.327203 30.202 0.0702711 30.3596 0.0127644 30.6131C-0.0447407 30.8661 0.113706 31.1178 0.366966 31.1753C5.05786 32.2398 8.87786 34.5617 11.7211 38.0765C11.8853 38.2793 12.1811 38.3087 12.3818 38.1463C12.5837 37.9832 12.6149 37.6871 12.4515 37.4856C9.47227 33.8032 5.47633 31.3717 0.575108 30.2589L0.574966 30.2589Z" fill="white"/>
<path d="M18.3953 38.0674C18.5532 38.2723 18.848 38.3115 19.0542 38.1524C19.2597 37.994 19.2977 37.6991 19.1392 37.4935C15.5122 32.7898 9.60959 29.7687 0.560751 27.9858C0.306873 27.9354 0.059729 28.1015 0.00894865 28.356C-0.0412146 28.6104 0.124573 28.8576 0.379672 28.9078C9.19047 30.6439 14.9153 33.5546 18.3951 38.067L18.3953 38.0674Z" fill="white"/>
<path d="M0.537387 25.9741C0.278615 25.9353 0.0424807 26.1154 0.00577162 26.3724C-0.0309374 26.6293 0.147087 26.8673 0.404019 26.904C9.26493 28.1761 18.9081 30.9349 24.3103 38.0655C24.4675 38.2729 24.7627 38.3123 24.9686 38.156C25.1753 37.9994 25.2157 37.7049 25.0591 37.4978C24.157 36.3067 23.0987 35.1958 21.9223 34.176C28.2922 30.9456 35.4987 30.6382 39.2949 30.7563C39.5433 30.778 39.7714 30.5605 39.7794 30.3014C39.7873 30.042 39.5836 29.8252 39.3243 29.8172C35.3614 29.6927 27.7791 30.0218 21.1342 33.5226C20.4973 33.0185 19.818 32.541 19.1114 32.0853C28.1 27.4442 39.0101 28.7365 39.1213 28.75C39.3709 28.7809 39.6125 28.5998 39.6456 28.3423C39.678 28.0847 39.4951 27.8498 39.2381 27.8177C39.1198 27.8021 27.5395 26.4281 18.1978 31.5078C17.4573 31.0615 16.6803 30.6413 15.8435 30.2384C24.9464 25.2101 36.3553 26.5608 36.4735 26.5752C36.7225 26.6058 36.9648 26.4251 36.9978 26.1675C37.0302 25.91 36.8473 25.6754 36.5904 25.6429C36.5341 25.6359 33.9837 25.3343 30.3334 25.5276V22.2682C33.3937 22.0327 35.8606 19.4838 35.8606 16.2944C35.8606 15.6705 35.0687 15.8072 34.4453 15.9066C35.3596 14.8302 35.8606 13.4785 35.8606 12.0455C35.8606 11.7861 35.6501 11.5757 35.3907 11.5757C35.0684 11.5757 34.7539 11.6084 34.445 11.6576C35.3593 10.5813 35.8606 9.2299 35.8606 7.79631C35.8606 7.53692 35.6501 7.32648 35.3907 7.32648C33.8622 7.32648 32.4702 7.90611 31.4098 8.85098C32.4078 6.64226 32.0071 3.95023 30.1945 2.13765C30.0109 1.95412 29.7136 1.95412 29.5301 2.13765C27.6829 3.98484 27.3278 6.67162 28.306 8.84088C27.2471 7.90217 25.8593 7.32679 24.3363 7.32679C24.077 7.32679 23.8665 7.53724 23.8665 7.79662C23.8665 9.23053 24.3682 10.5825 25.2815 11.658C24.9729 11.6087 24.6587 11.576 24.3363 11.576C24.077 11.576 23.8665 11.7864 23.8665 12.0458C23.8665 13.4795 24.3682 14.8314 25.2812 15.9069C24.9725 15.8577 24.6584 15.8249 24.3363 15.8249C24.077 15.8249 23.8665 16.0354 23.8665 16.2948C23.8665 19.4805 26.3297 22.0327 29.3937 22.2685V25.5876C25.1145 25.903 19.6041 26.9249 14.7931 29.7586C13.1092 29.0147 11.2798 28.3647 9.29589 27.7973V24.3678C12.3507 24.1326 14.8225 21.5898 14.8225 18.394C14.8225 18.1346 14.612 17.9242 14.3526 17.9242C14.0305 17.9242 13.7164 17.9569 13.4081 18.0062C14.3218 16.9295 14.8225 15.5778 14.8225 14.1448C14.8225 13.8854 14.612 13.675 14.3526 13.675C14.0305 13.675 13.7167 13.7077 13.4084 13.757C14.322 12.6803 14.8225 11.3289 14.8225 9.89619C14.8225 9.63681 14.612 9.42637 14.3526 9.42637C12.8273 9.42637 11.4376 10.0036 10.3784 10.9448C11.3936 8.69931 10.9513 6.03148 9.15698 4.23691C8.97345 4.05338 8.67615 4.05338 8.49262 4.23691C6.65035 6.07917 6.28632 8.7636 7.26849 10.9405C6.20958 10.0017 4.82179 9.42637 3.29885 9.42637C3.03947 9.42637 2.82902 9.63681 2.82902 9.89619C2.82902 11.3299 3.33066 12.6818 4.24367 13.7573C3.93504 13.708 3.62091 13.6753 3.29885 13.6753C3.03947 13.6753 2.82902 13.8858 2.82902 14.1451C2.82902 15.5791 3.33066 16.9311 4.24398 18.0065C3.93536 17.9572 3.62122 17.9245 3.29885 17.9245C3.03947 17.9245 2.82902 18.135 2.82902 18.3943C2.82902 21.5801 5.29224 24.1322 8.35621 24.3681V27.5317C5.98289 26.9001 3.38906 26.3835 0.537998 25.9745L0.537387 25.9741ZM30.8075 13.7125C30.4208 14.171 30.0997 14.6861 29.8632 15.2461C29.6265 14.6861 29.3056 14.171 28.9189 13.7125C29.5912 13.8183 30.1192 13.8204 30.8074 13.7125H30.8075ZM29.863 18.0415C30.1829 18.0415 30.4974 18.0097 30.8072 17.9611C30.4206 18.4196 30.0994 18.9347 29.863 19.4947C29.6262 18.9347 29.3054 18.4196 28.9187 17.9611C29.2285 18.01 29.543 18.0415 29.863 18.0415V18.0415ZM30.3567 21.3276C30.5897 18.9322 32.5015 17.0208 34.8965 16.7877C34.6668 19.1818 32.7539 21.0972 30.3567 21.3276ZM30.3567 17.0783C30.5897 14.683 32.5015 12.7716 34.8965 12.5385C34.6668 14.9322 32.7545 16.8482 30.3567 17.0783ZM34.8965 8.28943C34.6698 10.6499 32.7838 12.5965 30.3567 12.8295C30.5897 10.4339 32.5015 8.52246 34.8965 8.28943ZM29.863 10.997C29.8245 10.9059 29.778 10.8193 29.7352 10.7306C29.8483 10.7624 29.871 10.7649 29.9912 10.73C29.9484 10.819 29.9016 10.9056 29.863 10.997V10.997ZM29.8618 3.16723C31.3905 5.0257 31.3905 7.72908 29.8618 9.58755C28.3315 7.73182 28.33 5.02476 29.8618 3.16723ZM29.3693 12.83C26.9762 12.5997 25.0599 10.688 24.8295 8.2899C27.2245 8.52267 29.1362 10.4341 29.3693 12.83ZM29.3693 17.0786C27.0226 16.8535 25.0639 14.9803 24.8295 12.5388C27.2245 12.7718 29.1362 14.6833 29.3693 17.0786ZM24.8295 16.788C27.2245 17.0211 29.1362 18.9326 29.3693 21.3279C27.0226 21.1024 25.0639 19.2292 24.8295 16.788V16.788ZM9.77001 15.8117C9.38338 16.2699 9.06251 16.7853 8.82574 17.3453C8.58899 16.7853 8.26812 16.2702 7.88147 15.8117C8.56143 15.9184 9.09001 15.9184 9.76993 15.8117H9.77001ZM9.77001 20.0609C9.38338 20.5191 9.06251 21.0346 8.82574 21.5946C8.58899 21.0345 8.26812 20.5195 7.88147 20.0609C8.55653 20.1671 9.08477 20.1686 9.76993 20.0609H9.77001ZM9.31945 23.4267C9.55253 21.0314 11.4637 19.12 13.8587 18.8869C13.629 21.2816 11.7172 23.1967 9.31945 23.4267ZM9.31945 19.1781C9.55253 16.7825 11.4637 14.8711 13.8587 14.638C13.629 17.0324 11.7172 18.9472 9.31945 19.1781ZM13.8587 10.3892C13.629 12.7836 11.7172 14.6987 9.31945 14.9291C9.55253 12.5338 11.4637 10.6224 13.8587 10.3892ZM8.82582 13.0962C8.78728 13.0051 8.74079 12.9185 8.69797 12.8298C8.81145 12.8619 8.83408 12.8641 8.95398 12.8292C8.91116 12.9182 8.86437 13.0051 8.82582 13.0962V13.0962ZM8.8246 5.26579C10.3506 7.11847 10.3623 9.81997 8.8246 11.6867C7.32092 9.86374 7.26768 7.15363 8.8246 5.26579ZM8.33214 14.9293C7.16556 14.8174 6.08637 14.309 5.25071 13.4688C4.41199 12.6347 3.90426 11.5558 3.79229 10.3896C6.1873 10.6226 8.09902 12.5341 8.33214 14.9294V14.9293ZM8.33214 19.1786C5.93837 18.9489 4.02235 17.0363 3.79229 14.6385C6.1873 14.8713 8.09902 16.7827 8.33214 19.1786ZM3.79229 18.8874C6.1873 19.1205 8.09902 21.0319 8.33214 23.4272C5.98543 23.2021 4.02665 21.3292 3.79229 18.8874Z" fill="white"/>
</svg>
