<svg width="40" height="40" viewBox="0 0 40 40" fill="none" xmlns="http://www.w3.org/2000/svg">
<path d="M33.7181 18.0219L37.5525 17.8303L37.8254 17.8019L37.9149 17.5409H37.9152C38.0792 17.1248 38.3973 16.7877 38.8034 16.5998C39.7406 16.1922 39.6593 15.1166 39.4879 14.595L39.4185 14.3912L39.2107 14.3341C39.2107 14.3341 37.5198 13.8531 36.2685 13.4254C35.8163 12.4027 35.2783 12.2927 35.046 12.2966L34.2678 12.1704C33.734 11.0784 31.4927 9.76632 31.0078 9.49316L30.1397 9L30.6246 10.683H30.6252C30.0996 10.4397 29.5353 10.2908 28.9584 10.243H27.2754L28.7708 11.0133L28.7711 11.013C28.9729 11.1023 29.1434 11.2495 29.2608 11.436C29.3785 11.6224 29.4379 11.8399 29.4311 12.0604L22.7809 13.6087L24.2683 13.8247C22.9441 13.9387 21.0493 14.0447 18.3922 14.0856H16.5381C10.8334 14.1385 7.69998 14.163 6.57065 18.1279C5.53148 21.7951 1.96595 21.3878 1.78688 21.3878C1.60752 21.3878 0.629752 21.3674 0.20167 21.9094C0.00383432 22.1652 -0.052727 22.5035 0.0510227 22.8099C0.458628 24.2485 4.57015 24.3053 5.90242 24.0037C6.81512 23.8164 7.78924 23.0992 8.4859 22.4961C7.52008 24.1259 5.33194 24.7945 5.30749 24.8024L5.07128 24.8717L3.92638 30.9841H7.88732L7.92399 30.6174H7.92371C7.93991 30.2809 7.82592 29.9511 7.60592 29.6965C7.29923 29.3693 6.89162 29.1541 6.44851 29.0851C6.73389 28.4819 7.23504 27.4797 7.61786 26.7299H7.61814C9.40062 26.266 11.0475 25.3846 12.4224 24.1586C12.4113 24.5045 12.2649 24.8323 12.0148 25.0713C11.326 25.7356 10.6578 26.5099 10.9431 27.2227C11.0858 27.5814 12.675 30.2667 12.9806 30.8005L13.0988 31H16.6684L16.7295 30.6657V30.6663C16.7818 30.2786 16.663 29.8875 16.4034 29.5945C16.0163 29.1502 15.352 28.9262 14.4231 28.9262C14.1517 28.3324 13.9362 27.7142 13.7793 27.0803C14.6147 26.575 17.1655 24.9573 18.1802 23.4131C18.2618 23.4336 18.3351 23.4537 18.4002 23.4782C19.38 23.73 20.3842 23.8764 21.3952 23.9142C21.3952 24.6598 21.3952 26.3104 21.3014 26.901C21.1875 27.7731 22.2673 30.2548 22.483 30.7437L22.589 30.9842H26.8433L26.7822 30.5237C26.737 30.0846 26.4976 29.6884 26.1301 29.4439C25.5383 29.1406 24.8579 29.0582 24.2109 29.2117L23.7055 27.8953L24.9281 24.1098H25.3152C25.417 24.7454 26.0895 25.4912 27.3527 26.3835V26.3837C28.7761 27.453 29.8082 28.9607 30.2906 30.6744L30.3639 30.9882H34.8015L34.6466 30.4626C34.5164 29.9635 34.1821 29.542 33.7256 29.3012C33.181 29.0568 32.5717 28.9968 31.9898 29.1301L29.3657 24.2892V23.8816C32.4912 22.2845 33.4773 19.0611 33.7178 18.022L33.7181 18.0219ZM31.485 10.7481C32.0132 11.0852 32.5145 11.4627 32.9844 11.8769C32.6746 11.6975 32.1695 11.4164 31.5947 11.1353L31.485 10.7481ZM13.148 26.5347L12.8871 26.6853L12.9522 26.9787V26.979C13.1523 27.8687 13.4601 28.7307 13.8692 29.5459L13.9914 29.762H14.2398C15.0181 29.7293 15.5846 29.8597 15.8331 30.1329L15.8859 30.2022L13.6086 30.202C12.7405 28.735 11.8155 27.1418 11.734 26.942C11.7055 26.8726 11.6851 26.571 12.6143 25.6788C12.8997 25.3855 13.1023 25.0217 13.2018 24.6243C13.301 24.2272 13.2939 23.8108 13.1805 23.4174L13.27 23.3196H13.2703C14.6142 23.2179 15.9635 23.211 17.3085 23.2992C16.0656 24.8438 13.1725 26.5143 13.1399 26.5347L13.148 26.5347ZM22.8543 27.9244L23.7181 30.1858L24.0768 30.084C24.35 30.0067 25.2382 29.8518 25.7066 30.1491L25.7677 30.194H23.1231C22.6382 29.0653 22.0515 27.4722 22.1084 27.0279C22.19 26.4045 22.2062 24.7787 22.2101 23.9921C22.8744 24.0328 23.5183 24.0655 24.0805 24.0859L22.8543 27.9244ZM31.4319 29.8151L31.5948 30.1127L31.9168 30.0067V30.0064C32.3813 29.8538 32.8832 29.8609 33.3432 30.0269C33.4188 30.0661 33.4887 30.1153 33.551 30.1736H31.0082C30.4511 28.3868 29.3374 26.8249 27.8298 25.7158C26.2446 24.6033 26.1223 24.0615 26.1144 23.9515L26.7377 23.3239H25.7841C24.1949 23.2955 19.8267 23.1323 18.706 22.7207C17.2106 22.1747 13.1968 22.4885 13.0257 22.5007H12.8506L12.7406 22.6391C10.6705 25.2511 7.31272 25.9725 7.26382 25.9804L7.07224 26.0211L6.9827 26.1922C6.84825 26.4571 5.65844 28.7756 5.47907 29.2728L5.29972 29.7739L5.82954 29.8146V29.8151C6.22407 29.8097 6.60835 29.9408 6.91761 30.1858H4.88016L5.75619 25.4998C6.45287 25.2471 8.44969 24.3916 9.32172 22.6148L9.36237 22.5375V22.4479C9.36237 22.1463 9.37857 21.8584 9.41126 21.5841V21.5636C9.65969 18.6581 10.6134 17.1139 10.6338 17.0811L9.94935 16.6411C9.90444 16.7144 8.93062 18.2709 8.6373 21.2254C8.13619 21.7307 6.8159 22.9734 5.70731 23.2261C4.01638 23.6133 0.972433 23.1366 0.817515 22.6068C0.780847 22.4846 0.817515 22.4479 0.817515 22.4317V22.4314C1.07902 22.2643 1.38856 22.1881 1.69755 22.2154C1.74246 22.2154 6.10243 22.6963 7.33319 18.3645C8.29479 14.9905 10.8743 14.9661 16.5221 14.9172H18.3802C25.3645 14.8154 27.1739 14.2572 27.2474 14.2367L28.9304 13.6989L27.1661 13.4422L30.1041 12.7618L30.1691 12.5256V12.5253C30.261 12.1469 30.2382 11.7499 30.1041 11.3843C31.0491 11.7777 31.9641 12.2393 32.8422 12.7657L32.9115 12.8063L35.0183 13.1446H35.0428C35.0999 13.169 35.3239 13.3035 35.5683 13.9311L35.6377 14.1062L35.8128 14.1673C36.8315 14.526 38.2089 14.9294 38.7467 15.0843C38.7916 15.3327 38.8038 15.7443 38.4778 15.8992C37.9471 16.1334 37.5145 16.5456 37.2553 17.0646L33.0297 17.2764L32.9769 17.6024C32.9769 17.6431 32.2759 21.6773 28.7797 23.3071L28.5435 23.4171V24.5459L31.4319 29.8151Z" fill="white"/>
</svg>
