<svg width="40" height="40" viewBox="0 0 40 40" fill="none" xmlns="http://www.w3.org/2000/svg">
<path d="M9.06553 7.439L9.03774 7.57852C8.68699 9.37145 10.8746 10.6108 11.7273 11.0171C11.4124 12.2684 10.5319 16.6392 12.8071 20.022C15.3174 23.7874 14.8869 27.31 14.1779 28.9593C12.7076 29.0907 11.855 29.509 11.572 30.2384C11.1734 31.2784 12.2015 32.386 12.321 32.5096L12.4366 32.6292H25.9276C25.9476 33.8762 25.529 34.8326 24.7322 35.4182C23.3417 36.4104 20.947 36.2748 18.1618 35.0516C16.6357 34.3824 15.2729 34.458 14.5162 35.2548C14.2577 35.5386 14.0956 35.8968 14.0534 36.2784C14.0112 36.6601 14.0909 37.045 14.281 37.3785C14.9067 38.6136 16.8111 39.7693 20.3533 39.7693C21.1649 39.766 21.9751 39.7126 22.78 39.6098C26.2105 39.1715 28.402 37.9841 29.3184 36.0678C30.4899 33.5856 29.0833 30.7245 28.6133 29.8918C29.3184 28.8799 32.0519 24.6125 30.8845 20.9901C29.5616 16.651 25.884 14.5432 22.9156 12.8497C20.9473 11.7221 19.3934 10.8297 19.3495 9.71794C19.2099 6.13206 17.429 4.7015 16.2616 4.13983L16.2614 4.13956C15.8461 2.85051 14.9178 1.78993 13.6955 1.20706L13.1894 1L13.0738 2.53807L10.2847 1.31491L11.1652 5.8291C10.4679 6.32715 9.71495 6.88498 9.17299 7.34718L9.06553 7.439ZM11.3527 2.65771L13.0103 3.38282L12.9186 4.61793C12.7154 4.75745 12.333 5.01649 11.8786 5.33107L11.3527 2.65771ZM13.5203 5.17191L13.6837 5.06435L13.895 2.2314C14.7071 2.78115 15.2993 3.59942 15.5684 4.54239L15.6201 4.72554L15.7955 4.80114C16.7758 5.23166 18.4412 6.42709 18.5688 9.74614C18.6285 11.3001 20.3497 12.2882 22.5532 13.5393C25.3862 15.165 28.9285 17.185 30.1436 21.2251C31.339 24.8946 27.8723 29.5925 27.8407 29.6287L27.6772 29.8478L27.8246 30.0787C27.8246 30.1107 29.7929 33.2425 28.6214 35.7247C27.8246 37.3781 25.8323 38.4143 22.6925 38.8048C17.9829 39.3865 15.6083 38.203 15.0025 37.0118C14.7729 36.6333 14.8149 36.15 15.1062 35.8164C15.4197 35.5324 15.8355 35.3887 16.2577 35.4181C16.8107 35.4395 17.3532 35.5752 17.8513 35.8164C20.8994 37.1552 23.5809 37.2589 25.2026 36.1032C26.3383 35.3064 26.8642 33.9595 26.7246 32.2422L26.6968 31.8756L17.2458 31.8758C17.0718 31.4728 17.0718 31.0159 17.2458 30.6129C17.4371 30.3141 17.8553 30.1546 18.4809 30.1468C19.979 30.1468 20.4334 30.5134 20.4373 30.5134L21.011 29.9595C20.9115 29.8558 20.3256 29.35 18.4768 29.35L18.4771 29.3497C18.066 29.3461 17.6588 29.4289 17.2817 29.5929C17.6466 27.45 17.8528 25.2833 17.8992 23.1101H17.1024C17.0585 25.0704 16.7038 30.4458 15.7158 31.7642L15.8314 31.8518H12.7872C12.5401 31.553 12.1538 30.9551 12.317 30.5407C12.4804 30.1266 13.2614 29.8156 14.4568 29.7361H14.6877L14.7872 29.529C15.9029 27.25 15.9229 23.2933 13.4565 19.5956C11.0657 16.0097 12.5521 10.9735 12.568 10.9216L12.6755 10.5708L12.3489 10.4113C12.3211 10.4113 9.68326 9.29564 9.79889 7.84928C11.1057 6.78536 13.4965 5.1878 13.5243 5.17165L13.5203 5.17191Z" fill="white"/>
</svg>
