<svg width="40" height="40" viewBox="0 0 40 40" fill="none" xmlns="http://www.w3.org/2000/svg">
<path fill-rule="evenodd" clip-rule="evenodd" d="M7.62316 27.8937C6.41455 27.475 5.33021 26.9985 4.39589 26.4766C1.51801 24.8689 0 22.7444 0 20.5998C0 18.4552 1.51801 16.3308 4.39589 14.723C7.9461 12.7398 13.6676 11.4121 20.1259 11.4121C20.3941 11.4121 20.6613 11.4147 20.9249 11.419C21.9869 11.4354 22.9674 11.9921 23.5262 12.8953C24.0849 13.7991 24.145 14.9246 23.6861 15.8799C23.6297 15.9978 23.5719 16.1182 23.513 16.2407C23.2823 16.7218 23.3145 17.2878 23.5986 17.7392C23.8828 18.1906 24.3791 18.4644 24.9125 18.4644H36.9507C37.9969 18.4644 38.9703 19.0007 39.5289 19.8852C40.0876 20.7698 40.1538 21.8791 39.7037 22.8241C39.6943 22.8442 39.6845 22.8637 39.6738 22.8836C39.5899 23.0429 39.5188 23.191 39.4452 23.3097C38.4958 24.8436 36.6122 26.2788 33.9946 27.3758C30.4723 28.8529 25.5598 29.7875 20.1256 29.7875C18.7126 29.7875 17.3352 29.724 16.0078 29.6038C15.9638 30.0555 15.958 30.5291 15.996 31.0266C16.0299 31.4706 15.8772 31.9091 15.5744 32.2361C15.2716 32.563 14.8463 32.7488 14.4009 32.7488H9.59926C9.15383 32.7488 8.72854 32.563 8.42577 32.2361C8.12297 31.9091 7.97028 31.4709 8.00421 31.0266C8.09363 29.8617 7.94177 28.8303 7.62316 27.8937ZM13.5998 31.1489H14.4006C14.172 28.1698 15.2417 25.9208 16.8011 23.9473C15.028 25.1665 13.7162 26.6676 12.8734 28.4553C13.1739 29.2087 13.406 30.0044 13.5702 30.8409C13.5903 30.9432 13.5998 31.0465 13.5998 31.1489ZM9.59897 31.1489C9.82758 28.1698 8.75785 25.9208 7.19847 23.9473C9.80001 25.7359 11.4083 28.1318 11.9995 31.1489H9.59897ZM16.3321 28.028C17.5571 28.1324 18.8255 28.1876 20.1256 28.1876C28.7767 28.1876 36.0506 25.7534 38.0846 22.4675C38.1412 22.3758 38.1936 22.2593 38.2588 22.1357C38.4728 21.6868 38.4411 21.1597 38.176 20.7393C37.9103 20.3189 37.4479 20.0641 36.9507 20.0641H24.9125C23.8287 20.0641 22.8214 19.5077 22.2443 18.5909C21.6674 17.6739 21.6019 16.5248 22.0703 15.548C22.1287 15.4263 22.1862 15.3067 22.2423 15.1897C22.466 14.7235 22.4369 14.1763 22.1652 13.7367C21.8934 13.297 21.4161 13.0264 20.8999 13.0184C20.6431 13.0143 20.3849 13.0117 20.1255 13.0117C9.90115 13.0117 1.59964 16.4119 1.59964 20.5992C1.59964 22.5897 3.47563 24.4027 6.54219 25.7568C6.35442 25.4773 6.15371 25.205 5.94293 24.9384C5.45235 24.3176 5.48945 23.431 6.03034 22.8531C6.57124 22.2751 7.45287 22.1796 8.10509 22.6282C9.75826 23.7646 11.0569 25.1175 11.9997 26.6885C12.9427 25.1178 14.2412 23.7649 15.8944 22.6282C16.5466 22.1796 17.4282 22.2751 17.9692 22.8531C18.5101 23.431 18.5471 24.3176 18.0566 24.9384C17.317 25.8744 16.6991 26.8812 16.3321 28.028ZM21.6321 25.0509C21.6321 25.0509 22.4125 24.6423 23.1443 24.259C23.6982 23.9691 24.359 23.9691 24.9128 24.259C25.2202 24.4197 25.5491 24.592 25.8559 24.7527C26.8748 25.2858 28.0897 25.2858 29.1085 24.7527C29.8404 24.37 30.6208 23.9614 30.6208 23.9614C31.0122 23.7563 31.1637 23.2727 30.9587 22.8813C30.7536 22.4902 30.27 22.339 29.8786 22.5437C29.8786 22.5437 29.0987 22.9523 28.3663 23.3351C27.8125 23.6249 27.1517 23.6249 26.5979 23.3351C26.2905 23.1743 25.9621 23.0021 25.6547 22.8413C24.6359 22.3082 23.421 22.3082 22.4021 22.8413C21.6703 23.2246 20.8899 23.6333 20.8899 23.6333C20.4988 23.8377 20.3475 24.322 20.552 24.7127C20.757 25.1041 21.2407 25.2554 21.6321 25.0509ZM9.18533 21.3288C9.18533 21.3288 9.96579 20.9202 10.6976 20.5375C11.2514 20.2473 11.9122 20.2473 12.466 20.5375C12.7734 20.6982 13.5 20 12.9092 20.0309C12.961 20.0302 12.632 20.1156 13 20C12.9092 20.0309 12.7222 20.1383 12.7222 20.1383C13.1135 19.9333 12.8574 20.0317 12.9092 20.0309C13.3006 19.8262 12.5178 20.2357 12.9092 20.0309C12.9092 20.0309 12.893 20.0483 13 20C12.3382 20.1346 13 20 12.9092 20.0309C13.4766 20.0012 13 20.5 12.5072 20.559C11.4883 20.0256 10.9742 18.5864 9.9554 19.1198C9.22357 19.5025 8.44313 19.9112 8.44313 19.9112C8.05177 20.1162 7.9008 20.5999 8.10526 20.9907C8.31029 21.382 8.79396 21.5339 9.18533 21.3288ZM9.18533 18.1016C9.18533 18.1016 9.96579 17.6929 10.6976 17.3102C11.2514 17.0201 11.9122 17.0201 12.466 17.3102C12.7734 17.471 13.1018 17.6429 13.4092 17.8037C14.428 18.3371 15.6429 18.3371 16.6618 17.8037C17.3936 17.4209 18.174 17.0123 18.174 17.0123C18.5654 16.8073 18.7164 16.3236 18.5119 15.9328C18.3069 15.5415 17.8232 15.3899 17.4318 15.5949C17.4318 15.5949 16.6514 16.0036 15.9196 16.3863C15.3657 16.6764 14.7049 16.6764 14.1511 16.3863C13.8437 16.2256 13.5153 16.0536 13.208 15.8929C12.1892 15.3594 10.9742 15.3594 9.9554 15.8929C9.22357 16.2756 8.44313 16.6842 8.44313 16.6842C8.05177 16.8892 7.9008 17.3729 8.10526 17.7637C8.31029 18.1551 8.79396 18.3066 9.18533 18.1016ZM29.4934 11.3426C30.4363 9.77164 31.7355 8.41838 33.388 7.2817C34.0402 6.83311 34.9225 6.92915 35.4631 7.50657C36.0034 8.08456 36.0405 8.97113 35.5499 9.59192C34.23 11.2629 33.2961 13.1577 33.489 15.6795C33.5232 16.124 33.3702 16.5623 33.0677 16.889C32.7649 17.2159 32.3391 17.402 31.894 17.402H27.0929C26.6472 17.402 26.2219 17.2159 25.9191 16.889C25.6163 16.5623 25.4636 16.124 25.4975 15.6795C25.6911 13.1573 24.757 11.2629 23.4366 9.59192C22.946 8.97109 22.9831 8.08452 23.524 7.50657C24.0649 6.92915 24.9469 6.83311 25.5988 7.2817C27.252 8.41838 28.551 9.77134 29.4934 11.3426ZM28.6198 13.1087C27.777 11.3207 26.4651 9.81934 24.6921 8.60014C26.2518 10.5737 27.3209 12.8229 27.0929 15.802H27.8931C27.8931 15.6991 27.9029 15.5964 27.9233 15.4937C28.0875 14.657 28.3196 13.8618 28.6198 13.1087ZM31.894 15.8023C31.6659 12.8232 32.7351 10.5737 34.2944 8.60043C31.6932 10.3893 30.0852 12.785 29.4934 15.8023H31.894Z" fill="white"/>
</svg>
