<svg width="40" height="40" viewBox="0 0 40 40" fill="none" xmlns="http://www.w3.org/2000/svg">
<path d="M9.36949 29.3459C9.42262 29.3499 9.47606 29.3499 9.52949 29.3459C9.88299 29.3242 10.2292 29.2399 10.5508 29.0969C10.6935 30.944 11.3773 36.3892 14.5754 39.8592H14.5757C14.6961 39.9904 14.8893 40.0353 15.059 39.971C15.2286 39.907 15.3382 39.7478 15.3331 39.5729C15.2712 38.8083 15.4916 38.0472 15.9562 37.423C16.0712 37.3008 16.1002 37.1248 16.0298 36.9748C15.7008 36.2693 15.3419 35.4598 14.9868 34.6213C15.7702 35.518 16.6574 36.2608 17.4408 36.2608H17.4405C17.5112 36.2672 17.5821 36.2672 17.6527 36.2608C17.8224 36.233 17.9588 36.1115 18.0002 35.9513C18.0416 35.791 17.9797 35.6225 17.8429 35.522C16.112 34.2519 14.7441 29.018 14.2986 26.7771C14.9304 26.2832 15.597 25.7311 16.259 25.117C17.816 24.7896 19.3249 24.2795 20.7512 23.598V24.7019C19.9836 24.7951 19.2675 25.1226 18.7087 25.6359C18.6221 25.7152 18.5738 25.8253 18.575 25.9399C18.5762 26.0546 18.6269 26.1637 18.715 26.2413C18.8032 26.3189 18.9209 26.3583 19.0402 26.3496C19.1594 26.3409 19.2696 26.2856 19.3447 26.1961C19.9721 25.651 20.8251 25.4109 21.6602 25.5444C21.678 25.6217 21.7187 25.6921 21.777 25.748C21.9539 25.9011 22.2268 25.8881 22.3871 25.7187C22.797 25.8551 23.1879 26.0392 23.5514 26.2668C23.6477 26.3334 23.7681 26.3588 23.885 26.3377C24.0015 26.3166 24.1041 26.2503 24.1681 26.1544C24.2324 26.0586 24.253 25.9416 24.2246 25.831C24.1962 25.7204 24.1219 25.6258 24.0187 25.5693C23.7917 25.4289 23.5559 25.3015 23.3132 25.1875C24.0317 24.9469 25.1438 24.8927 26.5979 25.7934C26.7978 25.9029 27.052 25.8432 27.1763 25.6573C27.301 25.4718 27.2521 25.2254 27.0653 25.0963C26.3447 24.6226 25.5142 24.3247 24.6463 24.2289V20.9084C26.8159 18.7403 28.2688 16.0052 28.8225 13.0477C28.8693 12.9684 28.8874 12.8763 28.8744 12.786C29.1754 11.2154 29.2756 9.61526 29.1729 8.02147C29.5491 7.98384 29.9047 7.83937 30.1942 7.60631V7.76815C30.1945 7.93114 30.2941 8.07879 30.449 8.14597C30.6036 8.21313 30.785 8.18708 30.9127 8.07938C31.5662 7.52727 32.2585 5.68455 31.9037 3.9289C31.7567 3.18832 31.4156 2.4955 30.9127 1.91591C30.2274 1.16379 29.342 0.604436 28.3507 0.297226C24.7674 -0.914714 22.8242 1.78732 20.7729 4.64715C19.7885 6.1185 18.6516 7.49105 17.3798 8.74353C12.9311 12.8526 8.90212 26.3334 9.00181 28.9519C9.00996 29.1511 9.16423 29.3164 9.3698 29.3462L9.36949 29.3459ZM14.5627 38.5184C11.9358 34.9988 11.4727 29.8936 11.3948 28.7107C11.5853 28.6082 11.7827 28.4962 11.9877 28.3746C12.2992 30.8068 14.5539 35.8455 15.1384 37.0906L15.1381 37.0903C14.8501 37.5272 14.653 38.0133 14.5582 38.5222L14.5627 38.5184ZM15.8611 34.3182C15.0382 33.3799 14.3134 32.3663 13.6972 31.2925C13.165 29.7899 12.8058 28.4952 12.8317 27.8435C13.0627 27.6886 13.2978 27.5239 13.5372 27.3496C13.8313 28.7812 14.6231 32.0808 15.8394 34.3182L15.8611 34.3182ZM21.6037 24.6972V23.1573C22.3696 22.7245 23.0938 22.2274 23.7676 21.6715V24.2406C23.21 24.311 22.676 24.5009 22.2054 24.7968C22.0076 24.7502 21.8066 24.7169 21.6037 24.6972L21.6037 24.6972ZM28.7359 1.3589C29.218 1.58067 29.6572 1.87944 30.0343 2.2431C29.5582 3.07312 28.0304 5.69645 27.4375 6.50965C27.3406 6.64919 27.3406 6.831 27.4375 6.97056C27.6543 7.30842 27.9507 7.59272 28.3033 7.80058C28.4014 8.83879 28.4014 9.88338 28.3033 10.9218C27.7451 9.12043 26.901 6.35614 26.4033 4.40978V4.40949C26.1953 3.78067 26.2819 3.09624 26.6411 2.5337C27.2213 1.72421 28.3594 1.43353 28.7358 1.35882L28.7359 1.3589ZM29.0951 7.19462C28.7923 7.15814 28.5231 6.99167 28.3637 6.74211C28.5194 6.50963 28.7099 6.21085 28.9176 5.87881C28.9843 6.00736 29.1151 6.09363 29.2639 6.10723C29.579 6.18135 29.8384 6.39588 29.9606 6.68424C29.7493 6.95233 29.4402 7.13472 29.0952 7.19465L29.0951 7.19462ZM30.878 6.55538C30.7711 6.22272 30.568 5.92597 30.2924 5.69956C30.0164 5.47345 29.6792 5.32696 29.32 5.27716H29.2723C29.7786 4.44714 30.3066 3.53804 30.6398 2.96134L30.6401 2.96105C30.8484 3.31339 30.9948 3.69613 31.073 4.09421C31.2242 4.91993 31.1512 5.76878 30.8608 6.55944L30.878 6.55538ZM17.9984 9.3362C19.3112 8.04377 20.4856 6.62808 21.5041 5.11101C23.3519 2.51696 24.8537 0.429266 27.407 0.914798C26.8189 1.16465 26.3112 1.56012 25.9357 2.06041C25.4336 2.81572 25.3008 3.74365 25.5719 4.60057C26.3293 7.53911 27.8873 12.4487 28.0301 12.9015C27.4113 15.973 25.7537 19.6999 21.6035 22.186V21.2934C21.6035 21.0641 21.41 20.8786 21.1709 20.8786C20.9318 20.8786 20.738 21.0641 20.738 21.2934V22.6796C19.7104 23.1958 18.6318 23.6127 17.5181 23.9248C20.5173 21.0196 23.499 17.2839 25.005 13.7065C26.6669 10.2283 23.4772 7.63858 21.5428 6.75438H21.5431C21.3293 6.66231 21.0779 6.75003 20.9758 6.95241C20.8738 7.15478 20.9583 7.39826 21.1663 7.50162C21.361 7.59282 25.927 9.75518 24.1957 13.3788C22.4647 17.4835 18.9375 21.5219 15.7388 24.3939L15.7391 24.3936C15.6938 24.4211 15.6543 24.4561 15.6223 24.4975C14.9168 25.1243 14.2288 25.697 13.584 26.1993V26.199C13.549 26.2184 13.517 26.2421 13.4886 26.2696C13.0557 26.6141 12.6232 26.9254 12.1902 27.1993H12.1905C12.1455 27.2189 12.1048 27.2456 12.0692 27.2783C11.658 27.558 11.2318 27.8168 10.7925 28.0545C10.7249 28.0716 10.6624 28.1043 10.6108 28.1498C10.3656 28.2795 10.1075 28.3851 9.84037 28.4653C10.1649 25.1863 13.9776 13.0381 17.9811 9.33976L17.9984 9.3362Z" fill="white"/>
</svg>
