<svg width="40" height="40" viewBox="0 0 40 40" fill="none" xmlns="http://www.w3.org/2000/svg">
<path d="M24.4999 35.6296C26.1241 35.6296 28.763 34.513 28.763 31.5693C28.763 29.0316 25.9209 25.6819 25.4132 24.9713C24.9055 24.4637 23.9921 24.4637 23.4845 24.9713C22.8756 25.5803 20.1348 29.0316 20.1348 31.5693C20.2367 34.5129 22.8756 35.6296 24.4999 35.6296V35.6296ZM24.4999 27.9151C25.4132 29.2346 26.2254 30.7571 26.2254 31.5693C26.2254 33.0919 24.4999 33.0919 24.3983 33.0919C24.2967 33.0919 22.5712 33.0919 22.5712 31.5693C22.7744 30.7571 23.5861 29.2345 24.4999 27.9151V27.9151Z" fill="white"/>
<path d="M15.3651 25.8849C16.9894 25.8849 19.6282 24.7684 19.6282 21.8246C19.6282 19.287 16.7862 15.9372 16.2785 15.2267C15.7708 14.719 14.8574 14.719 14.3498 15.2267C13.7408 15.8356 11 19.287 11 21.8246C11.0004 24.7683 13.6396 25.8849 15.3651 25.8849V25.8849ZM15.3651 18.0692C16.2785 19.3887 17.0906 20.9113 17.0906 21.7234C17.0906 23.2461 15.3651 23.2461 15.2635 23.2461C15.1619 23.2461 13.4364 23.2461 13.4364 21.7234C13.538 20.9113 14.4517 19.3886 15.3651 18.0692V18.0692Z" fill="white"/>
<path d="M24.4999 16.039C26.1241 16.039 28.763 14.9224 28.763 11.9787C28.763 9.44105 25.9209 6.09129 25.4132 5.38075C24.9055 4.87308 23.9921 4.87308 23.4845 5.38075C22.8756 5.98968 20.1348 9.44105 20.1348 11.9787C20.2367 14.9223 22.8756 16.039 24.4999 16.039V16.039ZM24.4999 8.3245C25.4132 9.64397 26.3269 11.1666 26.3269 11.9787C26.3269 13.5014 24.6015 13.5014 24.4999 13.5014C24.3983 13.5014 22.6728 13.5014 22.6728 11.9787C22.7744 11.1666 23.5861 9.54229 24.4999 8.3245V8.3245Z" fill="white"/>
</svg>
