<svg width="40" height="40" viewBox="0 0 40 40" fill="none" xmlns="http://www.w3.org/2000/svg">
<path d="M34.6808 16.8832H26.0791L23.7927 13.7517H23.793C24.2063 13.5046 24.4873 13.0857 24.5592 12.6095C24.6311 12.1333 24.4859 11.65 24.1639 11.2921C23.8418 10.9344 23.3763 10.7395 22.8953 10.7609H21.6071L19.0672 7.28314C18.7654 6.86787 18.3105 6.58962 17.8034 6.51015L14.7 6.01514C14.3209 5.95365 13.936 6.08169 13.6695 6.35797C13.4031 6.63426 13.2885 7.02341 13.3635 7.39993L15.2312 16.8829H8.34007L6.12224 13.864C5.94478 13.6214 5.67833 13.4591 5.38153 13.4134L3.89226 13.1758H3.89198C3.64743 13.1371 3.39894 13.2188 3.22486 13.3954C3.05106 13.5717 2.97272 13.8211 3.01456 14.0653L4.202 20.1032L3.01456 26.141C2.96991 26.367 3.02916 26.6012 3.17572 26.7789C3.32229 26.9569 3.54101 27.0594 3.77126 27.0589H3.89199L5.38125 26.8213H5.38153C5.67831 26.7753 5.94477 26.6133 6.12225 26.3704L8.34007 23.3234H15.2312L13.3635 32.7949C13.284 33.1734 13.3963 33.5664 13.6634 33.8458C13.9307 34.1249 14.3184 34.2543 14.7 34.1917L17.8155 33.6925C18.3229 33.6136 18.7778 33.3354 19.0793 32.9198L21.6192 29.4421H22.9074C23.3884 29.4634 23.8539 29.2686 24.1759 28.9106C24.498 28.5529 24.6432 28.0694 24.5713 27.5932C24.4994 27.1173 24.2183 26.6981 23.805 26.4512L26.0791 23.3236H34.6808C35.7551 23.2228 36.7075 22.5905 37.2177 21.6398C37.7278 20.6891 37.7278 19.546 37.2177 18.5951C36.7075 17.6443 35.7551 17.0123 34.6808 16.9115L34.6808 16.8832ZM22.9027 11.5821C23.2739 11.5821 23.5994 11.83 23.6979 12.188C23.7964 12.5458 23.644 12.9254 23.3256 13.1157L22.2024 11.5821L22.9027 11.5821ZM14.1522 7.25896C14.1295 7.14384 14.1631 7.02507 14.2426 6.93916C14.3223 6.85296 14.4383 6.81028 14.5545 6.82431L17.6701 7.31932C17.975 7.36116 18.2499 7.52542 18.431 7.77418L20.6247 10.7771L23.0159 14.0655L25.0928 16.8831H16.0519L14.1522 7.25896ZM22.9027 28.625H22.2064L23.3295 27.0914C23.6482 27.2817 23.8004 27.6614 23.7018 28.0191C23.6033 28.377 23.2779 28.625 22.9069 28.625L22.9027 28.625ZM23.0156 26.1415L20.6206 29.4182L18.4308 32.4329C18.2536 32.6757 17.9872 32.8377 17.6901 32.8838L14.5707 33.3869C14.4542 33.4007 14.3382 33.358 14.2588 33.2721C14.179 33.1859 14.1453 33.0671 14.1681 32.9523L16.0518 23.3241H25.0927L23.0156 26.1415ZM34.6888 22.4906H7.92893L5.46959 25.8677C5.41793 25.9393 5.33959 25.987 5.25227 26.0005L3.81131 26.2299L5.01895 20.1037L3.81131 13.9774L5.25227 14.2068C5.33959 14.2203 5.41793 14.268 5.46959 14.3396L7.92893 17.6885H34.6809C35.4771 17.775 36.1791 18.2506 36.5542 18.9581C36.9292 19.6657 36.9293 20.5134 36.5542 21.2212C36.179 21.9287 35.4771 22.4044 34.6809 22.4906L34.6888 22.4906Z" fill="white"/>
</svg>
