<svg width="40" height="40" viewBox="0 0 40 40" fill="none" xmlns="http://www.w3.org/2000/svg">
<path d="M35.4592 36.6437C33.5847 35.4671 30.4704 34.5698 26.7111 34.0612V29.0457C27.3856 29.3846 28.1593 29.5741 28.9726 29.5741C29.5477 29.5741 30.133 29.4843 30.6883 29.2948C32.3049 28.7565 33.4854 27.5101 33.9215 25.8946C34.1498 25.0371 34.1399 24.0799 33.9116 23.0129C35.6376 21.607 36.8079 19.4331 36.9765 17.07C37.2443 13.5002 35.2012 10.409 32.1563 9.62112C31.7298 5.81191 28.8734 3 25.3025 3C21.2261 3 17.6357 6.66964 17.2982 11.1766C17.2883 11.3062 17.2982 11.4457 17.2982 11.5754C15.5726 10.5383 13.8466 7.8063 13.1424 5.8716C13.0334 5.58238 12.8054 5.41293 12.4484 5.40303C12.1408 5.41292 11.873 5.61232 11.7837 5.9117C10.673 9.59097 8.73887 11.9742 5.88245 13.1707C5.63444 13.2803 5.4658 13.5096 5.44603 13.7889C5.42598 14.0581 5.56495 14.3174 5.80308 14.4569C6.76494 15.0252 7.74706 15.474 8.70892 15.803C7.40977 17.9868 6.05079 19.2332 4.17627 19.9909C3.92854 20.0906 3.75989 20.3203 3.72995 20.5993C3.71018 20.8685 3.83927 21.1277 4.06723 21.2673C5.03922 21.8756 6.11042 22.3643 7.27078 22.7232C6.02113 24.548 4.83103 25.8342 2.49014 26.6219C2.22235 26.7117 2.03393 26.9411 2.00427 27.2204C1.97433 27.4995 2.10342 27.7686 2.34155 27.9183C4.82117 29.4539 7.74705 30.3314 10.8113 30.5508V34.2203C7.68708 34.7089 5.05868 35.4765 3.33295 36.4439C2.98578 36.6334 2.86685 37.072 3.05527 37.4211C3.24368 37.7702 3.68011 37.8897 4.02726 37.7001C6.96306 36.055 12.7748 35.0379 19.202 35.0379C25.847 35.0379 31.927 36.1547 34.6945 37.8897C34.8137 37.9595 34.9425 37.9996 35.0713 37.9996C35.3094 37.9996 35.5475 37.8798 35.6764 37.6604C35.8947 37.3014 35.7956 36.8526 35.4583 36.6433L35.4592 36.6437ZM18.737 11.2963C19.0147 7.51733 21.9705 4.44611 25.3128 4.44611C28.2785 4.44611 30.629 6.93888 30.7877 10.2595C30.8075 10.5984 31.0555 10.8777 31.3928 10.9373C34.0012 11.3562 35.7966 13.9489 35.5684 16.98C35.3701 19.6225 33.7037 21.9757 31.4225 22.8434C31.0555 22.9829 30.8671 23.4018 31.0061 23.7707C31.1448 24.1395 31.5614 24.329 31.9284 24.1895C32.1665 24.0997 32.3945 23.9802 32.6227 23.8605C32.7021 24.4787 32.682 25.0371 32.5532 25.5356C32.1366 27.111 30.9267 27.7194 30.2423 27.9487C29.0621 28.3376 27.7627 28.1681 26.9395 27.5199C26.87 27.4699 26.7907 27.4301 26.7212 27.4101L26.7311 20.8988C29.4389 20.0614 31.5812 19.154 32.4541 16.6313C32.5829 16.2522 32.3846 15.8433 32.0177 15.7139C31.6507 15.5843 31.234 15.7837 31.1052 16.1525C30.4705 17.9773 28.8338 18.7252 26.5825 19.433C25.7393 17.1199 26.4633 12.1142 27.6932 9.84036C27.8816 9.49128 27.7528 9.05266 27.4056 8.86317C27.0585 8.67368 26.622 8.8033 26.4336 9.15238C25.8088 10.2991 25.3128 11.9643 25.0252 13.6993C24.3608 13.0811 23.9838 12.4727 23.8549 11.4557C23.8052 11.0569 23.4481 10.7877 23.0614 10.8374C22.6747 10.8874 22.397 11.2464 22.4465 11.6353C22.6648 13.3305 23.4284 14.2676 24.6088 15.2251C24.6781 15.2847 24.7574 15.3248 24.8269 15.3445C24.6879 17.1493 24.8071 18.8945 25.3029 20.101L25.293 33.8913C24.8071 33.8413 24.321 33.7916 23.8153 33.7616C23.8153 33.1733 23.8351 32.3458 23.8549 31.4183C24.0136 24.4483 23.8944 23.6502 23.3094 23.2916C22.764 22.9428 22.2778 22.7533 21.8513 22.5839C20.929 22.2147 20.2544 21.9557 19.3519 20.1708C19.1734 19.8217 18.7468 19.6723 18.3898 19.8615C18.0429 20.0411 17.894 20.4699 18.0824 20.8289C19.2231 23.0923 20.2445 23.4914 21.3258 23.9201C21.6727 24.0596 22.01 24.1893 22.3769 24.3986C22.4662 24.8474 22.4961 25.9641 22.4961 27.2506C18.1618 28.2377 16.4757 25.306 15.95 23.9799C14.7299 20.8986 15.5333 16.4214 18.6575 14.6763C18.9454 14.5167 19.094 14.1676 18.9948 13.8485C18.757 13.041 18.6677 12.1832 18.7369 11.2958L18.737 11.2963ZM9.01708 22.684C9.14589 22.4846 9.16595 22.2451 9.08657 22.0259C8.99731 21.8065 8.81878 21.6469 8.59054 21.5972C7.6781 21.3777 6.81517 21.0786 6.01178 20.6996C7.75749 19.6825 9.11619 18.1269 10.4054 15.7239C10.5147 15.5344 10.5246 15.2952 10.4354 15.0958C10.3461 14.8964 10.1775 14.7467 9.95912 14.6868C9.2252 14.4973 8.48144 14.2182 7.72756 13.8592C9.84022 12.6128 11.4568 10.6683 12.5579 8.04586C13.629 10.1198 15.4044 12.473 17.4078 13.2011C17.4377 13.3706 17.4476 13.5499 17.4773 13.7194C13.9763 16.0529 13.2421 21.0283 14.611 24.5186C15.335 26.3533 16.5251 27.6395 18.0527 28.3176C13.3909 29.7038 8.37213 29.3747 4.3756 27.4002C6.51793 26.3134 7.68821 24.718 9.01731 22.6839L9.01708 22.684ZM12.2503 30.5913H12.3099C12.7463 30.5913 13.1828 30.5613 13.6192 30.5314V33.8418C13.1528 33.8918 12.6966 33.9415 12.2404 33.9915V30.5913L12.2503 30.5913ZM15.0474 33.7323V30.4018C16.7533 30.1823 18.4493 29.7835 20.0859 29.1554C20.2345 29.0955 20.3337 28.9958 20.413 28.8662C20.552 28.876 20.6808 28.8961 20.8198 28.8961C21.3455 28.8961 21.9008 28.8263 22.4661 28.7165C22.4562 29.6838 22.4265 30.6512 22.4166 31.3889C22.3969 32.2865 22.3768 33.0742 22.3768 33.6724C21.3455 33.6227 20.2941 33.5826 19.2131 33.5826C17.7947 33.5826 16.3962 33.6326 15.0474 33.7323L15.0474 33.7323Z" fill="white"/>
</svg>
