<svg width="40" height="40" viewBox="0 0 40 40" fill="none" xmlns="http://www.w3.org/2000/svg">
<path d="M39.4626 21.0604C38.0092 20.5568 36.4556 20.3016 34.8465 20.3016C34.0731 20.3016 33.2977 20.363 32.5265 20.4807C33.4607 17.179 33.416 13.7465 32.3431 10.6495L32.1572 10.1126L31.6047 10.2449C29.0758 10.85 26.7178 12.1144 24.7128 13.8909C23.8082 11.3693 22.3474 9.12741 20.4206 7.38173L19.9998 7L19.579 7.38173C17.6521 9.12795 16.1914 11.3698 15.2868 13.8914V13.8909C13.2818 12.114 10.9233 10.85 8.39487 10.2449L7.84233 10.1126L7.65642 10.6495C6.58361 13.7465 6.53883 17.1791 7.4731 20.4807C6.70183 20.3631 5.92594 20.3016 5.15309 20.3016C3.54339 20.3016 1.99036 20.5568 0.536915 21.0604L0 21.2463L0.132277 21.7988C1.09572 25.8244 3.90841 29.3715 7.84971 31.5311C10.2677 32.856 12.944 33.556 15.589 33.5564H15.5895C17.1232 33.5564 18.6053 33.3215 20 32.8637C21.3946 33.3215 22.8768 33.5564 24.411 33.5564C27.056 33.5564 29.7323 32.8559 32.1503 31.5311C36.0915 29.3715 38.9042 25.8244 39.8677 21.7988L40 21.2463L39.4626 21.0604ZM31.3359 11.6114C32.2061 14.5147 32.1218 17.708 31.1302 20.7588C29.7454 21.0989 28.3893 21.6238 27.1066 22.3269C26.5426 22.6362 26.0021 22.9747 25.4866 23.3377C25.6746 22.2764 25.7719 21.1843 25.7719 20.0745C25.7719 18.397 25.5501 16.7612 25.1277 15.2099V15.211C26.9213 13.507 29.0461 12.2623 31.3359 11.6113L31.3359 11.6114ZM24.9371 14.5611C24.933 14.5475 24.9283 14.5335 24.9236 14.5199C24.9283 14.5335 24.933 14.5475 24.9371 14.5611ZM19.9991 8.70902C22.8775 11.5472 24.518 15.6541 24.518 20.0745C24.518 21.6311 24.3138 23.1481 23.9248 24.5854C22.1834 26.1593 20.8366 28.0616 19.9998 30.1484C19.1629 28.0617 17.8162 26.1593 16.0747 24.5854C15.6857 23.1487 15.4816 21.6311 15.4816 20.0745C15.4805 15.6541 17.121 11.5472 19.9994 8.70902H19.9991ZM15.0617 14.56C15.0658 14.547 15.07 14.5345 15.0742 14.522C15.07 14.5345 15.0653 14.547 15.0617 14.56ZM8.66236 11.6114C10.9528 12.2629 13.077 13.507 14.8705 15.211C14.4481 16.7614 14.2263 18.397 14.2263 20.0741C14.2263 21.1838 14.3237 22.276 14.5117 23.3373C13.9956 22.9738 13.4555 22.6353 12.8916 22.3265C11.6089 21.6234 10.2528 21.0985 8.86802 20.7584C7.87646 17.7082 7.79209 14.5148 8.66231 11.6115L8.66236 11.6114ZM15.5887 32.3011H15.5882C13.153 32.3011 10.6851 31.6543 8.45147 30.4306C5.00597 28.5428 2.49997 25.518 1.49955 22.0684C2.65983 21.7278 3.88569 21.5554 5.15222 21.5554C6.07191 21.5554 6.99629 21.6481 7.91072 21.8288C7.91801 21.8304 7.92531 21.8319 7.9326 21.8335C8.05446 21.858 8.17631 21.884 8.29818 21.9111C8.39036 21.9319 8.48253 21.9548 8.57471 21.9772C8.61221 21.9866 8.65022 21.9955 8.68772 22.0048C8.795 22.0324 8.90229 22.0611 9.00957 22.0908C9.02675 22.0955 9.04342 22.1001 9.0606 22.1048C9.17778 22.1382 9.29495 22.1725 9.4116 22.2079C10.3985 22.5121 11.3641 22.9183 12.2894 23.425C15.7349 25.3128 18.2409 28.3375 19.2413 31.7872C18.08 32.1293 16.8547 32.3012 15.5887 32.3012L15.5887 32.3011ZM31.547 30.4306C29.3128 31.6544 26.8453 32.3011 24.4103 32.3011C23.1437 32.3011 21.9179 32.1288 20.7576 31.7882C21.758 28.3385 24.264 25.3139 27.7095 23.426C28.6349 22.9193 29.6005 22.5126 30.5873 22.209C30.704 22.173 30.8212 22.1386 30.9389 22.1053C30.9555 22.1006 30.9727 22.0959 30.9894 22.0913C31.0967 22.0611 31.2039 22.0324 31.3117 22.0048C31.3492 21.9954 31.3867 21.9866 31.4242 21.9772C31.5164 21.9543 31.6086 21.9319 31.7013 21.9105C31.8226 21.8829 31.9445 21.8574 32.0663 21.833C32.0736 21.8314 32.0809 21.8298 32.0882 21.8283C33.0027 21.6476 33.9271 21.5549 34.8467 21.5549C36.1133 21.5549 37.3386 21.7272 38.4994 22.0678C37.4985 25.518 34.9924 28.5426 31.5471 30.4305L31.547 30.4306Z" fill="white"/>
</svg>
