<svg width="40" height="40" viewBox="0 0 40 40" fill="none" xmlns="http://www.w3.org/2000/svg">
<path d="M19.7937 35.745C17.4725 35.7911 15.1932 35.1215 13.2656 33.8273C11.338 32.5333 9.85551 30.6772 9.01925 28.5111C6.65745 22.778 8.47977 15.8531 13.6607 10.8772H13.6604C13.8333 10.7103 14.1088 10.7152 14.276 10.8881C14.4429 11.0611 14.4381 11.3366 14.2651 11.5038C9.34116 16.232 7.5968 22.7784 9.82392 28.1807C10.5992 30.1839 11.9715 31.9004 13.7547 33.0977C15.5379 34.295 17.6461 34.9154 19.7937 34.8751H20.0024C25.0656 34.7881 28.6718 32.7263 30.1546 29.0679C31.6988 25.2531 30.6635 20.164 27.7449 17.2364C22.9427 12.4168 23.021 5.71785 23.0255 5.43511C23.0255 5.1948 23.22 5 23.4603 5C23.5756 5 23.6863 5.04582 23.768 5.12743C23.8496 5.20906 23.8954 5.31981 23.8954 5.4351C23.8954 5.50034 23.8259 12.0554 28.3627 16.6056C31.5119 19.7679 32.63 25.2572 30.9727 29.3763C29.3503 33.3782 25.4659 35.6359 20.0329 35.7272L19.7937 35.745Z" fill="white"/>
<path d="M17.6975 19.9417C17.6281 19.942 17.5595 19.9257 17.4976 19.8941C12.0427 17.045 13.5261 11.1331 13.5434 11.0771C13.5671 10.9594 13.6381 10.8565 13.7397 10.7931C13.8417 10.7297 13.9652 10.7109 14.0811 10.7416C14.1973 10.7722 14.2953 10.8496 14.3526 10.9552C14.4097 11.0604 14.4206 11.1848 14.383 11.2989C14.3308 11.4946 13.2867 15.7313 16.7624 18.3893C15.9271 15.8705 15.2748 10.2248 23.2219 5.07874V5.07844C23.4237 4.94766 23.6935 5.00501 23.8242 5.20678C23.9553 5.40856 23.8977 5.6783 23.6959 5.80938C13.8303 12.1949 18.041 19.203 18.0847 19.2939V19.2936C18.1612 19.4295 18.1591 19.5961 18.079 19.7299C17.9992 19.8637 17.8535 19.9447 17.6976 19.9417L17.6975 19.9417Z" fill="white"/>
<path d="M19.8721 35.7272C18.6709 35.7493 17.4917 35.4019 16.4945 34.7322C15.4971 34.0623 14.7294 33.1023 14.2955 31.9817C13.0819 29.0325 14.0085 25.4831 16.6619 22.9341V22.9344C16.8361 22.7684 17.1116 22.7754 17.2776 22.9495C17.4432 23.1237 17.4363 23.3992 17.2621 23.5649C14.8696 25.8614 14.017 29.0371 15.0872 31.647V31.6473C15.4674 32.6207 16.1401 33.4521 17.0127 34.0271C17.8853 34.6021 18.9148 34.8922 19.9592 34.8575C23.0781 34.8053 24.3091 33.3265 24.8267 32.091C25.175 31.1337 25.2515 30.099 25.0482 29.1008C24.8446 28.1028 24.3691 27.1807 23.674 26.4361C21.2118 23.9522 21.2513 20.5203 21.2513 20.3768C21.2513 20.1364 21.4457 19.9417 21.6861 19.9417C21.8014 19.9417 21.9121 19.9875 21.9937 20.0691C22.0753 20.1507 22.1212 20.2615 22.1212 20.3768C22.1212 20.4071 22.0951 23.5912 24.2961 25.7967C25.1096 26.6666 25.6664 27.745 25.9045 28.9119C26.1424 30.0791 26.0526 31.2892 25.6445 32.4083C25.1529 33.6132 23.7654 35.6488 19.9896 35.7141L19.8721 35.7272Z" fill="white"/>
<path d="M18.8194 27.8368C18.7499 27.8362 18.6816 27.8198 18.6191 27.7891C17.7954 27.3656 17.1396 26.6749 16.7595 25.8299C16.3793 24.9852 16.2974 24.0364 16.5271 23.1388C16.5993 22.9207 16.8287 22.7963 17.0511 22.8551C17.2732 22.9137 17.4115 23.1352 17.3663 23.3606C17.1424 24.3367 17.3569 25.362 17.9538 26.1664C17.7059 24.6614 18.019 22.2517 21.4337 20.0157C21.6355 19.8849 21.9052 19.9423 22.036 20.144C22.1671 20.3458 22.1094 20.6156 21.9076 20.7466C17.1576 23.8221 19.0889 27.0366 19.1717 27.1713C19.2764 27.3372 19.2566 27.553 19.1237 27.6974C19.0448 27.7827 18.9353 27.8327 18.8194 27.8367L18.8194 27.8368Z" fill="white"/>
</svg>
