<svg width="40" height="40" viewBox="0 0 40 40" fill="none" xmlns="http://www.w3.org/2000/svg">
<path d="M37.917 6.79058L37.3709 5.5064C37.3412 5.43667 37.2853 5.38159 37.2149 5.35296C37.1445 5.32476 37.066 5.32563 36.9961 5.35514C35.6425 5.93112 34.552 5.94158 33.6617 5.38749C33.6388 5.37328 33.6141 5.36345 33.5883 5.35602C33.5828 5.35448 33.5778 5.35405 33.5723 5.35295C33.5433 5.3464 33.5135 5.34443 33.4834 5.34727C33.479 5.34749 33.4749 5.34727 33.4705 5.34793C33.4456 5.35142 33.4211 5.35755 33.3973 5.36782L31.3579 6.24849L31.3581 5.36541C31.3581 4.97349 31.1896 4.59968 30.8951 4.34088C30.6009 4.08164 30.2101 3.96164 29.8203 4.01082L28.9901 4.11617C28.4061 4.19049 27.937 4.6281 27.8225 5.20562C27.7921 5.35907 27.6795 5.47994 27.5287 5.52126L26.6356 5.76564C26.1756 5.89154 25.8541 6.31275 25.8541 6.78972V7.39037C25.8541 7.48043 25.8963 7.56502 25.9684 7.61901C26.0401 7.67278 26.1332 7.68961 26.2198 7.6647C26.4707 7.59125 26.9929 7.48436 27.4485 7.50294C27.1516 7.94952 26.7276 8.27388 26.1341 8.50386C26.1324 8.50452 26.1313 8.50605 26.1295 8.50671C26.1278 8.50758 26.1258 8.50693 26.1241 8.5078L24.1898 9.34303C24.1896 9.34325 24.189 9.34325 24.1887 9.34368L3.08196 18.4564C2.43452 18.7362 2.03146 19.2971 2.00303 19.957C1.96849 20.7673 2.22927 21.4508 2.77771 21.9872C3.08635 22.2895 3.49465 22.448 3.91455 22.448C4.14057 22.448 4.37009 22.4021 4.58846 22.3074L5.84421 21.7653C5.38277 22.6436 5.09426 23.7206 4.98257 24.9167C4.34431 28.4053 4.09116 31.1 4.18561 33.3965C4.19195 33.5502 4.31851 33.6706 4.47109 33.6706C4.47502 33.6706 4.47918 33.6706 4.48311 33.6704C4.64093 33.6641 4.76334 33.531 4.75678 33.3734C4.69274 31.8227 4.79153 30.0825 5.06477 28.0252C5.20969 29.1079 5.46872 30.2225 5.85344 31.3277C5.88688 31.4243 5.96951 31.4958 6.07006 31.5145C6.08776 31.518 6.10569 31.5198 6.12339 31.5198C6.20602 31.5198 6.28514 31.4842 6.34001 31.4203C6.97021 30.6872 7.48278 29.6963 7.84276 28.6063C8.04167 31.3952 7.81937 33.3889 7.1481 34.9362C7.08515 35.0807 7.15181 35.249 7.29673 35.3118C7.33389 35.3282 7.37237 35.3354 7.41018 35.3354C7.52057 35.3354 7.62571 35.2711 7.67248 35.1631C8.55449 33.1294 8.57939 30.5811 8.39798 28.3228C8.79252 28.9115 9.3182 29.5528 10.0039 30.2781C10.0588 30.3358 10.1342 30.3675 10.2116 30.3675C10.2395 30.3675 10.268 30.3631 10.2955 30.3548C10.3996 30.3229 10.4761 30.2346 10.4935 30.1274C11.226 25.6086 10.5121 22.1842 8.53502 20.6034L23.2145 14.2651C22.8188 17.2728 22.1945 20.8838 20.9239 23.2978C20.8504 23.4375 20.904 23.6104 21.0437 23.6838C21.0863 23.7061 21.1318 23.7166 21.1766 23.7166C21.2791 23.7166 21.3785 23.6611 21.4297 23.564C22.2148 22.0724 22.7582 20.1556 23.1545 18.2024C23.2531 20.6278 23.6588 22.7002 24.3806 24.468C24.4258 24.5788 24.5325 24.6457 24.6451 24.6457C24.6807 24.6457 24.7176 24.6391 24.7528 24.6245C24.8988 24.5648 24.969 24.3982 24.9093 24.252C24.2621 22.6668 23.8787 20.8207 23.7504 18.6774C24.0641 19.4693 24.4964 20.2012 25.0577 20.3529C25.124 20.3708 25.1992 20.3826 25.2818 20.3826C25.5286 20.3826 25.8407 20.2748 26.1723 19.894C27.8886 17.9224 24.5281 13.939 24.3841 13.7706C24.3819 13.7677 24.3784 13.7668 24.3757 13.764L32.6743 10.1812C32.0992 13.6204 31.2666 16.5671 30.1273 19.1619C30.0639 19.3064 30.1295 19.4751 30.2742 19.5381C30.3116 19.5547 30.3505 19.5623 30.3888 19.5623C30.4987 19.5623 30.6034 19.4983 30.6504 19.3912C31.4727 17.5181 32.1355 15.4652 32.6616 13.1877C32.763 15.5357 33.1659 17.8309 33.6151 20.1511C33.6417 20.2877 33.7611 20.3826 33.8953 20.3826C33.9132 20.3826 33.9316 20.3808 33.9499 20.3771C34.1047 20.3474 34.2059 20.1972 34.1762 20.0422C33.5248 16.6806 32.9713 13.3737 33.3134 9.90488L35.2468 9.0701C35.247 9.06989 35.2475 9.06989 35.2477 9.06989L37.3715 8.1529C37.8961 7.92666 38.1407 7.31482 37.9173 6.78982L37.917 6.79058ZM23.8525 13.3684C23.8215 12.2602 23.3814 11.3581 22.5333 10.6809L23.089 10.4409C24.0809 11.0541 24.5072 11.9387 24.3889 13.1368L23.8525 13.3684ZM6.38913 17.651C7.11289 18.2556 7.52598 19.1467 7.64752 20.3647L6.84357 20.7118C6.75789 19.6269 6.37251 18.7015 5.69117 17.9524L6.38913 17.651ZM6.96947 17.4005L7.63487 17.1132C8.30088 17.7471 8.69326 18.6713 8.80344 19.8659L8.19535 20.1284C8.04911 18.974 7.64035 18.0577 6.96953 17.4004L6.96947 17.4005ZM8.20318 16.8678L21.9196 10.9457C22.8674 11.582 23.3131 12.4583 23.2794 13.6158L9.35261 19.6284C9.21774 18.4789 8.83456 17.5512 8.20262 16.8677L8.20318 16.8678ZM23.7158 10.1702L24.2863 9.92381C25.0997 10.3199 25.5487 11.1953 25.6547 12.5901L24.9827 12.8804C25.0173 11.742 24.5936 10.8331 23.7158 10.1701L23.7158 10.1702ZM24.9268 9.6473L26.2148 9.09121L27.5783 9.93058C27.624 9.95878 27.676 9.97277 27.728 9.97277C27.7407 9.97277 27.7534 9.9719 27.7663 9.97015C27.7971 9.96578 27.8277 9.95681 27.8563 9.94217L31.1959 8.34541C31.2951 8.29776 31.3581 8.19765 31.3581 8.08769V7.21794C32.0998 7.79369 32.4606 8.59658 32.4606 9.65144L26.2051 12.3523C26.0744 11.0808 25.6462 10.1748 24.927 9.6473L24.9268 9.6473ZM33.0273 9.40707C32.9705 8.27241 32.5191 7.37529 31.6718 6.7353L32.3472 6.44393C33.0673 7.19651 33.5515 8.08047 33.7901 9.07787L33.0273 9.40707ZM32.9053 6.20281L33.4616 5.96258C34.3167 6.66972 34.7668 7.5449 34.8328 8.62735L34.3222 8.84769C34.0693 7.85773 33.595 6.97024 32.9054 6.20278L32.9053 6.20281ZM26.426 7.0269V6.78995C26.426 6.56961 26.5746 6.37507 26.7868 6.31671L27.6798 6.07233C28.0409 5.97353 28.3106 5.68413 28.3832 5.31668C28.4498 4.98093 28.7226 4.72604 29.0623 4.68301L29.8925 4.57765C30.1185 4.5488 30.3465 4.61875 30.5177 4.76935C30.6888 4.92018 30.7868 5.13745 30.7868 5.36542V6.68457V6.68523V7.90779L28.7021 8.90474C28.866 8.55107 28.9456 8.13073 28.7832 7.68855C28.5618 7.08504 27.9344 6.92657 27.3353 6.92657C26.9971 6.92613 26.6679 6.97685 26.426 7.0269V7.0269ZM28.0352 7.64333C28.1329 7.70169 28.2081 7.77995 28.247 7.8853C28.4632 8.47482 27.9576 9.07245 27.6953 9.33126L26.8367 8.80272C27.358 8.51506 27.7549 8.13251 28.0352 7.64332L28.0352 7.64333ZM4.36219 21.7833C3.95736 21.9582 3.48107 21.8762 3.17767 21.579C2.74356 21.1547 2.54663 20.632 2.57416 19.9815C2.59274 19.5455 2.86729 19.1719 3.30883 18.9808L5.12943 18.1948C5.85973 18.9216 6.23941 19.8277 6.28485 20.9531L4.36219 21.7833ZM6.22648 30.6359C5.22383 27.4181 5.28437 24.095 6.34386 22.0475C6.4525 24.3437 6.3902 26.3844 6.15588 28.1206C6.13468 28.2771 6.24441 28.4209 6.4007 28.4419C6.41359 28.4436 6.42649 28.4445 6.43917 28.4445C6.57993 28.4445 6.70256 28.3405 6.72202 28.1971C6.96858 26.3673 7.02716 24.2099 6.90126 21.7826C7.42127 22.3684 7.65406 23.2069 7.75725 23.8749C8.09671 26.0742 7.43308 28.9221 6.22652 30.6358L6.22648 30.6359ZM10.0167 29.4509C9.1133 28.4459 8.55333 27.6218 8.26805 26.888C8.41888 25.9815 8.45953 25.0624 8.37319 24.2042C8.752 25.0936 9.04776 26.1092 9.25212 27.2513C9.2766 27.3896 9.39727 27.4867 9.533 27.4867C9.54962 27.4867 9.56645 27.4852 9.5835 27.4821C9.73891 27.4543 9.8423 27.3061 9.81454 27.1507C9.4095 24.8833 8.69605 23.1372 7.63308 21.8118C7.63111 21.8091 7.62827 21.8083 7.6263 21.8061C7.48028 21.579 7.31569 21.3794 7.13252 21.2096L7.92164 20.8688C9.83752 22.1488 10.5927 25.244 10.0168 29.4511L10.0167 29.4509ZM23.9503 14.1425C24.8417 15.1867 26.9012 18.1883 25.742 19.5197C25.5429 19.7488 25.3634 19.8441 25.2074 19.8019C24.5894 19.6351 23.9636 17.758 23.7079 16.4506C23.7219 15.6684 23.7636 14.8523 23.8342 13.9991L23.8873 13.9761C23.8913 14.0349 23.9088 14.094 23.9503 14.1425L23.9503 14.1425ZM37.1457 7.62956L35.3883 8.38847C35.3072 7.61317 35.0383 6.92287 34.5898 6.3211C35.3004 6.42777 36.0906 6.31913 36.9557 5.98863L37.392 7.0149C37.4926 7.25163 37.3822 7.52749 37.1457 7.62954L37.1457 7.62956Z" fill="white"/>
<path d="M9.36681 16.7618C9.10188 16.8612 8.9292 17.0536 8.98079 17.1913C9.0326 17.329 9.289 17.3598 9.55391 17.2604C9.81883 17.1609 9.99152 16.9686 9.93993 16.8308C9.88813 16.6934 9.63151 16.6625 9.36681 16.7618Z" fill="white"/>
<path d="M11.5826 15.7847C11.3177 15.8842 11.145 16.0765 11.1966 16.2142C11.2484 16.352 11.5048 16.3828 11.7697 16.2833C12.0347 16.1839 12.2073 15.9915 12.1558 15.8538C12.1042 15.7163 11.8475 15.6855 11.5826 15.7847Z" fill="white"/>
<path d="M13.8121 14.8757C13.5472 14.9752 13.3745 15.1675 13.4261 15.3052C13.4779 15.4429 13.7343 15.4737 13.9992 15.3743C14.2641 15.2748 14.4368 15.0825 14.3852 14.9448C14.3334 14.8071 14.0773 14.7762 13.8121 14.8757Z" fill="white"/>
<path d="M16.0231 13.9477C15.7581 14.0472 15.5855 14.2395 15.637 14.3772C15.6888 14.5149 15.9452 14.5458 16.2102 14.4463C16.4751 14.3469 16.6478 14.1545 16.5962 14.0168C16.5444 13.8791 16.2878 13.8483 16.0231 13.9477Z" fill="white"/>
<path d="M18.7397 13.015C18.7915 13.1525 18.6186 13.3448 18.3537 13.4443C18.089 13.5437 17.8324 13.5127 17.7806 13.375C17.729 13.2373 17.9017 13.0452 18.1666 12.9457C18.4315 12.8462 18.6882 12.8773 18.7397 13.015Z" fill="white"/>
<path d="M21.064 12.0782C21.1158 12.2159 20.9429 12.4081 20.6782 12.5075C20.4132 12.607 20.1566 12.5759 20.1048 12.4382C20.0532 12.3005 20.2259 12.1084 20.4908 12.0089C20.7558 11.9095 21.0124 11.9405 21.064 12.0782" fill="white"/>
</svg>
