<svg width="40" height="40" viewBox="0 0 40 40" fill="none" xmlns="http://www.w3.org/2000/svg">
<path d="M2.90422 33.137L3.74487 33.0169L6.08667 32.8368C8.57375 32.8236 11.0335 33.3565 13.2922 34.398C15.0276 35.2025 16.6119 36.2993 17.9758 37.6405C18.2149 37.8198 18.5495 37.7959 18.7607 37.5847C18.972 37.3735 18.9958 37.0389 18.8165 36.7998C17.366 35.3629 15.6804 34.1851 13.8327 33.3171C11.4008 32.2149 8.75632 31.6613 6.08636 31.6959L3.56442 31.816L2.78382 31.936C2.45223 31.9859 2.22357 32.295 2.27343 32.6265C2.32329 32.9581 2.63237 33.1868 2.96392 33.1369L2.90422 33.137Z" fill="white"/>
<path d="M2.96391 26.8924C7.33362 26.389 11.7574 27.095 15.7541 28.934C19.7914 30.8463 23.2204 33.839 25.662 37.5806C25.7754 37.7318 25.9534 37.8208 26.1424 37.8208L26.5027 37.7007C26.6397 37.6144 26.7359 37.4766 26.7699 37.3184C26.804 37.16 26.7724 36.9949 26.6828 36.8601C24.1139 32.9597 20.5198 29.8432 16.2945 27.8531C12.0942 25.9124 7.44061 25.1644 2.84416 25.6915C2.68493 25.7073 2.53857 25.7858 2.43724 25.9097C2.33591 26.0338 2.28792 26.1928 2.30374 26.352C2.33698 26.6836 2.63266 26.9256 2.96425 26.8924H2.96391Z" fill="white"/>
<path d="M36.4692 21.0674C36.8007 21.1006 37.0964 20.8586 37.1297 20.527C37.1629 20.1954 36.9208 19.8997 36.5892 19.8665L34.6678 19.6863V15.0628L36.1089 16.1436L36.4692 16.2637C36.7276 16.2637 36.957 16.0983 37.0388 15.853C37.1205 15.608 37.0361 15.3378 36.8294 15.1829L30.2244 10.3792C30.011 10.2191 29.7172 10.2191 29.5038 10.3792L22.8987 15.1829C22.6333 15.3818 22.5797 15.7581 22.7786 16.0235C22.9775 16.2889 23.3539 16.3425 23.6193 16.1436L25.0604 15.0628V20.8272C23.496 21.2623 21.9696 21.8247 20.4969 22.5085L19.6562 22.9288L18.8156 22.5085C16.2282 21.281 13.4782 20.4318 10.6493 19.9866V15.6032C12.8281 15.504 14.8005 14.2857 15.865 12.3821C16.9295 10.4786 16.9346 8.16015 15.8787 6.25178C14.8225 4.34368 12.8554 3.11675 10.6772 3.00791C8.49891 2.89882 6.41898 3.92363 5.17785 5.71699C3.93671 7.51035 3.71045 9.81756 4.5798 11.8178C5.44913 13.8181 7.29045 15.2271 9.44834 15.5431V19.8664C7.15348 19.6125 4.83789 19.6125 2.54338 19.8664C2.38415 19.8822 2.23779 19.9608 2.13646 20.0846C2.03513 20.2087 1.98714 20.3677 2.00296 20.5269C2.0362 20.8585 2.33188 21.1006 2.66347 21.0673C7.99474 20.4486 13.3935 21.3 18.2755 23.5292C24.4844 26.4589 29.49 31.4436 32.4464 37.6397C32.5404 37.8552 32.7517 37.996 32.9868 38H33.227C33.5216 37.8638 33.6545 37.518 33.5272 37.2194C32.8342 35.7596 32.0314 34.3543 31.1253 33.0162C32.6008 32.8339 34.0933 32.8339 35.5688 33.0162L36.4695 33.1363H36.5295C36.8611 33.1529 37.1434 32.8974 37.16 32.5658C37.1766 32.2342 36.9211 31.952 36.5895 31.9353L35.7489 31.8152C33.9735 31.5871 32.1748 31.6072 30.4048 31.8753C29.2891 30.3868 28.0432 29.0001 26.6819 27.7321C29.8346 26.7987 33.1433 26.5129 36.4094 26.8915C36.741 26.9247 37.0367 26.6826 37.0699 26.351C37.1032 26.0195 36.8611 25.7238 36.5295 25.6905C32.8514 25.2536 29.1222 25.6222 25.6011 26.7714C24.1471 25.5433 22.5787 24.4574 20.9175 23.5289H20.9775C25.8236 21.3214 31.1778 20.4706 36.4695 21.067L36.4692 21.0674ZM31.065 19.7464L28.6632 19.9866V17.4046H31.065V19.7464ZM26.2613 14.1621L29.8641 11.5201L33.4668 14.1621V19.6863H32.2659V16.8041C32.2659 16.6449 32.2027 16.4921 32.0901 16.3795C31.9775 16.2669 31.8247 16.2037 31.6655 16.2037H28.0627C27.7311 16.2037 27.4622 16.4725 27.4622 16.8041V20.2267L26.2613 20.4669V14.1621ZM5.24515 9.29835C5.24756 7.96258 5.77323 6.68095 6.70986 5.72852C7.64645 4.77608 8.91922 4.22874 10.2547 4.20403C11.5905 4.17937 12.8823 4.67931 13.8534 5.59662C14.8246 6.51365 15.3975 7.77517 15.4492 9.10984C15.5007 10.4445 15.027 11.7465 14.1298 12.7359C13.2323 13.7254 11.9826 14.3237 10.6492 14.4022V12.6008L13.2913 11.3398C13.5896 11.1905 13.7108 10.8276 13.5615 10.5293C13.4122 10.2309 13.0492 10.1097 12.7509 10.2591L10.6493 11.2798V7.1967C10.6493 6.86511 10.3804 6.59624 10.0488 6.59624C9.71722 6.59624 9.44835 6.86511 9.44835 7.1967V9.5385L7.22664 8.45767C6.92828 8.30836 6.56533 8.42952 6.41605 8.72788C6.26677 9.02623 6.3879 9.38919 6.68626 9.53847L9.44838 10.8595V14.3422C8.26619 14.1301 7.19689 13.5082 6.42809 12.5858C5.6593 11.6631 5.24028 10.4992 5.24515 9.29828V9.29835Z" fill="white"/>
</svg>
