<svg width="40" height="40" viewBox="0 0 40 40" fill="none" xmlns="http://www.w3.org/2000/svg">
<g clip-path="url(#clip0_146_7776)">
<path d="M21.0696 27.9333C11.4503 27.9362 2.84023 27.9348 -4.67194 27.9333C-4.94824 25.0942 -7.34834 22.8681 -10.2577 22.8681C-13.1669 22.8681 -15.5676 25.0948 -15.8429 27.9323C-18.1031 27.9308 -20.2157 27.9308 -22.1759 27.9308C-23.1872 26.8464 -22.9376 24.9544 -22.6445 24.3127C-22.4596 23.9089 -22.3287 23.7256 -22.2209 23.5788C-21.8996 23.1344 -21.8235 22.9056 -21.8235 21.6769V16.3472L-18.296 12.5493C-17.6613 11.8632 -17.6613 11.8632 -16.6896 11.5672C-10.8648 9.78786 2.75574 9.69436 9.4075 10.8673C10.6046 11.0788 10.6777 11.1228 11.565 11.6823L11.862 11.8677L19.3719 16.5519C19.458 16.6062 19.5267 16.6502 19.585 16.6888C19.9621 16.9349 20.098 16.9922 20.6842 17.0308C23.7892 17.2335 33.7537 18.915 36.6778 22.2606C37.2452 22.9096 37.4978 23.5596 37.4513 24.2465L37.1998 27.9362L32.2373 27.9347C31.9615 25.0971 29.5623 22.8719 26.6546 22.8719C23.7454 22.8719 21.3462 25.0966 21.0704 27.9347L21.0696 27.9333ZM-5.19325 28.4804H-5.19474H-5.19325ZM11.9062 29.032C15.0112 29.032 18.2406 29.032 21.5928 29.0305C21.8958 29.0305 22.142 28.7849 22.142 28.4824C22.142 25.9928 24.1665 23.9683 26.6546 23.9683C29.1417 23.9683 31.1672 25.9928 31.1672 28.4809C31.1672 28.7839 31.4129 29.031 31.7153 29.031L37.7108 29.0325C37.9994 29.0325 38.2397 28.8081 38.2579 28.5204L38.5456 24.3211C38.6128 23.341 38.2624 22.4039 37.5042 21.5359C34.3147 17.8893 24.1121 16.1534 20.7577 15.9335C20.4033 15.9102 20.4033 15.9102 20.1859 15.7694C20.1216 15.7278 20.046 15.6779 19.9531 15.6206L12.1501 10.7525C11.17 10.1367 10.9688 10.0279 9.59824 9.78526C2.83373 8.59359 -11.0505 8.69738 -17.0101 10.5168C-18.1944 10.8781 -18.312 10.9507 -19.1004 11.8028L-22.7742 15.758C-22.8686 15.8598 -22.9215 15.9927 -22.9215 16.1311V21.6767C-22.9215 22.6742 -22.9621 22.7295 -23.1103 22.9356C-23.2319 23.1027 -23.4138 23.3543 -23.6432 23.8574C-24.1221 24.9078 -24.3579 27.4626 -22.7648 28.8886C-22.663 28.9785 -22.533 29.0285 -22.3991 29.0285C-20.2273 29.0285 -17.8652 29.0285 -15.3217 29.03C-15.1764 29.03 -15.0375 28.9716 -14.9337 28.8688C-14.8304 28.766 -14.7735 28.6271 -14.7735 28.4813C-14.7735 25.9922 -12.747 23.9662 -10.2584 23.9662C-7.76926 23.9662 -5.74324 25.9927 -5.74324 28.4813C-5.74324 28.7843 -5.49709 29.0304 -5.19412 29.0304C-0.0156848 29.0314 5.69506 29.0334 11.9054 29.0334L11.9062 29.032Z" fill="white"/>
<path d="M15.5692 17.5375H-0.736954V12.8351C3.06987 12.888 6.56733 13.1519 8.92942 13.5691C9.62781 13.6917 9.62782 13.6917 10.001 13.9349C10.1078 14.0046 10.2397 14.0896 10.4098 14.1963C10.8042 14.4425 11.426 14.8493 12.1441 15.3227C13.142 15.9786 14.3846 16.7957 15.5693 17.5371L15.5692 17.5375ZM-1.2861 18.6348H17.5329C17.7811 18.6348 17.999 18.4678 18.0633 18.228C18.1275 17.9893 18.0227 17.7348 17.8087 17.6102C16.2632 16.7156 14.2313 15.3796 12.748 14.4054C12.0219 13.9299 11.3961 13.5182 10.9903 13.2652C10.8272 13.1638 10.7027 13.0828 10.5999 13.0155C10.0557 12.6612 9.96127 12.6364 9.12097 12.4877C6.5878 12.0423 2.7954 11.7665 -1.28132 11.7319H-1.28577C-1.43009 11.7319 -1.56997 11.7893 -1.67278 11.8911C-1.77558 11.9939 -1.83489 12.1338 -1.83489 12.2811V18.0867C-1.83489 18.3897 -1.58875 18.6348 -1.28577 18.6348L-1.2861 18.6348ZM-4.40688 17.5375H-15.8491V14.1795C-13.3818 13.4352 -9.33617 12.9661 -4.40688 12.852V17.5375ZM-16.3983 18.6348H-3.85836C-3.55538 18.6348 -3.30924 18.3892 -3.30924 18.0867V12.2924C-3.30924 12.1451 -3.36954 12.0038 -3.47383 11.901C-3.57961 11.7981 -3.72195 11.7423 -3.86826 11.7443C-6.9431 11.7981 -12.636 12.0512 -16.2095 13.1426C-16.2491 13.1539 -16.2925 13.1668 -16.3355 13.1801C-16.4112 13.2019 -16.4898 13.2246 -16.5649 13.2483C-16.7923 13.321 -16.947 13.533 -16.947 13.7718V18.0871C-16.947 18.3901 -16.7008 18.6353 -16.3978 18.6353L-16.3983 18.6348Z" fill="white"/>
<path d="M26.6538 23.9691C29.1409 23.9691 31.1664 25.9936 31.1664 28.4817C31.1664 30.9714 29.1414 32.9944 26.6538 32.9944C24.1662 32.9944 22.1411 30.9714 22.1411 28.4817C22.1411 25.9941 24.1657 23.9691 26.6538 23.9691ZM26.6538 34.0911C29.7468 34.0911 32.2637 31.5748 32.2637 28.4812C32.2637 25.3877 29.7468 22.8713 26.6538 22.8713C23.5602 22.8713 21.0434 25.3877 21.0434 28.4812C21.0434 31.5748 23.5602 34.0911 26.6538 34.0911Z" fill="white"/>
<path d="M37.7944 25.3543C37.8547 25.3543 37.9131 25.3543 37.9734 25.3534C38.2759 25.3479 38.5171 25.0988 38.5116 24.7948C38.5077 24.4958 38.2615 24.2561 37.963 24.2561H37.9546C36.0631 24.2887 34.6292 23.7524 33.7005 22.6626C32.7569 21.5539 32.5147 20.0142 32.6872 19.0549C32.7416 18.7559 32.5429 18.4702 32.2459 18.4173C31.9468 18.3634 31.6616 18.5616 31.6073 18.8587C31.3829 20.1062 31.6844 21.9854 32.8666 23.3728C33.6397 24.2827 35.1195 25.3543 37.7944 25.3543L37.7944 25.3543Z" fill="white"/>
<path d="M26.6536 26.4567C27.7692 26.4567 28.6781 27.3656 28.6781 28.4812C28.6781 29.5987 27.7692 30.5057 26.6536 30.5057C25.5361 30.5057 24.6286 29.5987 24.6286 28.4812C24.6286 27.3656 25.5361 26.4567 26.6536 26.4567ZM26.6536 31.604C28.3756 31.604 29.7754 30.2033 29.7754 28.4812C29.7754 26.7597 28.3752 25.3594 26.6536 25.3594C24.932 25.3594 23.5308 26.7596 23.5308 28.4812C23.5308 30.2031 24.9315 31.604 26.6536 31.604Z" fill="white"/>
</g>
<defs>
<clipPath id="clip0_146_7776">
<rect width="40" height="40" fill="white"/>
</clipPath>
</defs>
</svg>
