<svg width="40" height="40" viewBox="0 0 40 40" fill="none" xmlns="http://www.w3.org/2000/svg">
<path d="M22.1087 30.8061H20.8827L36 4.00001H32.6212C31.4355 3.99752 30.3135 4.53464 29.5719 5.45967C26.2042 6.72803 22.3346 5.93945 18.5907 5.17366C15.123 4.46414 11.8425 3.79843 9.38124 4.94891C9.21597 4.65968 8.97733 4.41926 8.68882 4.25257C8.40066 4.08588 8.07333 3.99897 7.74033 4.00004C7.28013 4.00146 6.83633 4.16816 6.48902 4.4702C6.14209 4.77188 5.91556 5.18897 5.85074 5.64418C4.45481 15.7673 4.47442 23.7787 5.90844 30.8062H5.2153H5.21566C4.5446 30.8069 4.00073 31.3508 4 32.0222V34.0336V34.0333C4.00071 34.7047 4.54461 35.2486 5.21566 35.2493H22.1074C22.7788 35.2486 23.3226 34.7047 23.3234 34.0333V32.0222C23.3227 31.3508 22.7788 30.8069 22.1074 30.8062L22.1087 30.8061ZM34.6127 4.81063L19.9522 30.8061H10.7008L12.8179 28.109L12.8183 29.08H13.629L13.6279 27.0771L14.6253 25.8069L14.6124 27.3282L15.4231 27.3347L15.4448 24.7634L16.7214 23.1374V24.5351H17.5321L17.5314 22.1048L18.7186 20.5925V21.7212H19.5292V19.5599L20.5835 18.2168V19.2903H21.3942V17.1845L22.1817 16.1811V17.1592H22.9924L22.992 15.1489L23.88 14.0181V15.2113H24.6907V12.9855L28.7184 7.85463L28.7191 7.85427L30.0591 6.14668L30.1738 6.00029V6.00064C30.7622 5.24732 31.6658 4.80778 32.6218 4.81061L34.6127 4.81063ZM9.40048 10.4583C10.2966 9.42714 11.4852 8.69312 12.8088 8.35364L12.817 26.7973L12.3429 27.4014C10.156 23.5756 9.18535 18.0004 9.40045 10.4586L9.40048 10.4583ZM24.6901 8.55844C25.5952 8.54313 26.4966 8.43805 27.3815 8.24536L24.6901 11.6733V8.55844ZM23.8794 12.7055L22.9918 13.8363V8.53811C23.2885 8.55271 23.5841 8.55948 23.8794 8.5634V12.7055ZM22.1811 14.8686L21.394 15.8723V8.42559C21.6565 8.44874 21.919 8.47189 22.1815 8.49077L22.1811 14.8686ZM20.5833 16.9045L19.5291 18.2474V8.24641C19.647 8.25817 19.7645 8.26957 19.8828 8.28168C20.1153 8.30518 20.3494 8.32762 20.5834 8.35078L20.5833 16.9045ZM18.7184 19.28L17.5311 20.7923V8.07043C17.923 8.0975 18.3194 8.13134 18.7184 8.16873V19.28ZM16.7205 21.8249L15.4554 23.4366L15.5854 8.00842C15.9583 8.00344 16.3369 8.00914 16.7209 8.02588L16.7205 21.8249ZM14.6358 24.4802L13.6271 25.7654L13.6197 8.17885C14.0022 8.1126 14.3876 8.06593 14.7748 8.03958L14.6358 24.4802ZM18.4285 5.9682C21.7122 6.63925 25.3819 7.39084 28.6866 6.58226L28.2243 7.17103L28.2246 7.17139C27.0834 7.54396 25.8909 7.73808 24.6902 7.74627V7.20381H23.8795V7.7534C23.5846 7.74912 23.289 7.742 22.9919 7.72704V7.2038H22.1812V7.67788C21.9187 7.65865 21.6562 7.63585 21.3937 7.61234V7.07023H20.583V7.53683C20.3764 7.51653 20.1695 7.49658 19.9636 7.47593C19.819 7.46132 19.674 7.44672 19.5287 7.43247V6.6542H18.718V7.35446C18.3216 7.31813 17.9259 7.28643 17.5308 7.26007L17.5312 6.37139H16.7205L16.7209 7.21768C16.3419 7.20308 15.9654 7.19667 15.5925 7.20165L15.6 6.32686L14.7893 6.31973L14.7815 7.23439C14.3889 7.25968 14.0007 7.29922 13.6192 7.35977L13.6189 6.27122H12.8082L12.8089 7.52463C11.5684 7.80637 10.4182 8.39515 9.46395 9.23614L9.67267 5.70169C11.8949 4.63139 15.0721 5.28104 18.4287 5.96812L18.4285 5.9682ZM6.65399 5.7552H6.6547C6.73199 5.21416 7.19468 4.812 7.74142 4.811C8.04489 4.80958 8.33518 4.93638 8.53999 5.16042C8.75085 5.38731 8.85628 5.69291 8.82957 6.00137C8.71594 7.44143 8.6415 8.81629 8.59912 10.1395L8.51933 11.4923L8.56457 11.4386C8.45558 18.8158 9.52381 24.2972 11.7995 28.0941L9.66989 30.8068H6.73279C5.28489 23.8345 5.261 15.8609 6.65478 5.75601L6.65399 5.7552ZM22.5144 34.033C22.514 34.2566 22.3327 34.4379 22.1091 34.4383H5.21737C4.99369 34.4379 4.81239 34.2566 4.81203 34.033V32.0219C4.81239 31.7982 4.99369 31.6169 5.21737 31.6166H22.1091C22.3327 31.6169 22.514 31.7982 22.5144 32.0219V34.033Z" fill="white"/>
<path d="M18.1793 26.8688C17.7166 26.8524 17.2664 27.0187 16.9252 27.3318C16.585 27.6463 16.3838 28.083 16.3656 28.5456C16.3474 29.0087 16.5138 29.4599 16.8283 29.8001C17.1424 30.1403 17.5791 30.3415 18.0421 30.3601C18.0656 30.3608 18.0884 30.3608 18.1119 30.3608H18.1116C18.7274 30.3604 19.2973 30.0359 19.6118 29.5066C19.9263 28.9774 19.9391 28.3216 19.6453 27.7805C19.3514 27.2395 18.7944 26.8929 18.1792 26.8687L18.1793 26.8688ZM18.7456 29.3019C18.5658 29.4739 18.3225 29.5637 18.0739 29.5498C17.5649 29.5295 17.1656 29.1057 17.1752 28.5963C17.1852 28.0873 17.6005 27.6791 18.1098 27.6785C18.1227 27.6785 18.1351 27.6785 18.148 27.6792H18.1476C18.5262 27.6941 18.8582 27.9356 18.9893 28.2907C19.12 28.6462 19.0238 29.0451 18.7456 29.302L18.7456 29.3019Z" fill="white"/>
<path d="M20.5314 23.4001C20.1197 23.3844 19.7186 23.5326 19.4155 23.8118C19.1128 24.0914 18.9336 24.48 18.9172 24.8918C18.9009 25.3035 19.049 25.7053 19.3286 26.008C19.6082 26.3108 19.9968 26.49 20.409 26.506C20.4303 26.5067 20.4514 26.5067 20.4727 26.5067C21.0202 26.506 21.527 26.2168 21.8063 25.7462C22.0859 25.2754 22.0969 24.692 21.8355 24.2107C21.5741 23.7299 21.0786 23.4218 20.5315 23.4L20.5314 23.4001ZM20.9745 25.4991H20.9749C20.8328 25.6373 20.6387 25.7085 20.441 25.6953C20.0367 25.68 19.719 25.3434 19.7265 24.9388C19.7343 24.5342 20.0645 24.2101 20.4691 24.2097C20.4794 24.2097 20.4898 24.2097 20.4997 24.2104L20.4994 24.2108C20.8 24.2225 21.0636 24.4141 21.1676 24.6962C21.2719 24.9783 21.1957 25.2953 20.9749 25.4991L20.9745 25.4991Z" fill="white"/>
<path d="M22.7334 20.0966C22.2073 20.0756 21.71 20.3371 21.4286 20.7823C21.1476 21.2275 21.1255 21.7889 21.3706 22.2551C21.6156 22.721 22.0908 23.0209 22.6169 23.0419C22.6372 23.0426 22.6571 23.0426 22.6774 23.0426C23.1967 23.0415 23.6769 22.7676 23.9418 22.321C24.2068 21.8747 24.2172 21.3215 23.9693 20.8652C23.7217 20.4093 23.2519 20.1172 22.7333 20.0966L22.7334 20.0966ZM23.1252 22.0563C22.9987 22.1803 22.8253 22.2437 22.6489 22.2312C22.2835 22.217 21.9989 21.9089 22.0128 21.5434C22.027 21.188 22.3191 20.9069 22.6749 20.9062C22.6835 20.9062 22.6924 20.9062 22.7009 20.9069H22.7013C22.9692 20.9176 23.2042 21.0886 23.2972 21.3401C23.3898 21.5915 23.3221 21.8743 23.1252 22.0563H23.1252Z" fill="white"/>
<path d="M24.7006 16.9526C24.3537 16.9415 24.0168 17.0673 23.7617 17.3027C23.5071 17.5381 23.355 17.8644 23.3389 18.211C23.325 18.5586 23.4501 18.8973 23.6862 19.1527C23.9224 19.4081 24.2501 19.5591 24.5977 19.5727C24.6151 19.5734 24.6326 19.5737 24.6501 19.5737V19.5741C24.9884 19.5734 25.314 19.4423 25.558 19.2076C25.802 18.9728 25.9458 18.653 25.9597 18.3146V18.3143C25.9736 17.9666 25.8486 17.6279 25.6125 17.3725C25.3763 17.1168 25.0483 16.9658 24.7006 16.9526L24.7006 16.9526ZM24.6294 18.763C24.3569 18.7523 24.1429 18.5254 24.1482 18.2526C24.1535 17.9798 24.3765 17.7618 24.6494 17.7618L24.6693 17.7621H24.6689C24.8018 17.7671 24.9272 17.8248 25.0173 17.9224C25.1074 18.02 25.1551 18.1493 25.1498 18.2822C25.1316 18.5554 24.903 18.7662 24.6294 18.763L24.6294 18.763Z" fill="white"/>
</svg>
