<svg width="40" height="40" viewBox="0 0 40 40" fill="none" xmlns="http://www.w3.org/2000/svg">
<path d="M18.9425 9.895V9.3503C18.9425 8.93504 18.6056 8.59814 18.1903 8.59814C17.7751 8.59814 17.4382 8.93504 17.4382 9.3503V9.89535C9.49532 10.2739 3.21613 16.6214 3.00029 24.6574C2.99085 24.9975 3.2109 25.3008 3.5366 25.3987C3.86476 25.496 4.21355 25.3627 4.39162 25.0737C4.69458 24.5847 5.21759 24.2929 5.79241 24.2929C6.37315 24.2929 6.89964 24.5902 7.20226 25.0877C7.33834 25.3123 7.58254 25.4498 7.84527 25.4498H7.90229C8.16502 25.4498 8.40922 25.3123 8.54565 25.0874C8.84721 24.5899 9.37373 24.2929 9.95478 24.2929C10.5362 24.2929 11.0627 24.5899 11.3639 25.0874C11.5003 25.312 11.7445 25.4498 12.0073 25.4498H12.0643C12.327 25.4498 12.5712 25.313 12.7073 25.0877C13.0096 24.5902 13.5357 24.2929 14.1171 24.2929C14.6986 24.2929 15.2251 24.5899 15.5263 25.0874C15.6627 25.312 15.9069 25.4498 16.1696 25.4498H16.2267C16.4894 25.4498 16.7336 25.313 16.8697 25.0877C17.0477 24.7942 17.3094 24.5815 17.6089 24.4479V34.2591H17.6124C17.6124 34.2766 17.6092 34.293 17.611 34.3112C17.7646 36.5236 19.6215 38.2564 21.8388 38.2564C24.1761 38.2564 26.0771 36.3551 26.0771 34.0181C26.0771 33.6795 26.0365 33.3411 25.9564 33.013C25.8578 32.6093 25.4523 32.3616 25.0472 32.4609C24.6435 32.5596 24.3969 32.9671 24.4952 33.3701C24.5473 33.5814 24.5728 33.799 24.5728 34.0177C24.5728 35.5251 23.3467 36.7517 21.8388 36.7517C20.4125 36.7517 19.2189 35.6399 19.1135 34.2188L19.1139 24.5213C19.3444 24.6574 19.5439 24.8467 19.6887 25.0867C19.8251 25.3113 20.0693 25.4491 20.332 25.4491H20.3898C20.6532 25.4491 20.8967 25.3116 21.0338 25.0867C21.3354 24.5892 21.8619 24.2922 22.443 24.2922C23.0244 24.2922 23.5502 24.5892 23.8517 25.0867C23.9882 25.3113 24.2324 25.4491 24.4951 25.4491H24.5528C24.8155 25.4491 25.0597 25.3116 25.1962 25.0867C25.4977 24.5892 26.0242 24.2922 26.6053 24.2922C27.1867 24.2922 27.7125 24.5896 28.0151 25.087C28.1512 25.3116 28.3954 25.4491 28.6581 25.4491H28.7152C28.9779 25.4491 29.2221 25.3116 29.3585 25.0867C29.6601 24.5892 30.1866 24.2922 30.7677 24.2922C31.2602 24.2922 31.7234 24.5108 32.038 24.8911C32.244 25.1409 32.5862 25.2315 32.8881 25.114C33.1903 24.9982 33.3835 24.7019 33.3691 24.3783C33.0147 16.4981 26.7428 10.2727 18.942 9.89472L18.9425 9.895ZM30.7688 22.788C29.9848 22.788 29.2533 23.0703 28.6876 23.5702C28.1219 23.0703 27.3897 22.788 26.6068 22.788C25.8228 22.788 25.0913 23.0703 24.5256 23.5702C23.9599 23.0703 23.2281 22.788 22.4448 22.788C21.6615 22.788 20.9293 23.0703 20.3629 23.5702C19.7972 23.0703 19.065 22.788 18.2817 22.788C17.4984 22.788 16.7665 23.0703 16.2009 23.5702C15.6352 23.0703 14.903 22.788 14.1197 22.788C13.3364 22.788 12.6045 23.0703 12.0389 23.5702C11.4732 23.0703 10.741 22.788 9.9577 22.788C9.18734 22.788 8.44817 23.0759 7.87929 23.5723C7.31255 23.0713 6.57925 22.788 5.79498 22.788C5.39721 22.788 5.01168 22.8611 4.65551 22.9993C5.64344 16.3726 11.2794 11.3978 18.162 11.3825C18.1725 11.3829 18.183 11.386 18.1934 11.386C18.2039 11.386 18.2144 11.3829 18.2249 11.3825C25.0364 11.3979 30.6943 16.3562 31.7188 22.933C31.4141 22.8375 31.0947 22.7878 30.7691 22.7878L30.7688 22.788Z" fill="white"/>
<path d="M29.111 12.8288C29.8562 12.8288 30.5576 12.5388 31.0845 12.0112C31.2415 11.8542 31.7208 11.3749 32.4807 9.10198C33.2888 6.68496 33.1769 6.57265 32.8764 6.27244C32.7354 6.13146 32.5328 6.05029 32.3338 6.05029C31.9853 6.05029 28.0972 7.10539 27.1379 8.06538C26.6107 8.59259 26.3203 9.29261 26.3203 10.0385C26.3203 10.7843 26.6107 11.485 27.1379 12.0119C27.6651 12.5391 28.3655 12.8288 29.111 12.8288L29.111 12.8288ZM28.2011 9.1292C28.5667 8.76362 30.1651 8.19438 31.3021 7.84671C30.9551 8.98367 30.3862 10.5814 30.0203 10.9477C29.5337 11.4336 28.6867 11.4336 28.2012 10.9477C27.9584 10.7049 27.8241 10.382 27.8241 10.0385C27.8241 9.69496 27.9584 9.3724 28.2012 9.12929L28.2011 9.1292Z" fill="white"/>
<path d="M36.9478 7.77872C36.8068 7.63774 36.6092 7.55762 36.4101 7.55762C36.1523 7.55762 33.9514 8.14605 33.3458 8.75162C32.9942 9.10287 32.8008 9.56955 32.8008 10.0667C32.8008 10.5631 32.9942 11.0302 33.3455 11.3811C33.6967 11.7323 34.1634 11.9258 34.6599 11.9258C35.157 11.9258 35.6237 11.7323 35.9742 11.3811C36.2268 11.1285 37.5909 8.43261 36.9478 7.77874L36.9478 7.77872ZM34.9096 10.3175C34.8194 10.4078 34.7141 10.4208 34.6595 10.4208C34.6049 10.4208 34.4996 10.4078 34.4086 10.3168C34.318 10.2262 34.3047 10.1206 34.3047 10.066C34.3047 10.0114 34.3177 9.90612 34.4016 9.82216C34.5251 9.71651 34.9033 9.55978 35.3116 9.41425C35.1674 9.82146 35.0121 10.1972 34.9096 10.3175L34.9096 10.3175Z" fill="white"/>
<path d="M28.775 6.36808C29.2722 6.36808 29.7389 6.17461 30.089 5.82408C30.3423 5.57114 31.707 2.8756 31.063 2.2211C30.922 2.08012 30.7244 2 30.5253 2C30.2675 2 28.0666 2.58843 27.4599 3.19508C26.7358 3.91996 26.7361 5.09929 27.4603 5.82347C27.8115 6.17506 28.2782 6.36817 28.775 6.36817V6.36808ZM28.5172 4.26523C28.6407 4.15957 29.0189 4.00284 29.4271 3.85731C29.2826 4.26453 29.1273 4.64026 29.0248 4.76061C28.9345 4.85086 28.8292 4.8638 28.7747 4.8638C28.7201 4.8638 28.6148 4.85086 28.5238 4.7599C28.386 4.62171 28.386 4.39641 28.5172 4.26523H28.5172Z" fill="white"/>
</svg>
