<svg width="40" height="40" viewBox="0 0 40 40" fill="none" xmlns="http://www.w3.org/2000/svg">
<path d="M13.0897 29.0664C12.6138 29.2201 12.1006 28.9753 11.92 28.5089C11.8512 28.3553 11.6911 28.2631 11.5235 28.281C11.3558 28.2987 11.2187 28.4222 11.1833 28.587C11.1445 28.7703 10.271 33.1016 12.7117 36.1114C14.1854 37.9242 16.5323 38.8404 19.6861 38.8404C22.8399 38.8404 25.1441 37.9204 26.6061 36.1114C29.0583 33.0667 28.1304 28.6455 28.0915 28.4582V28.4585C28.0649 28.3366 27.9816 28.2349 27.8674 28.1849C27.7535 28.1348 27.6221 28.1422 27.5144 28.205C27.0102 28.4761 26.4275 28.5643 25.8653 28.4544C25.4187 28.3092 25.0527 27.9842 24.8555 27.5578C24.6225 27.2053 24.5662 26.7645 24.7035 26.3647C24.9882 25.659 25.9705 25.3354 25.9784 25.3316C26.1032 25.2992 26.2038 25.2073 26.2473 25.086C26.2857 24.9647 26.2626 24.8323 26.1851 24.7311C25.6477 23.909 25.3668 22.9455 25.3779 21.9632C25.3779 20.6921 25.3779 16.8948 21.5883 16.6689L21.5885 9.93566H21.8888C22.2757 9.97726 22.6624 9.85217 22.9521 9.59191C23.2417 9.33165 23.407 8.96045 23.407 8.5713C23.407 8.18186 23.2417 7.81064 22.9521 7.5504C22.6624 7.29015 22.2757 7.16533 21.8888 7.20666H21.5885V6.94532H21.8888C22.2757 6.98693 22.6624 6.86183 22.9521 6.60157C23.2417 6.34132 23.407 5.97038 23.407 5.58096C23.407 5.19154 23.2417 4.82058 22.9521 4.56034C22.6624 4.29982 22.2757 4.17499 21.8888 4.21633H21.2959V1.48733C21.2959 1.35815 21.2448 1.23415 21.1534 1.14277C21.062 1.0514 20.938 1 20.8086 1H18.6137C18.3447 1 18.1264 1.2181 18.1264 1.48733V4.21633H17.5338C17.1468 4.17499 16.7601 4.29982 16.4705 4.56034C16.1809 4.8206 16.0155 5.19154 16.0155 5.58096C16.0155 5.97038 16.1809 6.34134 16.4705 6.60157C16.7601 6.86183 17.1468 6.98693 17.5338 6.94532H17.8144V7.20666H17.5338C17.0807 7.25507 16.6815 7.52538 16.4678 7.92757C16.2543 8.33005 16.2543 8.81221 16.4678 9.21468C16.6815 9.61689 17.0808 9.88721 17.5338 9.93559H17.8144V16.6568C16.777 16.6098 15.7568 16.9377 14.9413 17.5809C14.2043 18.2281 13.8342 19.1715 13.8342 20.3841C13.8342 24.7038 13.3118 25.0002 13.2533 25.0198L13.253 25.0195C13.0765 25.0794 12.9672 25.2558 12.9919 25.4405C13.0153 25.6233 13.1633 25.7647 13.3466 25.7799C13.7213 25.7951 14.0751 25.9567 14.3318 26.2302C14.5885 26.5036 14.7275 26.8669 14.7191 27.2419C14.7346 28.1113 13.869 28.8986 13.0893 29.0664L13.0897 29.0664ZM20.8091 9.93582V23.6048H20.0919V9.93582H20.8091ZM20.8091 7.20683H20.0919V6.94549H20.8094L20.8091 7.20683ZM18.9065 1.74884H20.5167V4.1855H18.9068L18.9065 1.74884ZM16.9572 5.56946H16.9575C16.9575 5.24203 17.2226 4.97688 17.55 4.97688H21.8893C22.2164 4.97688 22.4818 5.24203 22.4818 5.56946C22.4821 5.72637 22.4187 5.87704 22.3064 5.98663C22.1976 6.10058 22.0464 6.16421 21.8893 6.16204L17.5342 6.16204C17.3751 6.16204 17.2226 6.09813 17.1111 5.98445C16.9996 5.87078 16.9387 5.71685 16.9417 5.55776L16.9572 5.56946ZM18.6101 6.94172L19.3275 6.94172V7.20306L18.5949 7.20306L18.6101 6.94172ZM16.9572 8.57533H16.9575C16.9558 8.41679 17.0192 8.26477 17.1329 8.15435C17.2438 8.04421 17.3937 7.98275 17.55 7.98275L21.8893 7.98275C22.2164 7.98275 22.4818 8.2479 22.4818 8.57533C22.4775 8.90085 22.2148 9.16383 21.8893 9.16791H17.5342C17.3751 9.16791 17.2226 9.104 17.1111 8.99032C16.9996 8.87665 16.9387 8.72272 16.9417 8.56363L16.9572 8.57533ZM19.3275 9.94759L19.3278 23.6048H18.5949L18.5949 9.93576L19.3275 9.94759ZM14.1153 25.1642C14.439 24.4819 14.6299 23.1135 14.6299 20.3845C14.569 19.5588 14.8757 18.7484 15.468 18.1699C16.1381 17.6592 16.9657 17.4 17.8074 17.4371L17.8074 23.9945C17.8074 24.0979 17.8484 24.1972 17.9216 24.2703C17.9947 24.3432 18.0937 24.3842 18.1971 24.3842H19.3041L19.3044 32.7859H17.8617C17.6466 32.7859 17.472 32.9605 17.472 33.1758V35.4956C17.472 35.7906 17.711 36.0297 18.0061 36.0297H21.3277C21.4694 36.0297 21.6053 35.9734 21.7054 35.8733C21.8055 35.7729 21.8618 35.6372 21.8618 35.4956V33.1954C21.8618 33.0921 21.8207 32.9928 21.7476 32.9197C21.6744 32.8465 21.5754 32.8054 21.4721 32.8054H20.092V24.3843H21.1991C21.3024 24.3843 21.4017 24.3433 21.4748 24.2704C21.548 24.1972 21.589 24.098 21.589 23.9946V17.4564C24.2245 17.6514 24.5987 19.8267 24.5987 21.9631V21.9634C24.5959 22.9495 24.8382 23.9209 25.3044 24.7898C24.7308 25.0525 24.2672 25.5077 23.9944 26.0764C23.7674 26.6926 23.8378 27.379 24.1853 27.936C24.4785 28.55 25.0162 29.0126 25.6669 29.2108C26.2489 29.3558 26.861 29.3191 27.4212 29.1056C27.5811 30.2752 27.8112 33.4176 26.0139 35.628C24.7118 37.2459 22.5909 38.0647 19.7019 38.0647C16.813 38.0647 14.6336 37.2421 13.3354 35.6242C11.7368 33.6749 11.7292 30.9459 11.85 29.597C12.265 29.8668 12.774 29.9503 13.2535 29.8268C14.3451 29.5967 15.5147 28.5013 15.5147 27.2419V27.2422C15.5354 26.7913 15.4106 26.3459 15.1585 25.9717C14.9064 25.5975 14.5406 25.3144 14.1153 25.1642H14.1153ZM19.6982 33.5658H21.0821V35.2304H18.2517V33.5658H19.6982Z" fill="white"/>
</svg>
