<svg width="40" height="40" viewBox="0 0 40 40" fill="none" xmlns="http://www.w3.org/2000/svg">
<path d="M33.0557 17.5794L30.3218 17.4679C30.2574 17.4672 30.1978 17.4348 30.162 17.3815L29.3906 15.1658C29.3854 15.1509 29.3797 15.1362 29.3733 15.122C29.2448 14.8475 29.0217 14.6286 28.7448 14.5053C28.4679 14.3823 28.1558 14.3629 27.8659 14.4514L25.524 15.1467C25.4561 14.8508 25.3856 14.5576 25.3125 14.2682C25.2642 14.0789 25.1156 13.9315 24.9258 13.8849C24.9192 13.865 24.9125 13.8449 24.9059 13.8252L26.3345 13.263H26.3343C26.5797 13.1671 26.7804 12.9835 26.8973 12.7475C27.014 12.5116 27.0386 12.2406 26.9662 11.9874L26.5643 10.5687L28.0838 9.22977C28.3034 9.03619 28.3247 8.70133 28.1312 8.48147C27.9376 8.26186 27.6025 8.24079 27.3829 8.43437L25.8634 9.77334C25.7138 9.90586 25.6047 10.0779 25.5481 10.2696C25.4918 10.4615 25.4904 10.665 25.5441 10.8577L25.9462 12.2763L24.5325 12.8329H24.5322C24.1264 11.8012 23.5641 10.8382 22.8648 9.97804C22.8753 9.95769 22.8883 9.93947 22.8977 9.9184H22.898C23.0397 9.61668 23.0915 9.28066 23.0468 8.95031C23.0023 8.61996 22.8632 8.30949 22.6464 8.0565L21.1565 6.29134C21.148 6.28116 21.138 6.27241 21.1293 6.26247C21.4781 5.59444 22.3958 4.23372 23.4836 4.07633C24.124 3.98428 24.7973 4.32694 25.4818 5.09743V5.09719C25.6764 5.31538 26.0108 5.33455 26.2294 5.1405C26.4478 4.94621 26.468 4.61183 26.2744 4.39292C25.3382 3.33935 24.3478 2.87912 23.3319 3.027C21.6927 3.26435 20.5817 5.05199 20.2232 5.7122C19.9337 5.63719 19.6304 5.63719 19.341 5.7122C18.9825 5.05199 17.8714 3.26435 16.2322 3.027C15.2184 2.87957 14.2264 3.33937 13.2897 4.39292C13.0962 4.61182 13.1163 4.9462 13.3349 5.1405C13.5534 5.33455 13.8877 5.31514 14.0823 5.09719C14.7662 4.32787 15.439 3.98401 16.0784 4.07585C17.1613 4.23109 18.0832 5.59372 18.4344 6.26272C18.4257 6.27242 18.416 6.28118 18.4075 6.29111L16.9175 8.05627L16.9178 8.05651C16.701 8.30948 16.5618 8.61996 16.5174 8.95033C16.4726 9.28068 16.5245 9.61672 16.6662 9.91842C16.6759 9.93924 16.6889 9.9577 16.6991 9.97805H16.6993C16 10.8382 15.4378 11.8012 15.032 12.8327L13.6182 12.2763L14.0196 10.8577H14.0198C14.0738 10.6653 14.0723 10.4615 14.016 10.2696C13.9597 10.0779 13.8504 9.90587 13.7008 9.77335L12.1813 8.43438C11.9617 8.2408 11.6266 8.26186 11.433 8.48147C11.2394 8.70131 11.2607 9.03617 11.4803 9.22977L12.9996 10.5687L12.5983 11.9874C12.5256 12.2404 12.5502 12.5116 12.6669 12.7475C12.7838 12.9832 12.9845 13.1671 13.2299 13.263L14.6585 13.8252C14.6516 13.8451 14.6452 13.8652 14.6386 13.8849H14.6384C14.4486 13.9317 14.3 14.0789 14.2517 14.2682C14.1786 14.5574 14.1083 14.8509 14.0401 15.1467L11.6983 14.4514C11.4084 14.3629 11.0963 14.382 10.8194 14.5053C10.5425 14.6286 10.3191 14.8475 10.1909 15.122C10.1845 15.1362 10.1788 15.1509 10.1736 15.1658L9.40238 17.3815H9.40214C9.36641 17.4348 9.30678 17.4672 9.24265 17.4679L6.50843 17.5794C6.22019 17.5912 5.99419 17.8311 6.00011 18.1196C6.00579 18.4081 6.24126 18.6388 6.52973 18.6391C6.53706 18.6391 6.54416 18.6388 6.5515 18.6386L9.2862 18.5271L9.28597 18.5274C9.52427 18.5179 9.75476 18.441 9.95097 18.3051C10.1469 18.1693 10.3003 17.9807 10.3928 17.7609L11.164 15.5449C11.216 15.4708 11.3105 15.4396 11.3966 15.4678L13.8151 16.186C13.4547 17.8839 13.2365 19.6091 13.1632 21.3432C13.149 21.3576 13.1329 21.3699 13.1194 21.3853L7.17102 28.1613C6.90834 28.4368 6.75476 28.7984 6.73961 29.1787C6.72423 29.5592 6.848 29.932 7.08772 30.2277L8.47709 34.0391L6.66674 36.0426V36.0423C6.57255 36.1467 6.52357 36.2842 6.53067 36.4245C6.53777 36.5648 6.60024 36.6969 6.7046 36.7911C6.92303 36.9839 7.25527 36.9669 7.45309 36.7532L9.47759 34.5129L9.47783 34.5127C9.60941 34.3671 9.64987 34.1603 9.58243 33.9757L8.3831 30.6856V30.6858C8.72245 30.6298 9.03598 30.4705 9.28164 30.2296L13.6728 25.9957C13.8683 27.5652 14.2292 29.1097 14.7491 30.6035C14.7557 30.7022 14.79 30.7971 14.848 30.8775C16.0054 33.9421 17.7708 35.8677 19.7821 35.8677C21.7945 35.8677 23.5606 33.9402 24.7181 30.8726C25.2943 29.2972 25.6881 27.6608 25.8913 25.9958L30.2825 30.2296C30.5282 30.4705 30.8417 30.6298 31.1811 30.6859L29.9817 33.976V33.9757C29.9143 34.1603 29.9548 34.3669 30.0866 34.5127L32.1111 36.753V36.7532C32.3089 36.9671 32.6412 36.984 32.8596 36.7911C32.9639 36.6969 33.0264 36.5649 33.0335 36.4245C33.0406 36.2842 32.9916 36.1467 32.8974 36.0423L31.0871 34.0389L32.4764 30.227C32.7162 29.9314 32.8397 29.5587 32.8245 29.1784C32.8092 28.7984 32.6558 28.4368 32.3931 28.1613L26.4448 21.3853C26.4313 21.3699 26.4152 21.3576 26.401 21.3432C26.3276 19.609 26.1095 17.8838 25.749 16.1859L28.1676 15.4677C28.2537 15.4393 28.3481 15.4706 28.4002 15.5449L29.1714 17.7608C29.2627 17.9814 29.4158 18.1712 29.612 18.307C29.8084 18.4428 30.0399 18.5195 30.2784 18.5273L33.0126 18.6388C33.02 18.639 33.0271 18.6393 33.0344 18.6393V18.639C33.3229 18.6388 33.5583 18.4081 33.564 18.1196C33.5699 17.8311 33.3439 17.5912 33.0557 17.5793L33.0557 17.5794ZM8.54574 29.4666C8.39666 29.6396 8.14818 29.6869 7.94608 29.5809C7.69784 29.4094 7.79983 29.0527 7.96785 28.861L13.2015 22.899C13.2366 23.4146 13.34 23.9234 13.5092 24.4119C13.5156 24.4954 13.5222 24.5787 13.5293 24.6615L8.54574 29.4666ZM17.7281 8.74053L17.9692 8.4549C18.1928 8.62931 18.5144 8.59571 18.6974 8.37894C18.8803 8.16217 18.8595 7.83963 18.6498 7.64839L19.2178 6.97539H19.218C19.3609 6.814 19.5663 6.72147 19.7822 6.72147C19.998 6.72147 20.2034 6.814 20.3463 6.97539L20.8875 7.61671H20.8878C20.7718 7.70403 20.6968 7.83537 20.6807 7.97972C20.6646 8.12384 20.7084 8.26843 20.8021 8.37942C20.8958 8.4904 21.0309 8.55809 21.1758 8.56637C21.3208 8.57441 21.4628 8.52282 21.5684 8.4232L21.8363 8.74054C22.0062 8.95446 22.0376 9.2472 21.917 9.4926C21.7963 9.73776 21.5452 9.89158 21.2721 9.88779H18.2922C18.0198 9.88992 17.7701 9.73563 17.6499 9.49117C17.5297 9.24671 17.56 8.95493 17.728 8.74051L17.7281 8.74053ZM17.4346 10.7308V10.7305C17.698 10.8732 17.9929 10.9478 18.2922 10.948H21.2721C21.5714 10.9478 21.8663 10.8732 22.1297 10.7305C22.8862 11.7237 23.4672 12.839 23.8468 14.0284L19.7821 14.7469L15.7175 14.0284C16.0971 12.839 16.678 11.7237 17.4346 10.7305V10.7308ZM14.5577 24.1762C14.5083 23.4937 14.4813 22.7956 14.4813 22.0851C14.4661 19.709 14.7743 17.3416 15.3966 15.0486L19.125 15.7074C17.5562 21.6004 15.4612 24.5808 14.8005 24.4687C14.6817 24.4103 14.5934 24.3038 14.5577 24.176L14.5577 24.1762ZM19.7821 34.8082C18.4704 34.8082 17.2526 33.5914 16.3151 31.6154C17.3795 31.9819 18.4976 32.1675 19.6231 32.1642C20.8712 32.158 22.1098 31.9448 23.288 31.5338C22.3457 33.5585 21.1121 34.8082 19.7821 34.8082V34.8082ZM23.8321 30.1872C19.6499 31.9983 16.5278 30.6354 15.7451 30.223C15.455 29.3895 15.22 28.5376 15.0413 27.6733C16.501 28.1999 18.042 28.464 19.5937 28.4536C21.2753 28.4465 22.9446 28.1644 24.5353 27.618C24.3574 28.4888 24.1226 29.3471 23.8323 30.1872L23.8321 30.1872ZM24.7544 26.4127C19.4423 28.4226 15.4212 26.7149 14.8123 26.4283C14.7657 26.1304 14.7248 25.8265 14.6876 25.5194C14.7305 25.5255 14.7738 25.5293 14.8168 25.5307C16.5713 25.5307 18.4908 21.5806 19.7819 17.2765C21.0733 21.5809 22.9925 25.5307 24.7472 25.5307H24.7475C24.7905 25.5293 24.8338 25.5255 24.8767 25.5194C24.84 25.8211 24.8002 26.12 24.7546 26.4127L24.7544 26.4127ZM25.0064 24.1767C24.9626 24.2673 24.8798 24.4486 24.7636 24.4694C24.0946 24.5825 22.0079 21.6003 20.4393 15.7081L24.1677 15.049C24.7901 17.3422 25.0982 19.7096 25.083 22.0856C25.083 22.796 25.0561 23.4941 25.0066 24.1768L25.0064 24.1767ZM26.055 24.4126L26.0552 24.4124C26.2244 23.9242 26.3278 23.4151 26.3629 22.8995L31.5965 28.8615C31.7958 29.0567 31.8055 29.3743 31.6183 29.5812C31.4704 29.7605 31.1434 29.5873 31.0187 29.4671L26.0351 24.662C26.042 24.5792 26.0488 24.4959 26.0552 24.4124L26.055 24.4126Z" fill="white"/>
</svg>
