<svg width="40" height="40" viewBox="0 0 40 40" fill="none" xmlns="http://www.w3.org/2000/svg">
<path fill-rule="evenodd" clip-rule="evenodd" d="M14.916 30.655V32.8178C14.916 33.7734 14.1415 34.5479 13.1859 34.5479H12.7638C11.8086 34.5479 11.0337 33.7734 11.0337 32.8178V23.4184C11.0337 23.1798 11.2278 22.9861 11.4664 22.9861C11.705 22.9861 11.8987 23.1798 11.8987 23.4184V32.8178C11.8987 33.2954 12.2862 33.6829 12.7637 33.6829H13.1859C13.6634 33.6829 14.0509 33.2954 14.0509 32.8178V30.655C14.0509 30.4164 14.2446 30.2223 14.4836 30.2223C14.7222 30.2223 14.9159 30.4164 14.9159 30.655H14.916Z" fill="white"/>
<path fill-rule="evenodd" clip-rule="evenodd" d="M8.88358 16.6163V32.8172C8.88358 33.2947 9.27104 33.6822 9.74861 33.6822H10.1703C10.6479 33.6822 11.0354 33.2947 11.0354 32.8172V23.4177C11.0354 23.1792 11.2295 22.9854 11.4681 22.9854C11.7067 22.9854 11.9004 23.1792 11.9004 23.4177V32.8172C11.9004 33.7727 11.1259 34.5473 10.1703 34.5473H9.74856C8.79302 34.5473 8.01846 33.7728 8.01846 32.8172V16.6163C8.01846 16.3773 8.21219 16.1836 8.45076 16.1836C8.68975 16.1836 8.88349 16.3773 8.88349 16.6163H8.88358Z" fill="white"/>
<path fill-rule="evenodd" clip-rule="evenodd" d="M7.34498 25.7982H6.72994C5.77439 25.7982 4.99983 25.0233 4.99983 24.0678V16.351C4.99983 14.5935 6.42663 13.1667 8.18456 13.1667H14.7486C15.1661 13.1667 15.5654 13.2471 15.9313 13.3939C16.153 13.4827 16.2608 13.7348 16.172 13.9561C16.0832 14.1777 15.8311 14.2856 15.6094 14.1968C15.3434 14.0902 15.0528 14.0318 14.7486 14.0318H8.18458C6.9042 14.0318 5.86486 15.0711 5.86486 16.3511V24.0678C5.86486 24.5458 6.25232 24.9333 6.72988 24.9333H7.34492C7.58349 24.9333 7.77723 25.127 7.77723 25.3656C7.77723 25.6042 7.58349 25.7983 7.34492 25.7983L7.34498 25.7982Z" fill="white"/>
<path fill-rule="evenodd" clip-rule="evenodd" d="M11.4665 6C13.3704 6 14.916 7.54602 14.916 9.44992C14.916 11.3538 13.3704 12.8994 11.4665 12.8994C9.56262 12.8994 8.01704 11.3538 8.01704 9.44992C8.01704 7.54602 9.56262 6 11.4665 6ZM11.4665 6.86545C10.0397 6.86545 8.88204 8.02315 8.88204 9.44994C8.88204 10.8763 10.0397 12.0344 11.4665 12.0344C12.8929 12.0344 14.051 10.8763 14.051 9.44994C14.051 8.02315 12.8929 6.86545 11.4665 6.86545Z" fill="white"/>
<path fill-rule="evenodd" clip-rule="evenodd" d="M26.14 30.655V32.8178C26.14 33.2954 26.5275 33.6829 27.005 33.6829H27.4272C27.9047 33.6829 28.2922 33.2954 28.2922 32.8178V23.4184C28.2922 23.1798 28.4859 22.9861 28.7245 22.9861C28.9631 22.9861 29.1572 23.1798 29.1572 23.4184V32.8178C29.1572 33.7734 28.3823 34.5479 27.4271 34.5479H27.005C26.0494 34.5479 25.2749 33.7734 25.2749 32.8178V30.655C25.2749 30.4164 25.4686 30.2223 25.7072 30.2223C25.9462 30.2223 26.1399 30.4164 26.1399 30.655H26.14Z" fill="white"/>
<path fill-rule="evenodd" clip-rule="evenodd" d="M32.1748 16.6163V32.8172C32.1748 33.7727 31.4003 34.5473 30.4447 34.5473H30.023C29.0674 34.5473 28.2929 33.7728 28.2929 32.8172V23.4177C28.2929 23.1792 28.4866 22.9854 28.7252 22.9854C28.9637 22.9854 29.1579 23.1792 29.1579 23.4177V32.8172C29.1579 33.2947 29.5454 33.6822 30.0229 33.6822H30.4447C30.9222 33.6822 31.3097 33.2947 31.3097 32.8172V16.6163C31.3097 16.3773 31.5034 16.1836 31.7424 16.1836C31.981 16.1836 32.1747 16.3773 32.1747 16.6163H32.1748Z" fill="white"/>
<path fill-rule="evenodd" clip-rule="evenodd" d="M32.8467 24.9328H33.4614C33.9394 24.9328 34.3264 24.5454 34.3264 24.0678V16.3506C34.3264 15.0706 33.2871 14.0313 32.0071 14.0313H25.4426C25.1389 14.0313 24.8479 14.0897 24.5818 14.1963C24.3602 14.2851 24.1085 14.1772 24.0192 13.9556C23.9308 13.7343 24.0387 13.4822 24.2604 13.3934C24.6258 13.2466 25.0251 13.1663 25.4426 13.1663H32.0071C33.7646 13.1663 35.1914 14.5931 35.1914 16.3506V24.0673C35.1914 25.0229 34.4169 25.7977 33.4613 25.7977H32.8467C32.6077 25.7977 32.414 25.6036 32.414 25.365C32.414 25.1264 32.6077 24.9327 32.8467 24.9327L32.8467 24.9328Z" fill="white"/>
<path fill-rule="evenodd" clip-rule="evenodd" d="M28.7253 6C30.6292 6 32.1748 7.54602 32.1748 9.44992C32.1748 11.3538 30.6292 12.8994 28.7253 12.8994C26.8214 12.8994 25.2758 11.3538 25.2758 9.44992C25.2758 7.54602 26.8214 6 28.7253 6ZM28.7253 6.86545C27.299 6.86545 26.1408 8.02315 26.1408 9.44994C26.1408 10.8763 27.299 12.0344 28.7253 12.0344C30.1521 12.0344 31.3098 10.8763 31.3098 9.44994C31.3098 8.02315 30.1521 6.86545 28.7253 6.86545Z" fill="white"/>
<path fill-rule="evenodd" clip-rule="evenodd" d="M23.5234 20.0763V36.2771C23.5234 37.2327 22.7489 38.0072 21.7933 38.0072H21.3716C20.4161 38.0072 19.6415 37.2327 19.6415 36.2771V26.8777C19.6415 26.6391 19.8352 26.4454 20.0738 26.4454C20.3124 26.4454 20.5061 26.6391 20.5061 26.8777V36.2771C20.5061 36.7547 20.8936 37.1422 21.3716 37.1422H21.7933C22.2713 37.1422 22.6583 36.7547 22.6583 36.2771V20.0763C22.6583 19.8373 22.8521 19.6436 23.091 19.6436C23.3296 19.6436 23.5234 19.8373 23.5234 20.0763H23.5234Z" fill="white"/>
<path fill-rule="evenodd" clip-rule="evenodd" d="M17.491 20.0763V36.2771C17.491 36.7547 17.8785 37.1422 18.356 37.1422H18.7778C19.2553 37.1422 19.6432 36.7547 19.6432 36.2771V26.8777C19.6432 26.6391 19.8369 26.4454 20.0755 26.4454C20.3141 26.4454 20.5078 26.6391 20.5078 26.8777V36.2771C20.5078 37.2327 19.7337 38.0072 18.7777 38.0072H18.356C17.4004 38.0072 16.6259 37.2327 16.6259 36.2771V20.0763C16.6259 19.8373 16.82 19.6436 17.0586 19.6436C17.2972 19.6436 17.4909 19.8373 17.4909 20.0763H17.491Z" fill="white"/>
<path fill-rule="evenodd" clip-rule="evenodd" d="M15.9527 29.2578H15.3381C14.3825 29.2578 13.608 28.4833 13.608 27.5277V19.8109C13.608 18.053 15.0347 16.6262 16.7927 16.6262H23.3567C25.1142 16.6262 26.541 18.053 26.541 19.8109V27.5277C26.541 28.4833 25.7665 29.2578 24.8109 29.2578H24.4158C24.1773 29.2578 23.9835 29.0641 23.9835 28.8251C23.9835 28.5865 24.1773 28.3928 24.4158 28.3928H24.8109C25.2885 28.3928 25.6759 28.0053 25.6759 27.5278V19.811C25.6759 18.5306 24.6366 17.4913 23.3566 17.4913H16.7926C15.5122 17.4913 14.4729 18.5306 14.4729 19.811V27.5278C14.4729 28.0053 14.8603 28.3928 15.3379 28.3928H15.9525C16.1915 28.3928 16.3852 28.5865 16.3852 28.8251C16.3852 29.0641 16.1915 29.2578 15.9525 29.2578H15.9527Z" fill="white"/>
<path fill-rule="evenodd" clip-rule="evenodd" d="M20.0739 9.46094C21.9779 9.46094 23.5234 11.0065 23.5234 12.9104C23.5234 14.8143 21.9779 16.3599 20.0739 16.3599C18.17 16.3599 16.6245 14.8143 16.6245 12.9104C16.6245 11.0065 18.17 9.46094 20.0739 9.46094ZM20.0739 10.326C18.6476 10.326 17.4895 11.4841 17.4895 12.9105C17.4895 14.3368 18.6476 15.4949 20.0739 15.4949C21.5003 15.4949 22.6589 14.3368 22.6589 12.9105C22.6589 11.4841 21.5003 10.326 20.0739 10.326Z" fill="white"/>
</svg>
