<svg width="40" height="40" viewBox="0 0 40 40" fill="none" xmlns="http://www.w3.org/2000/svg">
<path fill-rule="evenodd" clip-rule="evenodd" d="M37.6405 9.66748C39.2131 9.81484 40 10.3218 40 11.1893C40 12.8062 39.2057 14.2763 37.6187 15.5994C36.8985 16.1722 35.2447 17.2308 32.6573 18.7741C30.423 20.0972 28.8208 21.3019 27.8503 22.39C26.425 23.993 25.7114 25.8378 25.7114 27.9251L25.6452 30.3283C25.7194 31.1081 25.947 31.6151 26.3294 31.8501C26.7705 31.8941 27.44 31.8501 28.3363 31.7172L28.4234 31.7178C29.4527 31.7766 29.9815 32.5121 30.011 33.9229C30.011 34.0259 29.9603 34.1287 29.8566 34.2321C29.7542 34.3345 29.6441 34.3714 29.5259 34.3422C28.8934 34.2973 28.2471 34.3277 27.5854 34.4299C26.0273 34.6649 24.9909 34.783 24.4768 34.783C23.7557 34.783 23.0355 34.0112 22.3157 32.4678C21.7128 31.1739 21.4113 30.1298 21.4113 29.3359V29.271L20.6838 30.108C19.4056 31.4455 18.1117 32.1149 16.8034 32.1149C16.5389 32.1149 16.2442 32.0857 15.9215 32.0273C16.0092 32.3943 16.0535 32.7474 16.0535 33.0849C16.0535 34.1287 15.6575 35.0334 14.8633 35.7972L14.7971 35.8858C13.9152 36.6792 12.8643 37.076 11.644 37.076C10.8506 37.076 9.90982 36.6124 8.82241 35.6867C7.39407 35.7169 6.34328 35.7098 5.66711 35.6655C4.10899 35.6206 2.71176 34.3787 1.47755 31.9386C0.492203 30.0283 0 28.4329 0 27.1541C0 26.4339 0.154426 25.794 0.462671 25.2358C0.889045 24.427 1.5797 24.0231 2.53575 24.0231C3.03534 24.0231 3.54969 24.1256 4.07946 24.3314L4.27788 24.0228L3.72661 23.4276C3.02092 22.6333 2.6681 21.8325 2.6681 21.0235C2.6681 19.6272 3.56485 18.6351 5.35828 18.0466C6.1818 17.782 7.15943 17.6134 8.29087 17.5393C9.59918 15.6289 10.8863 14.4602 12.1497 14.0335C14.5606 13.1955 17.56 12.2548 21.1464 11.2111L27.7176 9.29272C27.9234 8.64579 28.1215 8.20468 28.3129 7.9696C28.8417 7.32267 29.7022 7 30.893 7C31.9663 7 32.8267 7.44821 33.4731 8.34462C33.9736 9.08015 34.5024 9.49118 35.0617 9.58009C35.4428 9.62377 36.3033 9.653 37.6408 9.66746L37.6405 9.66748ZM30.8924 7.85988C29.9812 7.85988 29.3416 8.08844 28.974 8.54404C28.8267 8.74984 28.6658 9.15407 28.4889 9.75667C28.4449 9.91756 28.3415 10.0212 28.1797 10.0649L21.3891 12.0715C18.0218 13.0411 15.0384 13.9674 12.4358 14.8494C11.304 15.2462 10.1135 16.3712 8.86362 18.2231C8.49569 18.7664 8.09178 19.4069 7.65099 20.1415C6.44536 22.2589 5.7766 23.3974 5.64406 23.5592L4.89499 24.6845C5.68834 25.0813 6.60045 25.6769 7.62888 26.4702C9.40758 27.8964 10.5695 29.1094 11.1127 30.1085C11.1715 30.2267 11.186 30.3371 11.1567 30.4392C11.1127 30.5574 11.0395 30.645 10.9362 30.7047C10.8189 30.7635 10.7085 30.7779 10.6055 30.7487C10.4883 30.7047 10.3997 30.6306 10.3409 30.5281C9.84131 29.6314 8.76033 28.5064 7.09944 27.1544C5.96769 26.2576 4.94603 25.6187 4.03392 25.236C3.47558 25.001 2.97628 24.8829 2.5355 24.8829C1.93255 24.8829 1.49171 25.1404 1.21238 25.6547C0.991807 26.0811 0.881679 26.581 0.881679 27.1541C0.881679 28.3007 1.33728 29.7631 2.24874 31.5418C3.30726 33.6592 4.45381 34.7537 5.68834 34.8279L7.91585 34.8276C7.63683 34.563 7.18124 34.085 6.54879 33.3944C4.44618 30.807 3.35128 29.4768 3.26268 29.4026C3.08703 29.182 3.10179 28.9694 3.3076 28.7636C3.52817 28.5873 3.74074 28.6018 3.94654 28.8076L7.18799 32.8209C8.05553 33.7472 8.75414 34.4455 9.28297 34.9159C10.2535 35.7689 11.0399 36.1947 11.6425 36.1947C12.6278 36.1947 13.4581 35.9009 14.1343 35.3127L14.2004 35.2466C14.8474 34.6292 15.17 33.9091 15.17 33.0855C15.17 32.6444 15.0676 32.1593 14.8618 31.6307V31.6083C14.5828 30.8737 14.1124 30.0939 13.451 29.2712C12.6275 28.2274 11.6723 27.3012 10.5846 26.4924C10.4815 26.4192 10.4228 26.3236 10.4083 26.2057C10.3791 26.0885 10.4003 25.9852 10.4744 25.8975C10.5477 25.7944 10.6501 25.7357 10.7827 25.7212C10.9008 25.692 11.0033 25.7132 11.0909 25.7874C12.2233 26.6109 13.2372 27.5876 14.134 28.7199C14.8102 29.5875 15.2962 30.3738 15.5897 31.0795C16.104 31.1819 16.5089 31.2339 16.8023 31.2339C17.8608 31.2339 18.9412 30.6602 20.0437 29.5139C20.352 29.2057 20.9337 28.4701 21.7852 27.3089L22.2709 25.3459C22.8585 22.9645 23.16 21.7515 23.1745 21.7076C23.2037 21.5895 23.2631 21.4941 23.3507 21.4209C23.4538 21.3621 23.5642 21.3397 23.6814 21.3547C23.7996 21.384 23.8949 21.4433 23.9682 21.531C24.0414 21.6334 24.0638 21.7368 24.0343 21.8392C23.9602 22.2072 23.6519 23.4423 23.1074 25.5437L22.6016 27.595C22.3958 28.5357 22.2925 29.1158 22.2925 29.3364C22.2925 30.0126 22.5647 30.9315 23.1083 32.0927C23.447 32.8283 23.7697 33.3507 24.0788 33.6589C24.2262 33.8352 24.3578 33.9235 24.4757 33.9235C24.9313 33.9235 25.9237 33.8133 27.4526 33.5928C28.0112 33.5048 28.5554 33.4605 29.0846 33.4605C29.0114 32.9163 28.7828 32.6225 28.4004 32.5785C27.3865 32.7105 26.6294 32.7474 26.1301 32.6887L25.9975 32.6444C25.2774 32.3066 24.8805 31.5418 24.8074 30.3516L24.8513 27.926C24.8513 25.6333 25.6376 23.5891 27.2108 21.7959C28.2401 20.6641 29.901 19.4075 32.1947 18.0256C34.8994 16.4226 36.5236 15.3942 37.0675 14.9386C38.45 13.762 39.1406 12.5129 39.1406 11.1898C39.1406 10.8951 38.6185 10.6748 37.5744 10.5284C36.2661 10.5284 35.3918 10.4986 34.951 10.4398C34.1567 10.3374 33.4292 9.80735 32.7675 8.85217C32.282 8.19047 31.6575 7.85973 30.8922 7.85973L30.8924 7.85988ZM3.54948 21.0234C3.54948 21.6408 3.82172 22.2508 4.36527 22.8534L4.80641 23.2946L4.93931 23.1183L6.90135 19.7006C7.26927 19.0681 7.51875 18.6642 7.65165 18.4879C6.97549 18.5467 6.29963 18.6722 5.62283 18.8629C4.24064 19.3182 3.54943 20.039 3.54943 21.0234L3.54948 21.0234Z" fill="white"/>
</svg>
