<svg width="40" height="40" viewBox="0 0 40 40" fill="none" xmlns="http://www.w3.org/2000/svg">
<path d="M30.8954 27.9395C29.9911 27.9395 29.1236 28.2987 28.484 28.9381C27.8446 29.5778 27.4854 30.4453 27.4854 31.3495C27.4854 32.2537 27.8446 33.1212 28.484 33.7608C29.1237 34.4002 29.9912 34.7595 30.8954 34.7595C31.7996 34.7595 32.6671 34.4002 33.3067 33.7608C33.9461 33.1212 34.3054 32.2537 34.3054 31.3495C34.3037 30.4455 33.9439 29.5792 33.3048 28.94C32.6657 28.3009 31.7994 27.9411 30.8954 27.9395ZM30.8954 33.5195C30.3199 33.5195 29.768 33.2908 29.3609 32.884C28.954 32.4768 28.7254 31.9249 28.7254 31.3495C28.7254 30.774 28.954 30.2221 29.3609 29.815C29.768 29.4081 30.3199 29.1795 30.8954 29.1795C31.4708 29.1795 32.0227 29.4081 32.4298 29.815C32.8367 30.2221 33.0654 30.774 33.0654 31.3495C33.0654 31.9249 32.8367 32.4768 32.4298 32.884C32.0227 33.2908 31.4708 33.5195 30.8954 33.5195V33.5195Z" fill="white"/>
<path d="M37.0963 31.6592C36.6031 31.6592 36.1297 31.8551 35.781 32.2039C35.4324 32.5526 35.2363 33.026 35.2363 33.5191C35.2363 34.0123 35.4323 34.4857 35.781 34.8344C36.1298 35.1831 36.6031 35.3791 37.0963 35.3791C37.5895 35.3791 38.0629 35.1832 38.4116 34.8344C38.7602 34.4856 38.9563 34.0123 38.9563 33.5191C38.9563 33.026 38.7603 32.5526 38.4116 32.2039C38.0628 31.8552 37.5895 31.6592 37.0963 31.6592ZM37.0963 34.1392C36.8455 34.1392 36.6194 33.9881 36.5236 33.7564C36.4276 33.5247 36.4805 33.2582 36.6579 33.0808C36.8353 32.9033 37.1018 32.8505 37.3335 32.9465C37.5652 33.0423 37.7163 33.2684 37.7163 33.5192C37.7163 33.6836 37.651 33.8414 37.5347 33.9576C37.4185 34.0739 37.2607 34.1392 37.0963 34.1392Z" fill="white"/>
<path d="M22.5322 13.7222C21.5451 13.5919 20.5454 13.8423 19.7361 14.4228C18.9268 13.8423 17.927 13.5918 16.94 13.7222C14.9065 14.0383 13.8834 16.0721 13.7221 17.2748C13.375 19.8168 15.8301 22.4642 19.5562 23.5739C19.6738 23.6071 19.7984 23.6071 19.916 23.5739C23.636 22.464 26.116 19.8168 25.7501 17.2748C25.589 16.0718 24.566 14.0383 22.5322 13.7222H22.5322ZM19.7361 22.3278C16.3385 21.2614 14.7326 19.0294 14.9496 17.4423C15.0736 16.5248 15.8362 15.1483 17.1321 14.9623C17.2414 14.9532 17.3513 14.9532 17.4606 14.9623C18.1457 15.0044 18.7983 15.2676 19.3206 15.7124C19.5506 15.9039 19.8844 15.9039 20.1142 15.7124C20.7206 15.1804 21.5178 14.9183 22.3215 14.9869C23.6174 15.1915 24.38 16.5679 24.504 17.467C24.7395 19.0294 23.1336 21.2614 19.7361 22.3279L19.7361 22.3278Z" fill="white"/>
<path d="M15.551 29.7986C13.0801 29.7983 10.7784 28.5445 9.43792 26.4691C8.95908 26.6233 8.45895 26.7005 7.95601 26.6986C6.38 26.6972 4.89809 25.9469 3.96419 24.6773C3.03057 23.4076 2.75572 21.7696 3.22408 20.2648C3.69268 18.7596 4.84828 17.5669 6.33791 17.0515C5.39133 15.4658 5.24324 13.528 5.93796 11.8169C6.63241 10.1059 8.0894 8.81959 9.8733 8.34244C11.6572 7.86526 13.5618 8.25249 15.0179 9.38815C15.4876 7.85062 16.5364 6.55577 17.9424 5.77663C19.3488 4.99776 21.0026 4.79511 22.5553 5.21226C24.1078 5.6291 25.4378 6.63302 26.2646 8.01169C27.0285 7.65906 27.86 7.47722 28.7012 7.4786C30.2672 7.47362 31.7707 8.09196 32.8803 9.19689C33.9899 10.3018 34.6144 11.8025 34.616 13.3686C34.6172 14.4154 34.3368 15.4434 33.8039 16.3446C34.7323 17.4094 35.2413 18.7759 35.236 20.1886C35.2344 21.7503 34.6133 23.2474 33.5092 24.3518C32.4048 25.4559 30.9077 26.077 29.346 26.0787H29.0731C28.3123 27.6115 26.8901 28.7106 25.215 29.0602C23.5396 29.4095 21.7967 28.9711 20.4861 27.8706C19.1398 29.1072 17.3792 29.795 15.5511 29.7987L15.551 29.7986ZM9.70441 25.0927C9.92944 25.0943 10.1356 25.2178 10.2439 25.4151C11.1803 27.1304 12.8885 28.2863 14.8288 28.5176C16.7691 28.7493 18.7013 28.0274 20.015 26.5807C20.1307 26.4525 20.2948 26.3783 20.4675 26.3761C20.6383 26.3816 20.8005 26.4525 20.92 26.5746C21.9398 27.6535 23.4399 28.1365 24.8975 27.8552C26.355 27.5738 27.5677 26.5668 28.1121 25.1856C28.2148 24.9224 28.4824 24.7616 28.7631 24.7951C28.9563 24.8222 29.1508 24.8366 29.346 24.8385C30.5857 24.8377 31.7737 24.3417 32.6461 23.461C33.5183 22.5802 34.0029 21.3876 33.9921 20.1481C33.9816 18.9084 33.4762 17.7246 32.5885 16.8591C32.3676 16.646 32.3361 16.3033 32.514 16.0531C33.0762 15.2709 33.3776 14.3317 33.3759 13.3685C33.3773 12.2683 32.9879 11.2032 32.2774 10.3632C31.5666 9.52336 30.581 8.96288 29.4954 8.78219C28.4101 8.60117 27.296 8.81153 26.3514 9.37562C26.2011 9.46613 26.0198 9.48883 25.852 9.4379C25.684 9.38697 25.5456 9.26768 25.4709 9.10908C24.8645 7.77221 23.697 6.77242 22.2826 6.37916C20.8682 5.98584 19.3523 6.23938 18.1427 7.0714C16.9332 7.90341 16.1543 9.22865 16.0158 10.6901C15.9901 10.9375 15.8188 11.1457 15.581 11.2187C15.3432 11.2915 15.0847 11.2154 14.9247 11.025C14.142 10.0385 12.9927 9.41185 11.7401 9.28785C10.487 9.16385 9.23738 9.55329 8.27662 10.367C7.31587 11.1807 6.72634 12.3494 6.64251 13.6057C6.55864 14.862 6.98766 16.0984 7.83185 17.0326C7.98242 17.2044 8.02616 17.4452 7.94589 17.6592C7.86535 17.8732 7.67381 18.0254 7.44739 18.0556C6.19549 18.2341 5.11987 19.0362 4.59177 20.1852C4.06367 21.3344 4.15556 22.6732 4.8359 23.7394C5.51596 24.8056 6.69123 25.453 7.95582 25.4585C8.47009 25.4616 8.97935 25.3558 9.44991 25.1485C9.52991 25.1123 9.61654 25.0932 9.70428 25.0926L9.70441 25.0927Z" fill="white"/>
</svg>
