<svg width="40" height="40" viewBox="0 0 40 40" fill="none" xmlns="http://www.w3.org/2000/svg">
<path d="M1 27.1813C1 27.5484 1.32136 27.8695 1.68817 27.8695H36.8835C37.5717 27.8695 38.2141 27.5481 38.6273 26.9975C39.0402 26.447 39.1779 25.7585 38.9945 25.1161C38.4897 23.3723 37.2967 21.6746 35.6906 20.1603C35.6448 20.0684 35.5072 19.9769 35.4153 19.885C33.8091 18.4165 31.7904 17.0401 29.5418 15.8469C29.4499 15.8011 29.4041 15.755 29.3123 15.7092C23.8059 12.8183 17.1522 10.9829 12.38 10.9829H12.2423L11.2328 8.459C11.1409 8.18373 10.8657 8 10.5904 8L6.73598 8.00064C6.50648 8.00064 6.27698 8.13828 6.13935 8.32201C6.00171 8.50541 6.00171 8.78101 6.09358 8.96441L6.87362 10.9374H1.6883C1.32116 10.9374 1.00012 11.2588 1.00012 11.6256C1.00012 11.9927 1.32149 12.3137 1.6883 12.3137H12.2882C16.0511 12.3137 21.2362 13.5528 25.9167 15.6176L19.4005 15.6179C19.171 15.6179 18.9875 15.7098 18.8499 15.8932C18.7123 16.0766 18.6665 16.3061 18.758 16.4898L19.951 20.6195C20.0429 20.9409 20.3182 21.1243 20.6392 21.1243H34.8183C36.195 22.4548 37.2045 23.9234 37.6632 25.4377C37.709 25.6672 37.6632 25.8967 37.5256 26.0801C37.3879 26.2635 37.1584 26.4015 36.9289 26.4015L1.68851 26.4012C1.32137 26.493 1.00034 26.8141 1.00034 27.1812L1 27.1813ZM8.43362 11.0291L7.79122 9.46898H10.0398L10.6822 11.0291H8.43362ZM21.0984 19.8394L20.3184 17.1321H28.8534C30.4135 17.9579 31.882 18.8759 33.1207 19.8394H21.0984Z" fill="white"/>
<path d="M13.2061 21.262H16.969C17.1985 21.262 17.3819 21.1701 17.5196 20.9867C17.6572 20.8033 17.703 20.5738 17.6114 20.3901L16.4184 16.2604C16.3266 15.939 16.0513 15.7556 15.7303 15.7556H11.9674C11.7379 15.7556 11.5545 15.8475 11.4168 16.0309C11.2792 16.2143 11.2334 16.4438 11.325 16.6275L12.5179 20.7572C12.6098 21.0325 12.8851 21.262 13.2061 21.262V21.262ZM15.2713 17.132L16.0513 19.8392H13.757L12.9769 17.132H15.2713Z" fill="white"/>
<path d="M6.3692 21.262H10.1321C10.3616 21.262 10.545 21.1701 10.6826 20.9867C10.8203 20.8033 10.8661 20.5738 10.7745 20.3901L9.58153 16.2604C9.48967 15.939 9.21439 15.7556 8.89336 15.7556H5.13045C4.90095 15.7556 4.71754 15.8475 4.57991 16.0309C4.44227 16.2143 4.3965 16.4438 4.48804 16.6275L5.68102 20.7572C5.77257 21.0325 6.04784 21.262 6.3692 21.262ZM8.38831 17.132L9.16835 19.8392H6.874L6.09396 17.132H8.38831Z" fill="white"/>
<path d="M38.3979 31.3113H1.87177C1.50463 31.3113 1.18359 31.6326 1.18359 31.9995C1.18359 32.3666 1.50496 32.6876 1.87177 32.6876H38.3979C38.765 32.6876 39.086 32.3663 39.086 31.9995C39.086 31.6323 38.765 31.3113 38.3979 31.3113Z" fill="white"/>
</svg>
