<svg width="40" height="40" viewBox="0 0 40 40" fill="none" xmlns="http://www.w3.org/2000/svg">
<path d="M31.8925 19.3815V16.7486C31.8925 10.2596 26.6325 5 20.1438 5C13.6552 5 8.3952 10.26 8.3952 16.7486V19.0785C6.46975 19.3968 5 21.0645 5 23.0799V25.1325C5 30.5398 9.38351 34.9229 14.7903 34.9229H17.9126C19.217 35.3376 20.6052 35.565 22.0471 35.565H31.8927V34.7868C32.4201 34.8749 32.9615 34.9231 33.5137 34.9231L35.9497 34.9228V25.1325C35.9497 22.479 34.2557 20.2265 31.8929 19.3815L31.8925 19.3815ZM14.7903 33.8272C9.99612 33.8272 6.09546 29.9268 6.09546 25.1324V23.0798C6.09546 21.6743 7.07965 20.4966 8.39447 20.1936V21.913C8.39447 27.0317 11.2132 31.4896 15.3821 33.8268L14.7903 33.8272ZM22.0475 34.4696C15.1237 34.4696 9.49134 28.837 9.49134 21.9134V16.7491C9.49134 10.8753 14.2704 6.09602 20.1445 6.09602C26.0183 6.09602 30.7976 10.8746 30.7976 16.7491V19.1023C30.484 19.0529 30.1648 19.0198 29.8373 19.0198H27.7847C25.5421 19.0198 23.7243 20.8376 23.7243 23.0802V25.1328C23.7243 29.5113 26.5985 33.2172 30.5627 34.4693H22.0479L22.0475 34.4696ZM34.8536 33.8272H33.5139C28.7198 33.8272 24.8191 29.9268 24.8191 25.1324V23.0798C24.8191 21.4453 26.149 20.1154 27.7835 20.1154H29.8361C32.6026 20.1154 34.8531 22.3661 34.8531 25.1324V33.8272H34.8536Z" fill="white"/>
<path d="M28.72 14.4248C28.72 11.7511 26.5447 9.57593 23.8711 9.57593C22.3803 9.57593 21.0357 10.2485 20.1429 11.3213C19.2501 10.2488 17.9056 9.57593 16.4148 9.57593C13.7411 9.57593 11.5664 11.7511 11.5664 14.4248C11.5664 16.9368 13.4888 19.024 15.9737 19.249C16.048 19.265 16.1253 19.2737 16.2044 19.2737H23.3456C23.5097 19.2737 24.6971 19.2374 24.8372 19.1729C27.0721 18.7196 28.7202 16.7319 28.7202 14.4248L28.72 14.4248ZM23.3453 18.1774H16.2041V18.1668C14.1637 18.0534 12.5573 16.315 12.6676 14.2218C12.7662 12.3484 14.2981 10.7988 16.1706 10.6801C17.789 10.5776 19.2028 11.5016 19.8267 12.8634C19.9491 13.1307 20.337 13.1307 20.4591 12.8634C21.0811 11.505 22.4901 10.582 24.1028 10.6794C25.9597 10.7912 27.4934 12.3165 27.6148 14.173C27.7462 16.1853 26.2895 17.8812 24.3765 18.1393L23.3453 18.1774Z" fill="white"/>
<path d="M19.1943 16.3737L20.1435 17.9953L21.0927 16.3737L20.1435 15.4783L19.1943 16.3737Z" fill="white"/>
<path d="M17.8958 14.5919C17.8958 15.2698 17.3462 15.8196 16.6681 15.8196C15.99 15.8196 15.4404 15.2698 15.4404 14.5919C15.4404 13.9138 15.99 13.3643 16.6681 13.3643C17.3462 13.3643 17.8958 13.9138 17.8958 14.5919Z" fill="white"/>
<path d="M24.846 14.5919C24.846 15.2698 24.2964 15.8196 23.6183 15.8196C22.9404 15.8196 22.3906 15.2698 22.3906 14.5919C22.3906 13.9138 22.9404 13.3643 23.6183 13.3643C24.2964 13.3643 24.846 13.9138 24.846 14.5919Z" fill="white"/>
</svg>
