<svg width="40" height="40" viewBox="0 0 40 40" fill="none" xmlns="http://www.w3.org/2000/svg">
<path d="M10.1613 13.7065C9.95016 14.2344 9.35103 14.4912 8.82322 14.28C8.29538 14.0689 8.03878 13.4697 8.24973 12.9419L9.27929 10.3684C9.49047 9.84057 10.0896 9.58371 10.6174 9.79491C11.1453 10.0061 11.4021 10.6052 11.1909 11.133L10.1613 13.7065ZM17.367 13.7065C17.1561 14.2344 16.5569 14.4912 16.0291 14.28C15.501 14.0689 15.2444 13.4697 15.4556 12.9419L16.4849 10.3684C16.6961 9.84057 17.2953 9.58371 17.8231 9.79491C18.3509 10.0061 18.6078 10.6052 18.3966 11.133L17.367 13.7065ZM32.882 33.5691L35.5744 32.4473C36.0991 32.2288 36.7019 32.4768 36.9206 33.0017C37.1391 33.5264 36.8911 34.1292 36.3662 34.3477L35.5585 34.6844L36.3662 35.0208C36.8911 35.2395 37.1391 35.8423 36.9206 36.367C36.7019 36.8919 36.0991 37.1399 35.5744 36.9214L32.882 35.7996L30.1897 36.9214C29.665 37.1399 29.0622 36.8919 28.8437 36.367C28.625 35.8423 28.873 35.2395 29.3979 35.0208L30.2055 34.6844L29.3979 34.3477C28.873 34.1292 28.625 33.5264 28.8437 33.0017C29.0622 32.4768 29.665 32.2288 30.1897 32.4473L32.882 33.5691ZM3.43757 34.9417L10.6151 21.3423L8.8099 17.9218C8.54452 17.4191 8.7369 16.7963 9.23959 16.5309C9.74252 16.2655 10.3653 16.4582 10.6307 16.9609L11.7789 19.1369L12.9274 16.9609C13.1927 16.4582 13.8155 16.2655 14.3182 16.5309C14.8212 16.7963 15.0135 17.4191 14.7482 17.9218L12.943 21.3423L20.1205 34.9417H24.6469C25.2155 34.9417 25.6765 35.4026 25.6765 35.9712C25.6765 36.5396 25.2155 37.0006 24.6469 37.0006H3.02932C2.46095 37.0006 2 36.5396 2 35.9712C2 35.4026 2.46094 34.9417 3.02932 34.9417H3.43757ZM5.76546 34.9417H8.0794L10.875 29.8164C11.2652 29.1011 12.2923 29.1011 12.6824 29.8164L15.478 34.9417H17.792L11.7785 23.5479L5.76546 34.9417ZM13.133 34.9417L11.7787 32.459L10.4247 34.9417H13.133ZM32.8818 31.3387C30.892 31.3387 29.2788 29.7256 29.2788 27.7358C29.2788 27.0777 29.562 26.3726 30.0562 25.5661C30.2625 25.2292 30.5039 24.8806 30.7737 24.5234C31.0718 24.1289 31.3889 23.7441 31.706 23.3828C31.897 23.165 32.0473 23.0014 32.1372 22.9074C32.5427 22.4824 33.2209 22.4824 33.6264 22.9074C33.7163 23.0014 33.8667 23.165 34.0578 23.3828C34.375 23.7441 34.6921 24.1289 34.99 24.5234C35.2597 24.8806 35.5012 25.2292 35.7075 25.5661C36.2019 26.3725 36.4848 27.0777 36.4848 27.7358C36.4848 29.7256 34.8718 31.3387 32.8818 31.3387H32.8818ZM32.4165 25.7644C32.1845 26.0715 31.9802 26.3667 31.8115 26.6418C31.5002 27.1499 31.3376 27.5547 31.3376 27.7358C31.3376 28.5887 32.029 29.2798 32.8818 29.2798C33.7346 29.2798 34.426 28.5886 34.426 27.7358C34.426 27.5547 34.2636 27.1499 33.9521 26.6418C33.7837 26.3667 33.5793 26.0715 33.3471 25.7644C33.1975 25.5662 33.0412 25.3694 32.8818 25.1768C32.7226 25.3694 32.5661 25.5662 32.4165 25.7644ZM24.5727 13.7062C24.3615 14.2341 23.7624 14.4909 23.2346 14.2797C22.7067 14.0685 22.4499 13.4694 22.6611 12.9416L23.6904 10.3681C23.9016 9.84025 24.5007 9.5834 25.0285 9.7946C25.5563 10.0058 25.8132 10.6049 25.602 11.1327L24.5727 13.7062ZM31.7783 13.7062C31.5672 14.2341 30.968 14.4909 30.4402 14.2797C29.9124 14.0685 29.6555 13.4694 29.8667 12.9416L30.8963 10.3681C31.1075 9.84025 31.7063 9.5834 32.2344 9.7946C32.7622 10.0058 33.0189 10.6049 32.8079 11.1327L31.7783 13.7062ZM8.10201 5.98559C7.89083 6.51342 7.29194 6.77003 6.76388 6.55908C6.23604 6.34789 5.97944 5.74876 6.19039 5.22095L7.21995 2.64744C7.43114 2.11936 8.03027 1.86275 8.55808 2.07395C9.08592 2.28489 9.34277 2.88401 9.13157 3.41183L8.10201 5.98559ZM15.3083 5.98559C15.0971 6.51342 14.498 6.77003 13.9702 6.55908C13.4423 6.34789 13.1855 5.74876 13.3967 5.22095L14.426 2.64744C14.6372 2.11936 15.2363 1.86275 15.7641 2.07395C16.2919 2.28489 16.5488 2.88401 16.3376 3.41183L15.3083 5.98559ZM22.5139 5.98559C22.3027 6.51342 21.7036 6.77003 21.1758 6.55908C20.648 6.34789 20.3911 5.74876 20.6023 5.22095L21.6319 2.64744C21.8428 2.11936 22.4419 1.86275 22.9698 2.07395C23.4978 2.28489 23.7544 2.88401 23.5432 3.41183L22.5139 5.98559ZM29.7196 5.98559C29.5084 6.51342 28.9093 6.77003 28.3814 6.55908C27.8536 6.34789 27.5968 5.74876 27.808 5.22095L28.8375 2.64744C29.0487 2.11936 29.6478 1.86275 30.1757 2.07395C30.7035 2.28489 30.9601 2.88401 30.7491 3.41183L29.7196 5.98559Z" fill="white"/>
</svg>
