<svg width="40" height="40" viewBox="0 0 40 40" fill="none" xmlns="http://www.w3.org/2000/svg">
<path d="M25.5979 25.7223C27.6895 25.0787 28.655 23.9523 28.655 22.2146C28.655 20.5091 27.7219 19.3827 25.6623 18.7391C28.3012 18.2886 30.2964 17.4196 30.2964 16.0036C30.2964 14.105 26.6922 13.204 22.7982 12.9142C23.4097 12.4315 23.6993 11.7556 23.6993 10.919C23.6993 9.88909 22.8627 9.08457 21.6077 8.53756C22.2836 8.11914 22.6052 7.44347 22.6052 6.51011C22.6052 5.12644 21.2216 4 19.4837 4C17.4885 4 16.1046 5.0299 16.1046 6.51011C16.1046 6.86411 16.1691 7.31463 16.4265 7.73304C12.3718 7.86166 9.79728 9.08463 9.79728 10.919C9.79728 12.8176 11.7282 13.59 13.6913 13.9117C12.9189 14.4266 12.5648 15.1023 12.5648 16.0033C12.5648 17.1298 13.1119 17.9343 14.3348 18.449C10.0548 18.964 6 20.1546 6 22.2142C6 23.9198 8.76755 25.0139 12.1787 25.6576C8.34914 26.3012 6.70804 27.7816 6.70804 30.2594C6.70804 33.8315 10.0547 35.2795 18.2931 35.2795C27.8187 35.2795 33.9652 33.3165 33.9652 30.2594C33.9327 28.1037 30.8111 26.4947 25.5976 25.7223H25.5979ZM19.4835 5.28746C20.449 5.28746 21.3179 5.8666 21.3179 6.51039C21.3179 7.08953 21.3179 7.73332 19.4835 7.73332C17.3919 7.73332 17.3919 6.86438 17.3919 6.51039C17.3916 5.80218 18.2285 5.28746 19.4835 5.28746ZM11.0843 10.9512C11.0843 10.1788 12.9829 9.05262 17.0699 9.05262C20.288 9.05262 22.412 10.2111 22.412 10.9512C22.412 11.5627 22.412 12.8498 17.0699 12.8498C13.2083 12.8498 11.0843 12.1742 11.0843 10.9512V10.9512ZM13.8519 16.0358C13.8519 15.4567 13.8519 14.1372 19.9984 14.1372C26.338 14.1372 29.009 15.4888 29.009 16.0358C29.009 16.5829 26.338 17.9344 19.9984 17.9344C13.8519 17.9023 13.8519 16.5828 13.8519 16.0358ZM7.28697 22.2467C7.28697 21.2492 12.082 19.4147 19.8697 19.4147C27.3678 19.4147 27.3678 21.3134 27.3678 22.2467C27.3678 23.1798 27.3678 25.0787 19.8697 25.0787C12.0497 25.0466 7.28697 23.2445 7.28697 22.2467V22.2467ZM18.2606 33.9927C7.96277 33.9927 7.96277 31.4826 7.96277 30.2597C7.96277 29.0368 7.96277 26.5266 18.2606 26.5266C28.1723 26.5266 32.6455 28.7148 32.6455 30.2597C32.6455 31.8043 28.1723 33.9927 18.2606 33.9927V33.9927Z" fill="white"/>
</svg>
