<svg width="40" height="40" viewBox="0 0 40 40" fill="none" xmlns="http://www.w3.org/2000/svg">
<path d="M34.6896 19.0679C34.659 18.8508 34.5296 18.6603 34.3394 18.5514C31.447 14.3961 26.6827 11.5209 21.6613 10.8291L21.71 9.163H21.7098C21.7147 8.9899 21.5783 8.8455 21.4052 8.84032L19.6326 8.78858L19.6011 0.317275C19.602 0.233314 19.5691 0.152406 19.5098 0.0926678C19.4508 0.0331651 19.3701 -0.000233582 19.2859 1.22982e-06C19.202 0.000236421 19.1215 0.0343386 19.0627 0.0943115C19.0039 0.154284 18.9717 0.235428 18.9731 0.319623L19.0046 8.77046L17.2527 8.71942C17.0794 8.71448 16.935 8.85066 16.93 9.02399L16.8773 10.839C12.5452 11.4354 8.38797 13.5756 5.49376 16.8287C5.17296 17.1893 5.13674 17.7175 5.39898 18.2072C5.64804 18.6722 6.18265 19.1007 6.81201 19.0122C7.54583 18.9088 8.12834 18.4426 8.64204 17.9692L8.98964 24.0009H8.98988C8.9927 24.0439 9.0047 24.086 9.02469 24.1243L7.94919 25.1349L6.24361 25.5587C6.1072 25.5926 6.00983 25.713 6.0056 25.8534L5.95103 27.6098L5.04508 29.115C4.97241 29.2354 4.98887 29.3895 5.0853 29.4918L6.28826 30.7722L6.71207 32.4778C6.74617 32.6142 6.86659 32.7113 7.00699 32.7158L8.76339 32.7703L10.2681 33.6765C10.3888 33.749 10.5426 33.7325 10.6451 33.6363L11.9255 32.4331L13.6311 32.0095C13.7675 31.9757 13.8646 31.8553 13.8691 31.7146L13.9237 29.9582L14.8301 28.4533C14.9025 28.3328 14.8861 28.1788 14.7896 28.0765L13.5864 26.7961L13.1629 25.0905V25.0903C13.129 24.9539 13.0086 24.8567 12.8682 24.8523L11.1118 24.7977L9.61247 23.8951L9.23923 17.4185C12.0276 14.8942 15.8116 13.4798 19.5734 13.5282L19.731 21.1078H19.7312C19.5459 21.0594 19.357 21.0251 19.1665 21.0051C19.0416 20.995 18.916 20.9926 18.7907 20.9982L18.7229 20.9997C18.6021 21.002 18.4934 21.0735 18.4433 21.1836C18.3932 21.2936 18.4108 21.4225 18.4882 21.5152C18.8723 21.9646 19.135 22.5049 19.2514 23.0846C19.5299 24.5604 18.7342 26.2017 17.401 26.9031C16.9181 27.1616 16.3812 27.3022 15.8337 27.3133C15.713 27.3156 15.6044 27.3864 15.5541 27.496C15.5037 27.6054 15.5204 27.734 15.5971 27.8269C16.2961 28.6745 17.3932 29.3197 18.6409 29.3561V29.3563C19.347 29.3719 20.045 29.203 20.6659 28.8664C22.2588 28.0282 23.1737 26.1394 22.8412 24.3755C22.5886 23.0377 21.6032 21.8773 20.3632 21.3275L20.2014 13.5516C20.3169 13.5582 20.4326 13.5607 20.5481 13.5701C23.4663 13.8082 26.3037 14.9554 28.616 16.7609L28.6162 16.7612C28.6014 16.7962 28.593 16.8338 28.5918 16.8722L28.4949 22.1324L27.2484 24.2423L24.7417 24.4159C24.6225 24.4238 24.5183 24.4991 24.4729 24.6097C24.4275 24.7204 24.4489 24.847 24.528 24.9366L26.191 26.8202L25.5816 29.2579C25.5524 29.3738 25.5917 29.4961 25.683 29.5735C25.774 29.6509 25.9012 29.6697 26.0108 29.6222L28.3164 28.6231L30.4462 29.9559H30.4465C30.5479 30.0194 30.6763 30.0197 30.7779 29.9569C30.8795 29.8941 30.9366 29.7791 30.9256 29.6603L30.6878 27.1588L32.6137 25.5449C32.7054 25.468 32.7454 25.346 32.7172 25.2298C32.6888 25.1136 32.597 25.0238 32.4804 24.9979L30.0281 24.4511L29.1217 22.2039L29.2129 17.2515C29.9594 17.8952 30.6391 18.6127 31.2412 19.3933L31.3376 19.5199C31.629 19.9032 31.9303 20.2995 32.3628 20.5742C32.6389 20.7478 32.956 20.8459 33.2817 20.8586C33.5987 20.8751 33.9108 20.7753 34.1594 20.5783C34.5294 20.2763 34.7822 19.5566 34.6895 19.0686L34.6896 19.0679ZM17.5483 9.35507L21.0733 9.45785L21.0354 10.7552C20.8169 10.733 20.5984 10.7081 20.3794 10.6945C19.4218 10.638 18.4613 10.6601 17.5073 10.7603L17.5483 9.35507ZM9.48698 24.551L10.8583 25.3768C10.9044 25.4045 10.9569 25.4198 11.0107 25.4215L12.6117 25.4711L12.9979 27.0252L12.9976 27.0254C13.0106 27.0774 13.0367 27.1254 13.0736 27.1644L14.17 28.3314L13.344 29.7033C13.3165 29.7494 13.301 29.8018 13.2994 29.8555L13.2495 31.4562L11.6954 31.8423V31.8426C11.6434 31.8555 11.5954 31.8816 11.5564 31.9183L10.3891 33.015L9.01754 32.189C8.97145 32.1612 8.91924 32.146 8.86538 32.1441L7.26468 32.0942L6.8785 30.5401V30.5404C6.86557 30.4881 6.83946 30.4402 6.80254 30.4011L5.70608 29.2341L6.53208 27.8625C6.55983 27.8164 6.57512 27.764 6.57677 27.7103L6.62639 26.1096L8.18049 25.7235H8.18072C8.23293 25.7105 8.28091 25.6844 8.31995 25.6475L9.48698 24.551ZM22.2252 24.4906C22.5037 25.9662 21.7081 27.6078 20.3748 28.3094C18.9063 29.0822 17.4674 28.6847 16.5194 27.871H16.5191C16.9291 27.7924 17.3251 27.6532 17.6939 27.4575C19.2871 26.6193 20.2019 24.7312 19.8692 22.9668C19.78 22.5066 19.6098 22.066 19.3663 21.6653C20.757 21.9205 21.9614 23.0931 22.225 24.4906L22.2252 24.4906ZM29.508 24.8375H29.5078C29.5464 24.9335 29.6299 25.004 29.7308 25.0266L31.7235 25.4709L30.1586 26.7823H30.1584C30.0793 26.8486 30.0377 26.9497 30.0476 27.0525L30.2407 29.085L28.5102 28.0022C28.4227 27.9472 28.3138 27.9389 28.2188 27.9801L26.3453 28.7919L26.8403 26.8112C26.8655 26.711 26.8396 26.6047 26.7712 26.5273L25.4203 24.9965L27.457 24.8554H27.4572C27.5602 24.8483 27.6531 24.7909 27.7058 24.702L28.7442 22.9443L29.508 24.8375ZM33.7631 20.0904C33.4787 20.3221 33.0133 20.2419 32.6998 20.0429C32.3623 19.8287 32.1076 19.4935 31.8379 19.1386L31.7395 19.0097C29.0944 15.5642 24.9306 13.2963 20.6004 12.9431C20.3422 12.9222 20.0839 12.9079 19.8252 12.9003C15.7424 12.7813 11.605 14.33 8.62529 17.1238L8.4696 17.2703C7.93713 17.7746 7.38609 18.2962 6.72518 18.3894C6.41003 18.4331 6.09914 18.1815 5.95355 17.9096C5.90228 17.8139 5.75152 17.4834 5.96367 17.2449C9.50867 13.2599 15.013 10.9917 20.3414 11.3212C25.6647 11.6524 30.8502 14.587 33.8744 18.9809C33.9139 19.0383 33.9715 19.0809 34.0379 19.102C34.0524 19.1068 34.0668 19.1481 34.0739 19.1848C34.1237 19.4489 33.9586 19.9315 33.7634 20.0905L33.7631 20.0904Z" fill="white"/>
<path d="M7.19606 27.6742C6.97075 28.2471 6.92748 28.8755 7.07212 29.4736C7.21676 30.0719 7.54226 30.6113 8.00438 31.0178C8.50792 31.4765 9.15821 31.7413 9.83887 31.7645C10.3459 31.7768 10.8474 31.6575 11.2942 31.4181C12.4294 30.8207 13.0814 29.4748 12.8443 28.2177C12.6092 26.9717 11.4831 25.9385 10.2246 25.815C8.95477 25.6878 7.65463 26.4895 7.19603 27.6742L7.19606 27.6742ZM10.0186 26.4305C10.0668 26.4319 10.115 26.4347 10.163 26.4397C11.1545 26.5373 12.0419 27.3515 12.2272 28.3339C12.4116 29.3109 11.8848 30.3979 11.0019 30.8626C9.96892 31.4057 8.99192 31.0571 8.42229 30.5491L8.42205 30.5494C8.0561 30.2274 7.79811 29.8003 7.68354 29.3264C7.569 28.8525 7.60311 28.3548 7.78161 27.9012C8.12451 27.0147 9.06856 26.403 10.0185 26.4308L10.0186 26.4305Z" fill="white"/>
</svg>
