<svg width="40" height="40" viewBox="0 0 40 40" fill="none" xmlns="http://www.w3.org/2000/svg">
<path d="M11.6361 20.6499C11.2315 20.6499 10.917 21.8634 10.917 22.2681C10.917 22.6727 11.2318 22.9872 11.6361 22.9872C12.0407 22.9872 12.3552 22.6724 12.3552 22.2681C12.3552 21.8638 12.0407 20.6499 11.6361 20.6499Z" fill="white"/>
<path d="M13.0765 24.7859C12.6719 24.7859 12.3574 25.9994 12.3574 26.4041C12.3574 26.8087 12.6722 27.1232 13.0765 27.1232C13.4811 27.1232 13.7956 26.8084 13.7956 26.4041C13.8407 25.9995 13.4812 24.7859 13.0765 24.7859Z" fill="white"/>
<path d="M19.2328 25.2351C18.8282 25.2351 18.5137 26.4486 18.5137 26.8533C18.5137 27.2579 18.8285 27.5724 19.2328 27.5724C19.6374 27.5724 19.9519 27.2576 19.9519 26.8533C19.9522 26.449 19.6374 25.2351 19.2328 25.2351Z" fill="white"/>
<path d="M25.6175 25.2351C25.2129 25.2351 24.8984 26.4486 24.8984 26.8533C24.8984 27.2579 25.2132 27.5724 25.6175 27.5724C26.0222 27.5724 26.3367 27.2576 26.3367 26.8533C26.3817 26.449 26.0222 25.2351 25.6175 25.2351Z" fill="white"/>
<path d="M28.1781 20.6499C27.7735 20.6499 27.459 21.8634 27.459 22.2681C27.459 22.6727 27.7738 22.9872 28.1781 22.9872C28.5827 22.9872 28.8972 22.6724 28.8972 22.2681C28.8972 21.8638 28.5827 20.6499 28.1781 20.6499Z" fill="white"/>
<path d="M16.4916 21.8188C16.087 21.8188 15.7725 23.0324 15.7725 23.437C15.7725 23.8417 16.0873 24.1561 16.4916 24.1561C16.8962 24.1561 17.2107 23.8413 17.2107 23.437C17.2107 22.9877 16.8962 21.8188 16.4916 21.8188Z" fill="white"/>
<path d="M21.975 21.8188C21.5704 21.8188 21.2559 23.0324 21.2559 23.437C21.2559 23.8417 21.5707 24.1561 21.975 24.1561C22.3796 24.1564 22.6941 23.7966 22.6941 23.3923C22.6941 22.9877 22.3796 21.8189 21.975 21.8189V21.8188Z" fill="white"/>
<path d="M32.988 5.0968H7.09668V34.315H33.0332V5.0968H32.988ZM32.0889 14.9862C31.8192 15.0313 31.5047 15.0761 31.1898 15.0761H31.1448C30.4704 15.0761 29.8411 14.9412 29.2569 14.6714C28.6727 14.4468 28.1332 14.0872 27.6387 13.6376C27.4588 13.4576 27.1894 13.4576 27.0094 13.6376C26.8295 13.8175 26.8295 14.0869 27.0094 14.2669C27.5489 14.8063 28.1782 15.211 28.8973 15.5255C29.3917 15.7502 29.9312 15.885 30.5155 15.9301C30.4704 16.065 30.4257 16.1998 30.3806 16.2897C30.1109 16.8739 29.7513 17.4134 29.3016 17.8631C28.8523 18.3124 28.3128 18.6723 27.6835 18.8969C26.4248 19.3914 24.9863 19.3914 23.7278 18.8969C23.1435 18.6723 22.604 18.3127 22.1096 17.8631C21.705 17.5035 21.3905 17.0538 21.1655 16.5594L21.076 16.1999L20.7164 16.3347C19.5477 16.6943 18.2891 16.6495 17.1653 16.1999C16.8505 16.065 16.536 15.8851 16.2662 15.7054C16.4011 15.211 16.4909 14.7166 16.4909 14.1771C16.4909 13.413 16.311 12.6488 16.0416 11.9297C15.9518 11.705 15.682 11.6149 15.4573 11.705C15.2326 11.7948 15.1425 12.0646 15.2326 12.2893C15.5024 12.8735 15.6373 13.5479 15.6373 14.1771C15.6373 14.8064 15.5024 15.4808 15.2326 16.065V16.1101C15.0527 16.4249 14.828 16.6943 14.5583 16.9193C14.1089 17.3686 13.5694 17.7285 12.9401 17.9531C11.6815 18.4476 10.243 18.4476 8.98441 17.9531C8.62486 17.8183 8.31005 17.6383 8.04032 17.4137L8.04 9.45717C8.35481 9.23248 8.6693 9.05255 8.9841 8.91768C10.2427 8.42326 11.6812 8.42326 12.9398 8.91768C13.2993 9.05255 13.704 9.27723 14.0188 9.54698L14.4234 9.86178L14.6481 9.41242C14.8727 8.96306 15.1875 8.55844 15.5471 8.19889C15.9965 7.74953 16.536 7.38968 17.1653 7.16501C18.4239 6.67059 19.8625 6.67059 21.121 7.16501C21.7052 7.38969 22.2448 7.74924 22.7392 8.19889C23.1438 8.55844 23.4583 9.0081 23.6833 9.50253L23.8182 9.72721C24.0879 10.3114 24.2228 10.9858 24.2228 11.6151C24.2228 12.2894 24.0879 12.9187 23.8182 13.5029C23.7283 13.7276 23.8182 13.9974 24.0428 14.0872C24.0879 14.1322 24.1777 14.1322 24.2228 14.1322C24.4027 14.1322 24.5823 14.0424 24.6274 13.8625C24.9422 13.1434 25.0767 12.3792 25.0767 11.6151C25.0767 10.896 24.9419 10.2216 24.6721 9.54723C25.0317 9.45742 25.3912 9.41236 25.7959 9.41236H26.2452L26.3351 9.05281C26.3801 8.73801 26.515 8.46858 26.6048 8.15373C26.8745 7.5695 27.2341 7.02999 27.6838 6.58033C27.9535 6.31058 28.268 6.08591 28.5828 5.86122H32.0889L32.0889 14.9862ZM27.0996 5.99548L27.0545 6.04054C26.515 6.58002 26.0657 7.2093 25.7959 7.88371C25.7061 8.10839 25.616 8.33307 25.5712 8.55807C25.1218 8.55807 24.7172 8.64788 24.3126 8.738C24.0428 8.28864 23.7284 7.88402 23.3685 7.52447C22.829 6.98498 22.1997 6.58038 21.4806 6.26584C21.1211 6.13097 20.7615 5.9961 20.4017 5.95104L27.0995 5.95073L27.0996 5.99548ZM7.99511 5.99548H17.8846C17.525 6.08529 17.1654 6.17541 16.8056 6.31028C16.0865 6.58003 15.4572 7.02939 14.9177 7.5689C14.6029 7.88371 14.3335 8.1982 14.1085 8.55777C13.8388 8.37783 13.5243 8.24297 13.2545 8.10841C11.7712 7.52417 10.108 7.52417 8.62442 8.10841C8.39974 8.19822 8.21981 8.28834 7.99513 8.42321L7.99511 5.99548ZM32.0883 33.4155H7.99511V18.4914C8.17505 18.5812 8.39972 18.7161 8.62441 18.8062C10.1077 19.3904 11.7709 19.3904 13.2545 18.8062C13.9736 18.5364 14.6029 18.0871 15.1424 17.5476C15.4572 17.2328 15.7266 16.9183 15.9516 16.5587C16.2213 16.7386 16.5358 16.8735 16.8056 17.0081C18.0191 17.5025 19.3678 17.5923 20.6264 17.2778C20.8961 17.7272 21.2106 18.1318 21.5705 18.4913C22.11 19.0308 22.7392 19.4354 23.4583 19.75C24.1774 20.0648 24.9866 20.1993 25.7508 20.1993C26.515 20.1993 27.3242 20.0645 28.0433 19.75C28.7624 19.4802 29.3918 19.0309 29.9312 18.4913C30.4706 17.9518 30.9201 17.3226 31.1898 16.6482C31.2796 16.4235 31.3698 16.1988 31.4145 15.9738C31.6392 15.9738 31.8191 15.9288 32.0438 15.9288V33.415L32.0883 33.4155Z" fill="white"/>
<rect x="4.5" y="2.5" width="31" height="34.0968" stroke="white"/>
</svg>
