<svg width="40" height="40" viewBox="0 0 40 40" fill="none" xmlns="http://www.w3.org/2000/svg">
<path d="M31.6926 12.2638C31.0139 12.2638 30.3355 12.3683 29.6568 12.5769C28.1429 8.71442 24.3846 6 20.0001 6C15.7196 6 11.9092 8.66203 10.3434 12.5248C9.71708 12.3162 9.03839 12.2638 8.30761 12.2638C4.28823 12.2638 1 15.5524 1 19.5714C1 23.5907 4.2886 26.879 8.30761 26.879H14.2061L13.2668 29.6975C13.1623 30.0106 13.2147 30.3762 13.4233 30.6369C13.632 30.898 13.9455 31.0545 14.2586 31.0545H15.9291L13.2671 38.5187C13.1105 38.9884 13.2671 39.4581 13.6847 39.7192C13.8413 39.8237 14.0503 39.8758 14.2589 39.8758C14.52 39.8758 14.7811 39.7713 14.9897 39.5626L28.2472 26.8793H31.6924C35.7118 26.8793 39 23.5907 39 19.5717C39 15.5523 35.7114 12.2637 31.6924 12.2637L31.6926 12.2638ZM16.7116 35.0746L18.3821 30.3769C18.4866 30.0637 18.4342 29.6982 18.2256 29.4375C18.0169 29.1764 17.7034 29.0199 17.3903 29.0199H15.7198L18.1731 21.7122H22.2966L21.1482 25.575C21.0437 25.8882 21.0961 26.2537 21.3048 26.5144C21.5134 26.7755 21.8269 26.932 22.14 26.932H25.2721L16.7116 35.0746ZM31.6926 24.7914H23.4972L24.6456 20.9287C24.7501 20.6155 24.6976 20.25 24.489 19.9893C24.2804 19.7282 23.9669 19.5716 23.6537 19.5716H17.39C16.9203 19.5716 16.5547 19.8848 16.3981 20.3024L14.8846 24.7915H8.30737C5.43636 24.7915 3.08751 22.4426 3.08751 19.5716C3.08751 16.7006 5.43636 14.3518 8.30737 14.3518C9.71682 14.3518 11.0218 14.8739 12.0137 15.8653C12.4313 16.283 13.0575 16.283 13.4752 15.8653C13.8928 15.4477 13.8928 14.8215 13.4752 14.4038C13.1096 14.0382 12.6924 13.673 12.2224 13.4119C13.4752 10.2278 16.5548 8.08756 20 8.08756C24.5936 8.08756 28.352 11.8459 28.352 16.4395C28.352 17.0137 28.8217 17.4834 29.3959 17.4834C29.9701 17.4834 30.4397 17.0137 30.4397 16.4395C30.4397 15.8132 30.3877 15.1867 30.2832 14.5604C30.7529 14.4038 31.2226 14.3517 31.6926 14.3517C34.5636 14.3517 36.9125 16.7006 36.9125 19.5716C36.9125 22.4422 34.5633 24.7914 31.6926 24.7914H31.6926Z" fill="white"/>
</svg>
