<svg width="40" height="40" viewBox="0 0 40 40" fill="none" xmlns="http://www.w3.org/2000/svg">
<path d="M21.205 17.9082C21.0487 17.9082 20.9315 17.8692 20.8142 17.7909C20.2669 17.7519 19.4852 17.6736 18.5863 17.5564C15.6938 17.2046 11.3552 16.6574 7.05564 17.4001C6.62572 17.4782 6.23485 17.1656 6.15658 16.7747C6.07846 16.3448 6.39107 15.9539 6.78194 15.8756C11.2769 15.133 15.7719 15.6802 18.7425 16.032C19.7978 16.1493 20.6188 16.2665 21.0877 16.2665C21.2051 16.2665 21.3222 16.3056 21.4396 16.3446C22.2994 16.2273 22.9249 15.4848 22.9249 14.5857C22.9249 13.6085 22.1432 12.8268 21.166 12.8268C20.5407 12.8268 19.9934 13.1396 19.6807 13.6476C19.4462 13.9994 18.977 14.1166 18.5862 13.8821C18.2343 13.6476 18.1172 13.1785 18.3517 12.7876C18.977 11.8104 20.0325 11.2241 21.1659 11.2241C23.0029 11.2241 24.4882 12.7095 24.4882 14.5465C24.4884 16.3838 23.0421 17.9083 21.2049 17.9083L21.205 17.9082Z" fill="white"/>
<path d="M19.0549 25.7256C18.1168 25.7256 17.2569 26.1946 16.7487 27.0155C16.5142 27.3673 16.6314 27.8754 16.9832 28.11C17.335 28.3445 17.8431 28.2273 18.0777 27.8755C18.3122 27.5237 18.664 27.3283 19.0549 27.3283C19.7193 27.3283 20.2275 27.8365 20.2275 28.5009C20.2275 29.1653 19.7193 29.6735 19.0549 29.6735H19.0158H18.9768C18.5859 29.6735 17.8823 29.5562 17.0224 29.3999C14.5208 28.8916 10.2604 28.1099 6.35171 29.2434C5.92178 29.3607 5.68729 29.7907 5.80446 30.2206C5.92177 30.6505 6.35171 30.885 6.78163 30.7679C10.3385 29.7516 14.2081 30.4551 16.7488 30.9242C17.726 31.1197 18.4687 31.237 18.9767 31.237H19.0157H19.0548C20.5792 31.237 21.7909 30.0253 21.7909 28.5009C21.791 26.9765 20.5794 25.7256 19.0549 25.7256L19.0549 25.7256Z" fill="white"/>
<path d="M32.5406 14.4685C30.7035 14.4685 29.0618 15.4066 28.0846 16.931C27.8502 17.2829 27.9673 17.7909 28.3191 18.0255C28.671 18.26 29.179 18.1429 29.4136 17.7911C30.1173 16.6966 31.2899 16.0712 32.5406 16.0712C34.5731 16.0712 36.2539 17.752 36.2539 19.7844C36.2539 21.8169 34.5731 23.4977 32.5406 23.4977H32.4625H32.3844C31.4462 23.4977 29.8046 23.185 27.733 22.8333C21.9872 21.7387 12.3328 19.9798 3.57729 22.5595C3.14737 22.6768 2.91288 23.1067 3.03004 23.5367C3.14736 23.9666 3.57729 24.2011 4.00722 24.0839C12.4109 21.6214 21.44 23.3022 27.4594 24.3967C29.6091 24.7875 31.2899 25.1003 32.3843 25.1003H32.4624H32.5406C35.4721 25.1003 37.8173 22.716 37.8173 19.8236C37.8174 16.931 35.4332 14.4686 32.5406 14.4686L32.5406 14.4685Z" fill="white"/>
<path d="M33.0498 10.3254C32.6979 9.50466 32.268 8.80103 31.8381 8.17567C32.3853 7.2766 32.3071 6.02589 31.6427 4.81419C30.9 3.44615 29.1801 2 26.6004 2C24.5288 2 22.3791 2.93812 20.1511 4.77514C19.8775 5.00963 19.7993 5.43955 19.9557 5.75231C20.1511 6.06506 20.542 6.22129 20.8938 6.10413C20.8938 6.10413 21.2065 5.98681 21.6755 5.98681C22.6136 5.98681 23.9426 6.37768 24.9588 8.29297C25.6232 9.54369 26.7177 10.2473 28.0077 10.2473C28.9848 10.2473 29.962 9.85645 30.6656 9.34826C30.9784 9.81723 31.2519 10.3254 31.5255 10.9508C31.6428 11.2635 31.9554 11.4198 32.2291 11.4198C32.3464 11.4198 32.4246 11.3807 32.5419 11.3416C33.0498 11.1463 33.2452 10.7163 33.0498 10.3254L33.0498 10.3254ZM28.0857 8.68386C27.343 8.68386 26.7958 8.33205 26.4049 7.55031C25.4277 5.71329 24.1378 4.93155 23.0825 4.61879C24.3332 3.91516 25.5451 3.52429 26.6394 3.52429C28.5157 3.52429 29.7664 4.57957 30.3136 5.55675C30.5481 5.94762 30.6654 6.37754 30.6654 6.72935C29.2583 5.40037 27.9684 5.04855 27.8903 5.0095C27.4604 4.89218 27.0304 5.12681 26.9131 5.55675C26.7958 5.98667 27.0304 6.41659 27.4604 6.53392C27.4604 6.53392 28.5939 6.84667 29.7665 8.05834C29.2974 8.41029 28.7111 8.68383 28.0857 8.68383V8.68386Z" fill="white"/>
<path d="M34.8461 33.4256C34.6897 33.1521 34.3771 32.9566 34.0643 32.9957C33.5954 33.0348 33.0481 32.9566 32.579 32.8784C33.8689 29.8688 32.1881 27.2499 32.11 27.1326C31.9146 26.8591 31.5627 26.7027 31.2109 26.8199C30.8591 26.9372 30.6637 27.2498 30.6637 27.6016C30.6637 28.1879 29.8429 29.087 29.0221 29.7904C28.3577 28.3051 26.8332 27.797 26.755 27.758C26.4814 27.6799 26.1687 27.7189 25.9732 27.9144C25.7778 28.1098 25.6605 28.4225 25.7387 28.6961C25.9732 29.5169 25.5043 30.2596 25.0351 31.0413C24.8397 31.3541 24.6833 31.6667 24.5269 31.9794C24.0579 33.0347 24.1751 34.2073 24.8397 35.3018C24.2143 35.4191 23.4716 35.3799 22.6899 35.1845C22.26 35.0672 21.83 35.3018 21.7127 35.7318C21.5954 36.1617 21.83 36.5916 22.26 36.7089C22.8853 36.9044 23.5107 36.9825 24.0579 36.9825C24.7223 36.9825 25.3869 36.8652 25.9342 36.6697C26.7159 37.3734 27.615 37.725 28.6312 37.725C31.6408 37.725 34.5724 34.52 34.6897 34.4026C34.9242 34.09 34.9632 33.7382 34.846 33.4256L34.8461 33.4256ZM28.6703 36.0835C28.2795 36.0835 27.9277 36.0053 27.6151 35.849C28.3577 35.3408 28.944 34.7937 29.2959 34.3245C29.5304 33.9727 29.4522 33.5038 29.1004 33.2301C28.7486 32.9956 28.2796 33.0737 28.0059 33.4255C28.0059 33.4255 27.4196 34.2072 26.4034 34.7545C26.0125 34.2072 25.6607 33.4255 26.0125 32.6047C26.1298 32.3702 26.247 32.1357 26.4424 31.862C26.7552 31.3538 27.1461 30.6894 27.3023 29.9467C27.5759 30.2203 27.7713 30.6503 27.8105 31.1584C27.8105 31.4319 28.0059 31.6666 28.2404 31.8228C28.4749 31.9401 28.7877 31.9401 29.0221 31.7837C29.374 31.5492 30.6247 30.6892 31.4455 29.634C31.6409 30.533 31.6018 31.7837 30.8201 32.9954C30.7028 33.1909 30.6637 33.4644 30.742 33.6598C30.8201 33.8943 31.0156 34.0507 31.211 34.1288C31.25 34.1288 31.7192 34.2852 32.3445 34.4416C31.3283 35.2236 29.9603 36.0834 28.6704 36.0834L28.6703 36.0835Z" fill="white"/>
</svg>
