<svg width="40" height="40" viewBox="0 0 40 40" fill="none" xmlns="http://www.w3.org/2000/svg">
<path d="M2 6.60445V29.5153C2 29.8494 2.27065 30.12 2.60466 30.12C2.93846 30.12 3.2091 29.8494 3.2091 29.5153V6.60445C3.2091 6.27064 2.93845 6 2.60466 6C2.27065 6 2 6.27065 2 6.60445V6.60445Z" fill="white"/>
<path d="M11.5459 6.60445V29.5153C11.5459 29.8494 11.8165 30.12 12.1506 30.12C12.4844 30.12 12.755 29.8494 12.755 29.5153V6.60445C12.755 6.27064 12.4844 6 12.1506 6C11.8165 6 11.5459 6.27065 11.5459 6.60445V6.60445Z" fill="white"/>
<path d="M21.0928 6.60445V29.5153C21.0928 29.8494 21.3634 30.12 21.6974 30.12C22.0312 30.12 22.3019 29.8494 22.3019 29.5153V6.60445C22.3019 6.27064 22.0312 6 21.6974 6C21.3634 6 21.0928 6.27065 21.0928 6.60445V6.60445Z" fill="white"/>
<path d="M31.5928 6.60445V29.5153C31.5928 29.8494 31.8634 30.12 32.1972 30.12C32.5312 30.12 32.8019 29.8494 32.8019 29.5153V6.60445C32.8019 6.27064 32.5312 6 32.1972 6C31.8634 6 31.5928 6.27065 31.5928 6.60445V6.60445Z" fill="white"/>
<path d="M6.77344 10.423V33.3334C6.77344 33.6674 7.04409 33.9381 7.37809 33.9381C7.7119 33.9381 7.98254 33.6674 7.98254 33.3334V10.423C7.98254 10.089 7.71189 9.81836 7.37809 9.81836C7.04409 9.81836 6.77344 10.089 6.77344 10.423V10.423Z" fill="white"/>
<path d="M16.3193 10.423V33.3334C16.3193 33.6674 16.59 33.9381 16.924 33.9381C17.2578 33.9381 17.5284 33.6674 17.5284 33.3334V10.423C17.5284 10.089 17.2578 9.81836 16.924 9.81836C16.59 9.81836 16.3193 10.089 16.3193 10.423V10.423Z" fill="white"/>
<path d="M25.8652 10.423V33.3334C25.8652 33.6674 26.1359 33.9381 26.4699 33.9381C26.8037 33.9381 27.0743 33.6674 27.0743 33.3334V10.423C27.0743 10.089 26.8037 9.81836 26.4699 9.81836C26.1359 9.81836 25.8652 10.089 25.8652 10.423V10.423Z" fill="white"/>
<path d="M36.3652 10.423V33.3334C36.3652 33.6674 36.6359 33.9381 36.9697 33.9381C37.3037 33.9381 37.5743 33.6674 37.5743 33.3334V10.423C37.5743 10.089 37.3037 9.81836 36.9697 9.81836C36.6359 9.81836 36.3652 10.089 36.3652 10.423V10.423Z" fill="white"/>
</svg>
