<svg width="40" height="40" viewBox="0 0 40 40" fill="none" xmlns="http://www.w3.org/2000/svg">
<path d="M36.4058 8H3.37536C3.17066 8 3 8.13639 3 8.34132V27.9617C3 30.0431 4.84249 31.7493 7.12893 31.7493H32.6525C34.9386 31.7493 36.7814 30.0431 36.7814 27.9617L36.7811 8.34132C36.7811 8.1709 36.6105 8.00024 36.4058 8.00024L36.4058 8ZM26.135 21.4783H26.8857V31.0667H20.2659V21.4783H21.0166C21.5967 21.4783 22.0743 21.0347 22.0743 20.4889V8.68257H25.0772V20.4889C25.0772 21.0347 25.5549 21.4783 26.1349 21.4783H26.135ZM13.6462 21.4783C14.2262 21.4783 14.7039 21.0347 14.7039 20.4889V8.68257H17.7067V20.4889C17.7067 21.0349 18.1845 21.4783 18.7645 21.4783H19.5152V31.0667H12.8613V21.4783H13.6462ZM3.7507 27.9616V8.68245H10.3022V20.4888C10.3022 21.0348 10.7799 21.4782 11.3599 21.4782H12.1106V31.0666H7.12864C5.25209 31.0666 3.75064 29.6675 3.75064 27.9614L3.7507 27.9616ZM36.0305 27.9616C36.0305 29.6677 34.529 31.0668 32.6523 31.0668H27.6365V21.4784H28.4213C29.0013 21.4784 29.479 21.0347 29.479 20.489V8.68263H36.0305L36.0305 27.9616Z" fill="white"/>
</svg>
