<svg width="40" height="40" viewBox="0 0 40 40" fill="none" xmlns="http://www.w3.org/2000/svg">
<path d="M29.9552 29.5829C28.3208 29.5829 27.4652 28.8637 26.777 28.2867C26.2062 27.8076 25.8285 27.4909 24.972 27.4909C24.1164 27.4909 23.7387 27.8078 23.1691 28.2867C22.4809 28.864 21.6264 29.5829 19.9921 29.5829C18.36 29.5829 17.5043 28.8637 16.8183 28.2867C16.2487 27.8076 15.872 27.4909 15.0175 27.4909C14.1631 27.4909 13.7864 27.8078 13.2167 28.2867C12.5297 28.864 11.6751 29.5829 10.0429 29.5829C8.40954 29.5829 7.55509 28.8637 6.86811 28.2867C6.29801 27.8078 5.9213 27.4921 5.06684 27.4921C4.47793 27.4921 4 27.0151 4 26.4252C4 25.8354 4.47793 25.3584 5.06684 25.3584C6.70021 25.3584 7.55467 26.0776 8.24165 26.6546C8.81127 27.1337 9.18797 27.4505 10.0424 27.4505C10.8969 27.4505 11.2736 27.1335 11.8432 26.6546C12.5302 26.0773 13.3849 25.3584 15.017 25.3584C16.6504 25.3584 17.5049 26.0776 18.1918 26.6546C18.7615 27.1337 19.1382 27.4505 19.9926 27.4505C20.8492 27.4505 21.2259 27.1335 21.7967 26.6546C22.4838 26.0773 23.3384 25.3584 24.9728 25.3584C26.6071 25.3584 27.4627 26.0776 28.1509 26.6546C28.7217 27.1337 29.0994 27.4505 29.956 27.4505C30.8125 27.4505 31.1902 27.1335 31.761 26.6546C32.4492 26.0773 33.3048 25.3584 34.9392 25.3584C35.5281 25.3584 36.006 25.8354 36.006 26.4252C36.006 27.0151 35.5281 27.4921 34.9392 27.4921C34.0814 27.4921 33.7049 27.809 33.1341 28.288C32.4452 28.865 31.5896 29.5829 29.9552 29.5829H29.9552Z" fill="white"/>
<path d="M29.9552 35.984C28.3208 35.984 27.4652 35.2649 26.777 34.6879C26.2062 34.2087 25.8285 33.892 24.972 33.892C24.1164 33.892 23.7387 34.2089 23.1691 34.6879C22.4809 35.2651 21.6264 35.984 19.9921 35.984C18.36 35.984 17.5043 35.2649 16.8183 34.6879C16.2487 34.2087 15.872 33.892 15.0175 33.892C14.1631 33.892 13.7864 34.2089 13.2167 34.6879C12.5297 35.2651 11.6751 35.984 10.0429 35.984C8.40954 35.984 7.55509 35.2649 6.86811 34.6879C6.29801 34.209 5.9213 33.8932 5.06684 33.8932C4.47793 33.8932 4 33.4162 4 32.8264C4 32.2365 4.47793 31.7595 5.06684 31.7595C6.70021 31.7595 7.55467 32.4787 8.24165 33.0557C8.81127 33.5348 9.18797 33.8516 10.0424 33.8516C10.8969 33.8516 11.2736 33.5346 11.8432 33.0557C12.5302 32.4785 13.3849 31.7595 15.017 31.7595C16.6504 31.7595 17.5049 32.4787 18.1918 33.0557C18.7615 33.5348 19.1382 33.8516 19.9926 33.8516C20.8492 33.8516 21.2259 33.5346 21.7967 33.0557C22.4838 32.4785 23.3384 31.7595 24.9728 31.7595C26.6071 31.7595 27.4627 32.4787 28.1509 33.0557C28.7217 33.5348 29.0994 33.8516 29.956 33.8516C30.8125 33.8516 31.1902 33.5346 31.761 33.0557C32.4492 32.4785 33.3048 31.7595 34.9392 31.7595C35.5281 31.7595 36.006 32.2365 36.006 32.8264C36.006 33.4162 35.5281 33.8932 34.9392 33.8932C34.0814 33.8932 33.7049 34.2102 33.1341 34.6891C32.4452 35.2661 31.5896 35.984 29.9552 35.984H29.9552Z" fill="white"/>
<path d="M25.6477 27.4706C25.3521 27.4706 25.0578 27.3489 24.8475 27.11C24.4582 26.6673 24.4999 25.993 24.9414 25.6036C26.548 24.1857 27.4699 22.1437 27.4699 20.0027C27.4699 15.8846 24.1201 12.5347 20.002 12.5347C15.8839 12.5347 12.5341 15.8846 12.5341 20.0027C12.5341 22.1437 13.4559 24.1857 15.0635 25.6036C15.5053 25.9929 15.5479 26.6673 15.1574 27.11C14.768 27.5506 14.0926 27.5944 13.6509 27.2039C11.5856 25.3807 10.4004 22.7562 10.4004 20.003C10.4004 14.7092 14.7082 10.4014 20.002 10.4014C25.2957 10.4014 29.6036 14.7092 29.6036 20.003C29.6036 22.7565 28.4184 25.381 26.3528 27.2039C26.1502 27.3832 25.8973 27.4706 25.6477 27.4706H25.6477Z" fill="white"/>
<path d="M20.0034 8.26738C19.4145 8.26738 18.9365 7.78944 18.9365 7.20053V5.06684C18.9365 4.47793 19.4145 4 20.0034 4C20.5923 4 21.0702 4.47793 21.0702 5.06684V7.20053C21.0702 7.78944 20.5923 8.26738 20.0034 8.26738Z" fill="white"/>
<path d="M29.0554 12.0173C28.7822 12.0173 28.5091 11.9127 28.3012 11.7046C27.884 11.2874 27.884 10.6132 28.3012 10.196L29.8098 8.68742C30.227 8.27021 30.9011 8.27021 31.3184 8.68742C31.7356 9.10464 31.7356 9.77878 31.3184 10.196L29.8098 11.7046C29.6016 11.9127 29.3285 12.0173 29.0554 12.0173Z" fill="white"/>
<path d="M34.9378 21.0692H32.8041C32.2152 21.0692 31.7373 20.5913 31.7373 20.0024C31.7373 19.4135 32.2152 18.9355 32.8041 18.9355H34.9378C35.5267 18.9355 36.0047 19.4135 36.0047 20.0024C36.0047 20.5913 35.5267 21.0692 34.9378 21.0692Z" fill="white"/>
<path d="M7.20053 21.0692H5.06684C4.47793 21.0692 4 20.5913 4 20.0024C4 19.4135 4.47793 18.9355 5.06684 18.9355H7.20053C7.78944 18.9355 8.26738 19.4135 8.26738 20.0024C8.26738 20.5913 7.78944 21.0692 7.20053 21.0692Z" fill="white"/>
<path d="M10.9497 12.017C10.6765 12.017 10.4034 11.9125 10.1955 11.7043L8.68694 10.196C8.26972 9.77879 8.26972 9.10466 8.68694 8.68743C9.10415 8.2702 9.77829 8.27021 10.1955 8.68743L11.7041 10.196C12.1213 10.6132 12.1213 11.2874 11.7041 11.7046C11.4948 11.9125 11.2228 12.017 10.9497 12.017V12.017Z" fill="white"/>
</svg>
