<svg width="40" height="40" viewBox="0 0 40 40" fill="none" xmlns="http://www.w3.org/2000/svg">
<path d="M31.6073 12.4616C30.9305 12.4616 30.254 12.5694 29.5773 12.7847C28.0675 8.80015 24.3197 6 19.9473 6C15.6787 6 11.8789 8.74611 10.3174 12.7309C9.69288 12.5157 9.01607 12.4616 8.28732 12.4616C4.2791 12.4616 1 15.8541 1 20C1 24.1463 4.27947 27.5384 8.28732 27.5384H9.06798C8.70343 28.1845 8.49537 28.9384 8.49537 29.6921C8.49537 30.8231 8.91184 31.9 9.69251 32.7616C10.4732 33.5692 11.5146 34 12.6598 34C13.8049 34 14.794 33.5692 15.627 32.7616C16.5119 31.8463 17.2406 29.4232 17.6571 27.5384H20.6243C20.8324 28.2923 21.1969 28.9384 21.7176 29.5307C22.4983 30.3382 23.5397 30.7691 24.6849 30.7691C25.8301 30.7691 26.8192 30.3382 27.6521 29.5307C28.0686 29.0999 28.4328 28.3997 28.7454 27.5384H31.7127C35.7209 27.5384 39 24.146 39 20C38.9993 15.8541 35.6156 12.4616 31.6077 12.4616L31.6073 12.4616ZM14.1173 31.2005C13.3367 32.008 11.983 32.008 11.1501 31.2005C10.7859 30.8237 10.5775 30.2851 10.5775 29.6927C10.5775 29.1004 10.7855 28.5618 11.202 28.185C11.6704 27.7005 13.7005 27.0004 15.7306 26.5158C15.2625 28.6159 14.6376 30.7159 14.1174 31.2005H14.1173ZM23.1745 27.9698C22.758 27.5927 22.5499 27.0545 22.5499 26.4621C22.5499 25.8698 22.758 25.3311 23.1745 24.9544C23.6429 24.4698 25.673 23.7697 27.703 23.2852C27.2346 25.3853 26.6097 27.4853 26.0895 27.9698C25.3088 28.7774 23.9556 28.7774 23.1746 27.9698H23.1745ZM31.6074 25.3853H29.317C29.7335 23.9313 29.9415 22.5313 30.0457 22.1006C30.0976 21.7775 29.9938 21.4004 29.7335 21.1315C29.4731 20.8622 29.1608 20.7544 28.7967 20.8085C27.8599 20.97 23.0187 21.9395 21.6132 23.3931C21.0925 23.9317 20.7283 24.6314 20.5199 25.3853H18.0214V25.3316C18.0733 25.0086 17.9695 24.6315 17.7091 24.3625C17.4488 24.0932 17.1365 23.9854 16.7723 24.0395C16.1478 24.1473 13.7532 24.6319 11.8792 25.3857H8.18321C5.32017 25.3857 2.97785 22.9627 2.97785 20.001C2.97785 17.0393 5.32017 14.6162 8.18321 14.6162C9.58875 14.6162 10.8901 15.1549 11.8792 16.1776C12.2957 16.6085 12.9202 16.6085 13.3367 16.1776C13.7532 15.7468 13.7532 15.1008 13.3367 14.6699C12.9722 14.2928 12.5561 13.9161 12.0873 13.6467C13.4406 10.3616 16.5117 8.15381 19.9473 8.15381C24.5281 8.15381 28.2761 12.0308 28.2761 16.7696C28.2761 17.3619 28.7445 17.8464 29.3171 17.8464C29.8897 17.8464 30.3581 17.3619 30.3581 16.7696C30.3581 16.1235 30.3061 15.4771 30.2019 14.8311C30.6703 14.6695 31.1387 14.6158 31.6075 14.6158C34.4705 14.6158 36.8128 17.0389 36.8128 20.0006C36.8128 22.9619 34.4701 25.3853 31.6075 25.3853L31.6074 25.3853Z" fill="white"/>
</svg>
