<svg width="40" height="40" viewBox="0 0 40 40" fill="none" xmlns="http://www.w3.org/2000/svg">
<path d="M23.2381 3.12382C19.2246 2.61443 15.2869 3.68825 12.1543 6.13208C9.07034 8.53471 7.11513 11.9766 6.65385 15.8115C6.61264 16.1627 6.50229 16.4793 6.3372 16.741L3.39775 21.3397C2.89527 22.1384 2.86761 23.109 3.32198 23.9282C3.77635 24.7542 4.61623 25.2501 5.55924 25.2501H5.69696C6.16516 25.2501 6.54371 25.6287 6.55065 26.0969V28.1691C6.55065 29.119 6.92233 30.0139 7.59714 30.6887C8.27192 31.3634 9.16681 31.7352 10.1167 31.7352H10.1237H10.8739V34.0963C10.8739 34.6196 11.0736 35.1082 11.4453 35.4802C11.8239 35.8378 12.3128 36.0443 12.836 36.0443H25.3168C26.3975 36.0443 27.272 35.1701 27.272 34.0891C27.272 32.9534 27.5474 30.8812 29.3649 29.7039C34.1837 26.5922 36.6964 21.1538 35.9119 15.495C35.0095 9.03763 29.7982 3.95025 23.2379 3.12415L23.2381 3.12382ZM28.6213 28.5471C26.8658 29.6762 25.8951 31.645 25.8951 34.0888C25.8951 34.4055 25.6335 34.6671 25.3169 34.6671H12.8361C12.6777 34.6671 12.5333 34.6051 12.4229 34.4951C12.3129 34.385 12.2509 34.2404 12.2579 34.0888L12.2648 31.046V31.039V31.0321C12.2648 30.8463 12.189 30.6743 12.0651 30.5435C11.9343 30.4127 11.7623 30.3438 11.5764 30.3438H10.1306C9.54545 30.3438 8.99488 30.1168 8.58169 29.7036C8.16852 29.2904 7.94148 28.7399 7.94148 28.1616V26.0894C7.94148 24.8641 6.94315 23.8657 5.71116 23.8657H5.57343C5.13981 23.8657 4.74741 23.6387 4.54081 23.2598C4.33422 22.8812 4.34114 22.4338 4.57509 22.0687L7.5079 17.477C7.79026 17.0433 7.96227 16.5339 8.03113 15.9692C8.45092 12.4997 10.2203 9.38795 13.0084 7.21258C15.8516 4.99575 19.4245 4.02509 23.0662 4.48637C28.9176 5.2231 33.7502 9.93185 34.549 15.68C35.258 20.8022 32.9862 25.7312 28.6218 28.5473L28.6213 28.5471Z" fill="white"/>
<path d="M27.2999 20.5339C25.0762 19.522 23.5687 19.8525 22.6873 20.3069C22.2742 20.5203 21.9163 20.8162 21.5928 21.1744V15.6877C22.942 14.545 23.658 13.2577 23.658 11.9219C23.658 10.9374 23.2518 9.44348 21.3242 7.93607C21.0764 7.74332 20.7252 7.74332 20.4775 7.93607C18.5499 9.44378 18.1506 10.9374 18.1506 11.9219C18.1506 13.2505 18.8735 14.5447 20.2158 15.6808V17.0438C19.8923 16.686 19.5275 16.3898 19.1212 16.1763C18.2471 15.7219 16.7324 15.3914 14.5087 16.4033C14.2195 16.5341 14.0613 16.8439 14.1163 17.1536C14.5638 19.5562 15.6995 20.6027 16.574 21.0571C17.1384 21.3463 17.765 21.4976 18.4465 21.4976C19.004 21.4976 19.5961 21.3945 20.2089 21.2017V27.122C20.2089 27.5006 20.5187 27.8104 20.8973 27.8104C21.2759 27.8104 21.5856 27.5006 21.5856 27.122V25.3322C22.1984 25.525 22.7902 25.6281 23.3481 25.6281C24.0295 25.6281 24.6561 25.4835 25.2206 25.1876C26.0948 24.7332 27.2377 23.6867 27.6782 21.2841C27.7474 20.9744 27.5889 20.6646 27.2999 20.5338L27.2999 20.5339ZM17.2148 19.8387C16.4576 19.4462 15.9068 18.6202 15.597 17.443C16.7396 17.0232 17.7311 17.0024 18.4882 17.3948C19.397 17.87 19.8652 18.8749 20.1061 19.7905C19.2181 20.121 18.1235 20.3138 17.2148 19.8387ZM19.5278 11.9221C19.5278 11.0684 20.0029 10.2012 20.9047 9.37483C21.8066 10.1939 22.2817 11.0684 22.2817 11.9152C22.2817 12.9409 21.6069 13.822 20.9047 14.4624C20.2092 13.8289 19.5278 12.9478 19.5278 11.9221ZM24.5944 23.9692C23.6857 24.4443 22.5911 24.2515 21.7031 23.921C21.944 23.0054 22.4122 22.0004 23.3209 21.5253C24.0781 21.1329 25.0695 21.1537 26.2122 21.5735C25.9025 22.7507 25.3519 23.5768 24.5944 23.9692Z" fill="white"/>
</svg>
